0
SECTION
2
HEADER
9
$ACADVER
1
AC1009
0
ENDSEC
0
SECTION
2
TABLES
0
TABLE
2
VPORT
70
1
0
VPORT
2
ACTIVE
70
0
10
0.0
20
0.0
11
0.0
21
0.0
12
0.0
22
0.0
13
0.0
23
0.0
14
0.0
24
0.0
15
0.0
25
0.0
16
0.0
26
0.0
36
0.0
17
0.0
27
0.0
37
0.0
40
0.0
41
0.0
42
0.0
43
0.0
44
0.0
50
0.0
51
0.0
71
0
72
1000
73
1
74
3
75
0
76
0
77
0
78
0
0
ENDTAB
0
ENDSEC
0
SECTION
2
ENTITIES
0
LINE
8
boundary
62
5
39
2
10
130.955270
20
173.641203
11
142.607685
21
160.286713
0
LINE
8
boundary
62
5
39
2
10
142.607685
20
160.286713
11
154.763680
21
147.537129
0
LINE
8
boundary
62
5
39
2
10
154.763680
20
147.537129
11
167.420707
21
135.378450
0
LINE
8
boundary
62
5
39
2
10
167.420707
20
135.378450
11
180.575573
21
123.783154
0
LINE
8
boundary
62
5
39
2
10
180.575573
20
123.783154
11
194.225032
21
112.723654
0
LINE
8
boundary
62
5
39
2
10
194.225032
20
112.723654
11
208.365798
21
102.172240
0
LINE
8
boundary
62
5
39
2
10
208.365798
20
102.172240
11
222.994605
21
92.101489
0
LINE
8
boundary
62
5
39
2
10
222.994605
20
92.101489
11
238.108195
21
82.483715
0
LINE
8
boundary
62
5
39
2
10
238.108195
20
82.483715
11
253.703296
21
73.291303
0
LINE
8
boundary
62
5
39
2
10
253.703296
20
73.291303
11
269.766912
21
64.510735
0
LINE
8
boundary
62
5
39
2
10
269.766912
20
64.510735
11
286.246804
21
56.184257
0
LINE
8
boundary
62
5
39
2
10
286.246804
20
56.184257
11
303.081005
21
48.368262
0
LINE
8
boundary
62
5
39
2
10
303.081005
20
48.368262
11
320.207487
21
41.118994
0
LINE
8
boundary
62
5
39
2
10
320.207487
20
41.118994
11
337.564337
21
34.492897
0
LINE
8
boundary
62
5
39
2
10
337.564337
20
34.492897
11
355.089532
21
28.546217
0
LINE
8
boundary
62
5
39
2
10
355.089532
20
28.546217
11
372.721041
21
23.335246
0
LINE
8
boundary
62
5
39
2
10
372.721041
20
23.335246
11
390.396956
21
18.916330
0
LINE
8
boundary
62
5
39
2
10
390.396956
20
18.916330
11
408.065573
21
15.326144
0
LINE
8
boundary
62
5
39
2
10
408.065573
20
15.326144
11
425.716481
21
12.522539
0
LINE
8
boundary
62
5
39
2
10
425.716481
20
12.522539
11
443.349620
21
10.443693
0
LINE
8
boundary
62
5
39
2
10
443.349620
20
10.443693
11
460.964932
21
9.027840
0
LINE
8
boundary
62
5
39
2
10
460.964932
20
9.027840
11
478.562300
21
8.212968
0
LINE
8
boundary
62
5
39
2
10
478.562300
20
8.212968
11
496.141672
21
7.937499
0
LINE
8
boundary
62
5
39
2
10
496.141672
20
7.937499
11
513.702980
21
8.139475
0
LINE
8
boundary
62
5
39
2
10
513.702980
20
8.139475
11
531.246095
21
8.757170
0
LINE
8
boundary
62
5
39
2
10
531.246095
20
8.757170
11
548.767276
21
9.762972
0
LINE
8
boundary
62
5
39
2
10
548.767276
20
9.762972
11
566.248028
21
11.266660
0
LINE
8
boundary
62
5
39
2
10
566.248028
20
11.266660
11
583.665920
21
13.412024
0
LINE
8
boundary
62
5
39
2
10
583.665920
20
13.412024
11
600.998776
21
16.343241
0
LINE
8
boundary
62
5
39
2
10
600.998776
20
16.343241
11
618.224347
21
20.204198
0
LINE
8
boundary
62
5
39
2
10
618.224347
20
20.204198
11
635.320242
21
25.138876
0
LINE
8
boundary
62
5
39
2
10
635.320242
20
25.138876
11
643.812722
21
28.053815
0
LINE
8
boundary
62
5
39
2
10
643.812722
20
28.053815
11
652.264361
21
31.291215
0
LINE
8
boundary
62
5
39
2
10
652.264361
20
31.291215
11
660.672496
21
34.869049
0
LINE
8
boundary
62
5
39
2
10
660.672496
20
34.869049
11
669.034292
21
38.805243
0
LINE
8
boundary
62
5
39
2
10
669.034292
20
38.805243
11
677.339963
21
43.112734
0
LINE
8
boundary
62
5
39
2
10
677.339963
20
43.112734
11
685.551697
21
47.784008
0
LINE
8
boundary
62
5
39
2
10
685.551697
20
47.784008
11
693.624604
21
52.806473
0
LINE
8
boundary
62
5
39
2
10
693.624604
20
52.806473
11
701.513730
21
58.167387
0
LINE
8
boundary
62
5
39
2
10
701.513730
20
58.167387
11
709.174308
21
63.854201
0
LINE
8
boundary
62
5
39
2
10
709.174308
20
63.854201
11
716.561332
21
69.854270
0
LINE
8
boundary
62
5
39
2
10
716.561332
20
69.854270
11
717.595924
21
70.776442
0
LINE
8
boundary
62
5
39
2
10
717.595924
20
70.776442
11
717.100624
21
71.411442
0
LINE
8
boundary
62
5
39
2
10
717.100624
20
71.411442
11
490.352586
21
71.411443
0
LINE
8
boundary
62
5
39
2
10
490.352586
20
71.411443
11
489.322541
21
70.723189
0
LINE
8
boundary
62
5
39
2
10
489.322541
20
70.723189
11
488.107522
21
70.481508
0
LINE
8
boundary
62
5
39
2
10
488.107522
20
70.481508
11
486.892502
21
70.723189
0
LINE
8
boundary
62
5
39
2
10
486.892502
20
70.723189
11
485.862457
21
71.411444
0
LINE
8
boundary
62
5
39
2
10
485.862457
20
71.411444
11
485.174203
21
72.441487
0
LINE
8
boundary
62
5
39
2
10
485.174203
20
72.441487
11
484.932521
21
73.656507
0
LINE
8
boundary
62
5
39
2
10
484.932521
20
73.656507
11
485.174204
21
74.871527
0
LINE
8
boundary
62
5
39
2
10
485.174204
20
74.871527
11
485.862457
21
75.901572
0
LINE
8
boundary
62
5
39
2
10
485.862457
20
75.901572
11
485.862458
21
79.367314
0
LINE
8
boundary
62
5
39
2
10
485.862458
20
79.367314
11
485.174203
21
80.397360
0
LINE
8
boundary
62
5
39
2
10
485.174203
20
80.397360
11
484.932521
21
81.612378
0
LINE
8
boundary
62
5
39
2
10
484.932521
20
81.612378
11
485.174205
21
82.827399
0
LINE
8
boundary
62
5
39
2
10
485.174205
20
82.827399
11
485.862457
21
83.857442
0
LINE
8
boundary
62
5
39
2
10
485.862457
20
83.857442
11
486.892503
21
84.545696
0
LINE
8
boundary
62
5
39
2
10
486.892503
20
84.545696
11
488.107522
21
84.787378
0
LINE
8
boundary
62
5
39
2
10
488.107522
20
84.787378
11
489.322542
21
84.545696
0
LINE
8
boundary
62
5
39
2
10
489.322542
20
84.545696
11
490.352586
21
83.857442
0
LINE
8
boundary
62
5
39
2
10
490.352586
20
83.857442
11
731.357526
21
83.857443
0
LINE
8
boundary
62
5
39
2
10
731.357526
20
83.857443
11
731.940117
21
84.492442
0
LINE
8
boundary
62
5
39
2
10
731.940117
20
84.492442
11
736.633000
21
89.607473
0
LINE
8
boundary
62
5
39
2
10
736.633000
20
89.607473
11
742.477506
21
96.734170
0
LINE
8
boundary
62
5
39
2
10
742.477506
20
96.734170
11
747.824077
21
104.110902
0
LINE
8
boundary
62
5
39
2
10
747.824077
20
104.110902
11
752.627951
21
111.725093
0
LINE
8
boundary
62
5
39
2
10
752.627951
20
111.725093
11
756.844214
21
119.564054
0
LINE
8
boundary
62
5
39
2
10
756.844214
20
119.564054
11
760.428128
21
127.615186
0
LINE
8
boundary
62
5
39
2
10
760.428128
20
127.615186
11
763.334612
21
135.865846
0
LINE
8
boundary
62
5
39
2
10
763.334612
20
135.865846
11
765.518852
21
144.303412
0
LINE
8
boundary
62
5
39
2
10
765.518852
20
144.303412
11
766.948996
21
152.910056
0
LINE
8
boundary
62
5
39
2
10
766.948996
20
152.910056
11
767.644472
21
161.647240
0
LINE
8
boundary
62
5
39
2
10
767.644472
20
161.647240
11
767.637906
21
170.471194
0
LINE
8
boundary
62
5
39
2
10
767.637906
20
170.471194
11
766.961734
21
179.338143
0
LINE
8
boundary
62
5
39
2
10
766.961734
20
179.338143
11
765.648418
21
188.204366
0
LINE
8
boundary
62
5
39
2
10
765.648418
20
188.204366
11
763.730609
21
197.026114
0
LINE
8
boundary
62
5
39
2
10
763.730609
20
197.026114
11
761.240693
21
205.759690
0
LINE
8
boundary
62
5
39
2
10
761.240693
20
205.759690
11
759.687229
21
210.170329
0
LINE
8
boundary
62
5
39
2
10
759.687229
20
210.170329
11
759.191928
21
210.805329
0
LINE
8
boundary
62
5
39
2
10
759.191928
20
210.805329
11
432.618072
21
210.805329
0
LINE
8
boundary
62
5
39
2
10
432.618072
20
210.805329
11
431.588028
21
210.117075
0
LINE
8
boundary
62
5
39
2
10
431.588028
20
210.117075
11
430.373009
21
209.875393
0
LINE
8
boundary
62
5
39
2
10
430.373009
20
209.875393
11
429.157988
21
210.117076
0
LINE
8
boundary
62
5
39
2
10
429.157988
20
210.117076
11
428.127944
21
210.805329
0
LINE
8
boundary
62
5
39
2
10
428.127944
20
210.805329
11
427.439692
21
211.835374
0
LINE
8
boundary
62
5
39
2
10
427.439692
20
211.835374
11
427.198007
21
213.050394
0
LINE
8
boundary
62
5
39
2
10
427.198007
20
213.050394
11
427.439692
21
214.265414
0
LINE
8
boundary
62
5
39
2
10
427.439692
20
214.265414
11
428.127945
21
215.295456
0
LINE
8
boundary
62
5
39
2
10
428.127945
20
215.295456
11
428.127945
21
218.761201
0
LINE
8
boundary
62
5
39
2
10
428.127945
20
218.761201
11
427.439690
21
219.791246
0
LINE
8
boundary
62
5
39
2
10
427.439690
20
219.791246
11
427.198008
21
221.006265
0
LINE
8
boundary
62
5
39
2
10
427.198008
20
221.006265
11
427.439690
21
222.221284
0
LINE
8
boundary
62
5
39
2
10
427.439690
20
222.221284
11
428.127945
21
223.251329
0
LINE
8
boundary
62
5
39
2
10
428.127945
20
223.251329
11
429.157988
21
223.939583
0
LINE
8
boundary
62
5
39
2
10
429.157988
20
223.939583
11
430.373009
21
224.181265
0
LINE
8
boundary
62
5
39
2
10
430.373009
20
224.181265
11
431.588027
21
223.939583
0
LINE
8
boundary
62
5
39
2
10
431.588027
20
223.939583
11
432.618073
21
223.251328
0
LINE
8
boundary
62
5
39
2
10
432.618073
20
223.251328
11
753.641925
21
223.251330
0
LINE
8
boundary
62
5
39
2
10
753.641925
20
223.251330
11
754.137225
21
223.886328
0
LINE
8
boundary
62
5
39
2
10
754.137225
20
223.886328
11
750.663308
21
230.993516
0
LINE
8
boundary
62
5
39
2
10
750.663308
20
230.993516
11
746.209946
21
238.936661
0
LINE
8
boundary
62
5
39
2
10
746.209946
20
238.936661
11
741.347039
21
246.572871
0
LINE
8
boundary
62
5
39
2
10
741.347039
20
246.572871
11
736.107025
21
253.858375
0
LINE
8
boundary
62
5
39
2
10
736.107025
20
253.858375
11
730.522482
21
260.749425
0
LINE
8
boundary
62
5
39
2
10
730.522482
20
260.749425
11
724.625725
21
267.202253
0
LINE
8
boundary
62
5
39
2
10
724.625725
20
267.202253
11
718.449406
21
273.173133
0
LINE
8
boundary
62
5
39
2
10
718.449406
20
273.173133
11
712.023052
21
278.633095
0
LINE
8
boundary
62
5
39
2
10
712.023052
20
278.633095
11
705.364470
21
283.612248
0
LINE
8
boundary
62
5
39
2
10
705.364470
20
283.612248
11
698.488606
21
288.155454
0
LINE
8
boundary
62
5
39
2
10
698.488606
20
288.155454
11
691.410163
21
292.307648
0
LINE
8
boundary
62
5
39
2
10
691.410163
20
292.307648
11
684.144109
21
296.113701
0
LINE
8
boundary
62
5
39
2
10
684.144109
20
296.113701
11
676.705310
21
299.618491
0
LINE
8
boundary
62
5
39
2
10
676.705310
20
299.618491
11
661.369012
21
305.903874
0
LINE
8
boundary
62
5
39
2
10
661.369012
20
305.903874
11
645.520149
21
311.522898
0
LINE
8
boundary
62
5
39
2
10
645.520149
20
311.522898
11
629.277729
21
316.834676
0
LINE
8
boundary
62
5
39
2
10
629.277729
20
316.834676
11
612.760664
21
322.198340
0
LINE
8
boundary
62
5
39
2
10
612.760664
20
322.198340
11
596.088038
21
327.972989
0
LINE
8
boundary
62
5
39
2
10
596.088038
20
327.972989
11
579.380156
21
334.462007
0
LINE
8
boundary
62
5
39
2
10
579.380156
20
334.462007
11
562.763584
21
341.745866
0
LINE
8
boundary
62
5
39
2
10
562.763584
20
341.745866
11
546.366050
21
349.849307
0
LINE
8
boundary
62
5
39
2
10
546.366050
20
349.849307
11
545.738381
21
350.199216
0
LINE
8
boundary
62
5
39
2
10
545.738381
20
350.199216
11
288.218757
21
350.199215
0
LINE
8
boundary
62
5
39
2
10
288.218757
20
350.199215
11
287.188712
21
349.510962
0
LINE
8
boundary
62
5
39
2
10
287.188712
20
349.510962
11
285.973691
21
349.269279
0
LINE
8
boundary
62
5
39
2
10
285.973691
20
349.269279
11
284.758673
21
349.510962
0
LINE
8
boundary
62
5
39
2
10
284.758673
20
349.510962
11
283.728628
21
350.199215
0
LINE
8
boundary
62
5
39
2
10
283.728628
20
350.199215
11
283.040375
21
351.229260
0
LINE
8
boundary
62
5
39
2
10
283.040375
20
351.229260
11
282.798693
21
352.444279
0
LINE
8
boundary
62
5
39
2
10
282.798693
20
352.444279
11
283.040375
21
353.659300
0
LINE
8
boundary
62
5
39
2
10
283.040375
20
353.659300
11
283.728629
21
354.689344
0
LINE
8
boundary
62
5
39
2
10
283.728629
20
354.689344
11
283.728629
21
358.155088
0
LINE
8
boundary
62
5
39
2
10
283.728629
20
358.155088
11
283.040375
21
359.185132
0
LINE
8
boundary
62
5
39
2
10
283.040375
20
359.185132
11
282.798693
21
360.400152
0
LINE
8
boundary
62
5
39
2
10
282.798693
20
360.400152
11
283.040374
21
361.615171
0
LINE
8
boundary
62
5
39
2
10
283.040374
20
361.615171
11
283.728628
21
362.645215
0
LINE
8
boundary
62
5
39
2
10
283.728628
20
362.645215
11
284.758673
21
363.333469
0
LINE
8
boundary
62
5
39
2
10
284.758673
20
363.333469
11
285.973691
21
363.575152
0
LINE
8
boundary
62
5
39
2
10
285.973691
20
363.575152
11
287.188712
21
363.333469
0
LINE
8
boundary
62
5
39
2
10
287.188712
20
363.333469
11
288.218756
21
362.645217
0
LINE
8
boundary
62
5
39
2
10
288.218756
20
362.645217
11
522.707069
21
362.645215
0
LINE
8
boundary
62
5
39
2
10
522.707069
20
362.645215
11
523.202371
21
363.280215
0
LINE
8
boundary
62
5
39
2
10
523.202371
20
363.280215
11
514.739822
21
368.613875
0
LINE
8
boundary
62
5
39
2
10
514.739822
20
368.613875
11
499.766798
21
379.324479
0
LINE
8
boundary
62
5
39
2
10
499.766798
20
379.324479
11
492.546334
21
385.022691
0
LINE
8
boundary
62
5
39
2
10
492.546334
20
385.022691
11
485.524421
21
390.953627
0
LINE
8
boundary
62
5
39
2
10
485.524421
20
390.953627
11
478.717211
21
397.120377
0
LINE
8
boundary
62
5
39
2
10
478.717211
20
397.120377
11
472.140549
21
403.526037
0
LINE
8
boundary
62
5
39
2
10
472.140549
20
403.526037
11
465.809606
21
410.171283
0
LINE
8
boundary
62
5
39
2
10
465.809606
20
410.171283
11
459.735728
21
417.047068
0
LINE
8
boundary
62
5
39
2
10
459.735728
20
417.047068
11
453.929444
21
424.141936
0
LINE
8
boundary
62
5
39
2
10
453.929444
20
424.141936
11
448.401196
21
431.444446
0
LINE
8
boundary
62
5
39
2
10
448.401196
20
431.444446
11
443.161588
21
438.943117
0
LINE
8
boundary
62
5
39
2
10
443.161588
20
438.943117
11
438.220985
21
446.626502
0
LINE
8
boundary
62
5
39
2
10
438.220985
20
446.626502
11
433.589995
21
454.483139
0
LINE
8
boundary
62
5
39
2
10
433.589995
20
454.483139
11
429.279053
21
462.501566
0
LINE
8
boundary
62
5
39
2
10
429.279053
20
462.501566
11
425.298663
21
470.670334
0
LINE
8
boundary
62
5
39
2
10
425.298663
20
470.670334
11
421.659324
21
478.977978
0
LINE
8
boundary
62
5
39
2
10
421.659324
20
478.977978
11
418.371500
21
487.413043
0
LINE
8
boundary
62
5
39
2
10
418.371500
20
487.413043
11
417.842855
21
488.958103
0
LINE
8
boundary
62
5
39
2
10
417.842855
20
488.958103
11
417.347556
21
489.593102
0
LINE
8
boundary
62
5
39
2
10
417.347556
20
489.593102
11
216.545770
21
489.593103
0
LINE
8
boundary
62
5
39
2
10
216.545770
20
489.593103
11
215.515726
21
488.904849
0
LINE
8
boundary
62
5
39
2
10
215.515726
20
488.904849
11
214.300707
21
488.663166
0
LINE
8
boundary
62
5
39
2
10
214.300707
20
488.663166
11
213.085686
21
488.904848
0
LINE
8
boundary
62
5
39
2
10
213.085686
20
488.904848
11
212.055644
21
489.593101
0
LINE
8
boundary
62
5
39
2
10
212.055644
20
489.593101
11
211.367390
21
490.623146
0
LINE
8
boundary
62
5
39
2
10
211.367390
20
490.623146
11
211.125707
21
491.838166
0
LINE
8
boundary
62
5
39
2
10
211.125707
20
491.838166
11
211.367389
21
493.053185
0
LINE
8
boundary
62
5
39
2
10
211.367389
20
493.053185
11
212.055643
21
494.083230
0
LINE
8
boundary
62
5
39
2
10
212.055643
20
494.083230
11
212.055643
21
497.548975
0
LINE
8
boundary
62
5
39
2
10
212.055643
20
497.548975
11
211.367390
21
498.579017
0
LINE
8
boundary
62
5
39
2
10
211.367390
20
498.579017
11
211.125707
21
499.794038
0
LINE
8
boundary
62
5
39
2
10
211.125707
20
499.794038
11
211.367390
21
501.009058
0
LINE
8
boundary
62
5
39
2
10
211.367390
20
501.009058
11
212.055643
21
502.039102
0
LINE
8
boundary
62
5
39
2
10
212.055643
20
502.039102
11
213.085687
21
502.727355
0
LINE
8
boundary
62
5
39
2
10
213.085687
20
502.727355
11
214.300708
21
502.969038
0
LINE
8
boundary
62
5
39
2
10
214.300708
20
502.969038
11
215.515726
21
502.727356
0
LINE
8
boundary
62
5
39
2
10
215.515726
20
502.727356
11
216.545770
21
502.039101
0
LINE
8
boundary
62
5
39
2
10
216.545770
20
502.039101
11
412.971146
21
502.039101
0
LINE
8
boundary
62
5
39
2
10
412.971146
20
502.039101
11
413.466444
21
502.674102
0
LINE
8
boundary
62
5
39
2
10
413.466444
20
502.674102
11
412.892569
21
504.619594
0
LINE
8
boundary
62
5
39
2
10
412.892569
20
504.619594
11
410.722371
21
513.368166
0
LINE
8
boundary
62
5
39
2
10
410.722371
20
513.368166
11
408.945739
21
522.198317
0
LINE
8
boundary
62
5
39
2
10
408.945739
20
522.198317
11
407.573113
21
531.098607
0
LINE
8
boundary
62
5
39
2
10
407.573113
20
531.098607
11
406.611385
21
540.057104
0
LINE
8
boundary
62
5
39
2
10
406.611385
20
540.057104
11
406.052820
21
549.060118
0
LINE
8
boundary
62
5
39
2
10
406.052820
20
549.060118
11
405.886077
21
558.093476
0
LINE
8
boundary
62
5
39
2
10
405.886077
20
558.093476
11
406.099815
21
567.143033
0
LINE
8
boundary
62
5
39
2
10
406.099815
20
567.143033
11
406.682691
21
576.194619
0
LINE
8
boundary
62
5
39
2
10
406.682691
20
576.194619
11
407.623367
21
585.234087
0
LINE
8
boundary
62
5
39
2
10
407.623367
20
585.234087
11
408.910499
21
594.247260
0
LINE
8
boundary
62
5
39
2
10
408.910499
20
594.247260
11
410.532687
21
603.219986
0
LINE
8
boundary
62
5
39
2
10
410.532687
20
603.219986
11
412.478621
21
612.138119
0
LINE
8
boundary
62
5
39
2
10
412.478621
20
612.138119
11
414.736964
21
620.987481
0
LINE
8
boundary
62
5
39
2
10
414.736964
20
620.987481
11
416.887088
21
628.351988
0
LINE
8
boundary
62
5
39
2
10
416.887088
20
628.351988
11
416.391789
21
628.986989
0
LINE
8
boundary
62
5
39
2
10
416.391789
20
628.986989
11
223.842795
21
628.986989
0
LINE
8
boundary
62
5
39
2
10
223.842795
20
628.986989
11
222.812751
21
628.298735
0
LINE
8
boundary
62
5
39
2
10
222.812751
20
628.298735
11
221.597731
21
628.057052
0
LINE
8
boundary
62
5
39
2
10
221.597731
20
628.057052
11
220.382711
21
628.298735
0
LINE
8
boundary
62
5
39
2
10
220.382711
20
628.298735
11
219.352667
21
628.986989
0
LINE
8
boundary
62
5
39
2
10
219.352667
20
628.986989
11
218.664413
21
630.017032
0
LINE
8
boundary
62
5
39
2
10
218.664413
20
630.017032
11
218.422730
21
631.232053
0
LINE
8
boundary
62
5
39
2
10
218.422730
20
631.232053
11
218.664414
21
632.447072
0
LINE
8
boundary
62
5
39
2
10
218.664414
20
632.447072
11
219.352666
21
633.477116
0
LINE
8
boundary
62
5
39
2
10
219.352666
20
633.477116
11
219.352666
21
636.942860
0
LINE
8
boundary
62
5
39
2
10
219.352666
20
636.942860
11
218.664413
21
637.972904
0
LINE
8
boundary
62
5
39
2
10
218.664413
20
637.972904
11
218.422730
21
639.187925
0
LINE
8
boundary
62
5
39
2
10
218.422730
20
639.187925
11
218.664413
21
640.402944
0
LINE
8
boundary
62
5
39
2
10
218.664413
20
640.402944
11
219.352667
21
641.432989
0
LINE
8
boundary
62
5
39
2
10
219.352667
20
641.432989
11
220.382712
21
642.121243
0
LINE
8
boundary
62
5
39
2
10
220.382712
20
642.121243
11
221.597732
21
642.362924
0
LINE
8
boundary
62
5
39
2
10
221.597732
20
642.362924
11
222.812750
21
642.121243
0
LINE
8
boundary
62
5
39
2
10
222.812750
20
642.121243
11
223.842796
21
641.432988
0
LINE
8
boundary
62
5
39
2
10
223.842796
20
641.432988
11
421.049189
21
641.432989
0
LINE
8
boundary
62
5
39
2
10
421.049189
20
641.432989
11
421.544490
21
642.067988
0
LINE
8
boundary
62
5
39
2
10
421.544490
20
642.067988
11
426.667465
21
655.414167
0
LINE
8
boundary
62
5
39
2
10
426.667465
20
655.414167
11
434.212085
21
671.846800
0
LINE
8
boundary
62
5
39
2
10
434.212085
20
671.846800
11
442.637673
21
687.657475
0
LINE
8
boundary
62
5
39
2
10
442.637673
20
687.657475
11
451.598625
21
702.980486
0
LINE
8
boundary
62
5
39
2
10
451.598625
20
702.980486
11
460.698578
21
717.999699
0
LINE
8
boundary
62
5
39
2
10
460.698578
20
717.999699
11
469.541002
21
732.898984
0
LINE
8
boundary
62
5
39
2
10
469.541002
20
732.898984
11
477.729383
21
747.862087
0
LINE
8
boundary
62
5
39
2
10
477.729383
20
747.862087
11
481.454422
21
755.425071
0
LINE
8
boundary
62
5
39
2
10
481.454422
20
755.425071
11
484.867290
21
763.073006
0
LINE
8
boundary
62
5
39
2
10
484.867290
20
763.073006
11
486.705582
21
767.745875
0
LINE
8
boundary
62
5
39
2
10
486.705582
20
767.745875
11
486.210283
21
768.380875
0
LINE
8
boundary
62
5
39
2
10
486.210283
20
768.380875
11
280.281655
21
768.380874
0
LINE
8
boundary
62
5
39
2
10
280.281655
20
768.380874
11
279.251612
21
767.692620
0
LINE
8
boundary
62
5
39
2
10
279.251612
20
767.692620
11
278.036592
21
767.450939
0
LINE
8
boundary
62
5
39
2
10
278.036592
20
767.450939
11
276.821572
21
767.692621
0
LINE
8
boundary
62
5
39
2
10
276.821572
20
767.692621
11
275.791528
21
768.380875
0
LINE
8
boundary
62
5
39
2
10
275.791528
20
768.380875
11
275.103274
21
769.410918
0
LINE
8
boundary
62
5
39
2
10
275.103274
20
769.410918
11
274.861591
21
770.625938
0
LINE
8
boundary
62
5
39
2
10
274.861591
20
770.625938
11
275.103273
21
771.840959
0
LINE
8
boundary
62
5
39
2
10
275.103273
20
771.840959
11
275.791528
21
772.871003
0
LINE
8
boundary
62
5
39
2
10
275.791528
20
772.871003
11
275.791527
21
776.336747
0
LINE
8
boundary
62
5
39
2
10
275.791527
20
776.336747
11
275.103273
21
777.366790
0
LINE
8
boundary
62
5
39
2
10
275.103273
20
777.366790
11
274.861592
21
778.581810
0
LINE
8
boundary
62
5
39
2
10
274.861592
20
778.581810
11
275.103275
21
779.796830
0
LINE
8
boundary
62
5
39
2
10
275.103275
20
779.796830
11
275.791528
21
780.826874
0
LINE
8
boundary
62
5
39
2
10
275.791528
20
780.826874
11
276.821571
21
781.515128
0
LINE
8
boundary
62
5
39
2
10
276.821571
20
781.515128
11
278.036591
21
781.756811
0
LINE
8
boundary
62
5
39
2
10
278.036591
20
781.756811
11
279.251611
21
781.515128
0
LINE
8
boundary
62
5
39
2
10
279.251611
20
781.515128
11
280.281656
21
780.826875
0
LINE
8
boundary
62
5
39
2
10
280.281656
20
780.826875
11
490.807173
21
780.826876
0
LINE
8
boundary
62
5
39
2
10
490.807173
20
780.826876
11
491.302473
21
781.461874
0
LINE
8
boundary
62
5
39
2
10
491.302473
20
781.461874
11
492.737161
21
786.756008
0
LINE
8
boundary
62
5
39
2
10
492.737161
20
786.756008
11
494.405700
21
794.973408
0
LINE
8
boundary
62
5
39
2
10
494.405700
20
794.973408
11
495.524515
21
803.380574
0
LINE
8
boundary
62
5
39
2
10
495.524515
20
803.380574
11
496.095361
21
811.950232
0
LINE
8
boundary
62
5
39
2
10
496.095361
20
811.950232
11
496.130315
21
820.645122
0
LINE
8
boundary
62
5
39
2
10
496.130315
20
820.645122
11
495.641306
21
829.427895
0
LINE
8
boundary
62
5
39
2
10
495.641306
20
829.427895
11
494.640432
21
838.261271
0
LINE
8
boundary
62
5
39
2
10
494.640432
20
838.261271
11
493.139712
21
847.107943
0
LINE
8
boundary
62
5
39
2
10
493.139712
20
847.107943
11
491.151145
21
855.930614
0
LINE
8
boundary
62
5
39
2
10
491.151145
20
855.930614
11
488.686768
21
864.691924
0
LINE
8
boundary
62
5
39
2
10
488.686768
20
864.691924
11
485.758580
21
873.354646
0
LINE
8
boundary
62
5
39
2
10
485.758580
20
873.354646
11
482.378601
21
881.881402
0
LINE
8
boundary
62
5
39
2
10
482.378601
20
881.881402
11
478.558901
21
890.234938
0
LINE
8
boundary
62
5
39
2
10
478.558901
20
890.234938
11
474.311444
21
898.377925
0
LINE
8
boundary
62
5
39
2
10
474.311444
20
898.377925
11
469.648321
21
906.273033
0
LINE
8
boundary
62
5
39
2
10
469.648321
20
906.273033
11
469.071244
21
907.139761
0
LINE
8
boundary
62
5
39
2
10
469.071244
20
907.139761
11
468.575945
21
907.774761
0
LINE
8
boundary
62
5
39
2
10
468.575945
20
907.774761
11
318.612435
21
907.774762
0
LINE
8
boundary
62
5
39
2
10
318.612435
20
907.774762
11
317.582390
21
907.086508
0
LINE
8
boundary
62
5
39
2
10
317.582390
20
907.086508
11
316.367371
21
906.844825
0
LINE
8
boundary
62
5
39
2
10
316.367371
20
906.844825
11
315.152350
21
907.086507
0
LINE
8
boundary
62
5
39
2
10
315.152350
20
907.086507
11
314.122307
21
907.774760
0
LINE
8
boundary
62
5
39
2
10
314.122307
20
907.774760
11
313.434053
21
908.804806
0
LINE
8
boundary
62
5
39
2
10
313.434053
20
908.804806
11
313.192370
21
910.019825
0
LINE
8
boundary
62
5
39
2
10
313.192370
20
910.019825
11
313.434053
21
911.234844
0
LINE
8
boundary
62
5
39
2
10
313.434053
20
911.234844
11
314.122307
21
912.264889
0
LINE
8
boundary
62
5
39
2
10
314.122307
20
912.264889
11
314.122306
21
915.730634
0
LINE
8
boundary
62
5
39
2
10
314.122306
20
915.730634
11
313.434054
21
916.760677
0
LINE
8
boundary
62
5
39
2
10
313.434054
20
916.760677
11
313.192372
21
917.975698
0
LINE
8
boundary
62
5
39
2
10
313.192372
20
917.975698
11
313.434054
21
919.190717
0
LINE
8
boundary
62
5
39
2
10
313.434054
20
919.190717
11
314.122306
21
920.220760
0
LINE
8
boundary
62
5
39
2
10
314.122306
20
920.220760
11
315.152351
21
920.909015
0
LINE
8
boundary
62
5
39
2
10
315.152351
20
920.909015
11
316.367370
21
921.150697
0
LINE
8
boundary
62
5
39
2
10
316.367370
20
921.150697
11
317.582391
21
920.909015
0
LINE
8
boundary
62
5
39
2
10
317.582391
20
920.909015
11
318.612436
21
920.220761
0
LINE
8
boundary
62
5
39
2
10
318.612436
20
920.220761
11
458.863480
21
920.220761
0
LINE
8
boundary
62
5
39
2
10
458.863480
20
920.220761
11
459.358781
21
920.855760
0
LINE
8
boundary
62
5
39
2
10
459.358781
20
920.855760
11
459.123016
21
921.170523
0
LINE
8
boundary
62
5
39
2
10
459.123016
20
921.170523
11
453.284891
21
928.098249
0
LINE
8
boundary
62
5
39
2
10
453.284891
20
928.098249
11
447.081144
21
934.634818
0
LINE
8
boundary
62
5
39
2
10
447.081144
20
934.634818
11
440.533378
21
940.772330
0
LINE
8
boundary
62
5
39
2
10
440.533378
20
940.772330
11
433.665305
21
946.508800
0
LINE
8
boundary
62
5
39
2
10
433.665305
20
946.508800
11
426.500528
21
951.842341
0
LINE
8
boundary
62
5
39
2
10
426.500528
20
951.842341
11
419.062722
21
956.770869
0
LINE
8
boundary
62
5
39
2
10
419.062722
20
956.770869
11
411.375525
21
961.292492
0
LINE
8
boundary
62
5
39
2
10
411.375525
20
961.292492
11
403.462611
21
965.405225
0
LINE
8
boundary
62
5
39
2
10
403.462611
20
965.405225
11
395.347507
21
969.107081
0
LINE
8
boundary
62
5
39
2
10
395.347507
20
969.107081
11
387.053998
21
972.396122
0
LINE
8
boundary
62
5
39
2
10
387.053998
20
972.396122
11
378.605636
21
975.270413
0
LINE
8
boundary
62
5
39
2
10
378.605636
20
975.270413
11
370.026067
21
977.727870
0
LINE
8
boundary
62
5
39
2
10
370.026067
20
977.727870
11
361.338959
21
979.766603
0
LINE
8
boundary
62
5
39
2
10
361.338959
20
979.766603
11
352.567990
21
981.384624
0
LINE
8
boundary
62
5
39
2
10
352.567990
20
981.384624
11
343.736734
21
982.579946
0
LINE
8
boundary
62
5
39
2
10
343.736734
20
982.579946
11
334.868866
21
983.350634
0
LINE
8
boundary
62
5
39
2
10
334.868866
20
983.350634
11
325.988031
21
983.694704
0
LINE
8
boundary
62
5
39
2
10
325.988031
20
983.694704
11
317.115427
21
983.612102
0
LINE
8
boundary
62
5
39
2
10
317.115427
20
983.612102
11
308.262653
21
983.110241
0
LINE
8
boundary
62
5
39
2
10
308.262653
20
983.110241
11
299.438755
21
982.198669
0
LINE
8
boundary
62
5
39
2
10
299.438755
20
982.198669
11
290.652924
21
980.886588
0
LINE
8
boundary
62
5
39
2
10
290.652924
20
980.886588
11
281.914285
21
979.183494
0
LINE
8
boundary
62
5
39
2
10
281.914285
20
979.183494
11
273.231920
21
977.098738
0
LINE
8
boundary
62
5
39
2
10
273.231920
20
977.098738
11
264.614981
21
974.641766
0
LINE
8
boundary
62
5
39
2
10
264.614981
20
974.641766
11
256.072636
21
971.821928
0
LINE
8
boundary
62
5
39
2
10
256.072636
20
971.821928
11
247.613921
21
968.648622
0
LINE
8
boundary
62
5
39
2
10
247.613921
20
968.648622
11
239.248031
21
965.131201
0
LINE
8
boundary
62
5
39
2
10
239.248031
20
965.131201
11
230.984074
21
961.279109
0
LINE
8
boundary
62
5
39
2
10
230.984074
20
961.279109
11
222.831181
21
957.101699
0
LINE
8
boundary
62
5
39
2
10
222.831181
20
957.101699
11
214.798435
21
952.608369
0
LINE
8
boundary
62
5
39
2
10
214.798435
20
952.608369
11
206.895016
21
947.808469
0
LINE
8
boundary
62
5
39
2
10
206.895016
20
947.808469
11
199.130047
21
942.711493
0
LINE
8
boundary
62
5
39
2
10
199.130047
20
942.711493
11
191.512639
21
937.326736
0
LINE
8
boundary
62
5
39
2
10
191.512639
20
937.326736
11
176.748232
21
925.748225
0
LINE
8
boundary
62
5
39
2
10
176.748232
20
925.748225
11
162.631168
21
913.231838
0
LINE
8
boundary
62
5
39
2
10
162.631168
20
913.231838
11
149.181965
21
899.952973
0
LINE
8
boundary
62
5
39
2
10
149.181965
20
899.952973
11
136.421189
21
886.087249
0
LINE
8
boundary
62
5
39
2
10
136.421189
20
886.087249
11
124.369406
21
871.810165
0
LINE
8
boundary
62
5
39
2
10
124.369406
20
871.810165
11
113.047158
21
857.297218
0
LINE
8
boundary
62
5
39
2
10
113.047158
20
857.297218
11
102.475008
21
842.723908
0
LINE
8
boundary
62
5
39
2
10
102.475008
20
842.723908
11
92.673572
21
828.265803
0
LINE
8
boundary
62
5
39
2
10
92.673572
20
828.265803
11
83.649633
21
814.045595
0
LINE
8
boundary
62
5
39
2
10
83.649633
20
814.045595
11
75.355226
21
799.974797
0
LINE
8
boundary
62
5
39
2
10
75.355226
20
799.974797
11
67.728658
21
785.912066
0
LINE
8
boundary
62
5
39
2
10
67.728658
20
785.912066
11
60.708207
21
771.716033
0
LINE
8
boundary
62
5
39
2
10
60.708207
20
771.716033
11
54.232221
21
757.245476
0
LINE
8
boundary
62
5
39
2
10
54.232221
20
757.245476
11
48.238958
21
742.359078
0
LINE
8
boundary
62
5
39
2
10
48.238958
20
742.359078
11
42.666747
21
726.915446
0
LINE
8
boundary
62
5
39
2
10
42.666747
20
726.915446
11
37.453886
21
710.773311
0
LINE
8
boundary
62
5
39
2
10
37.453886
20
710.773311
11
32.555106
21
693.836517
0
LINE
8
boundary
62
5
39
2
10
32.555106
20
693.836517
11
27.991068
21
676.189386
0
LINE
8
boundary
62
5
39
2
10
27.991068
20
676.189386
11
23.798906
21
657.961500
0
LINE
8
boundary
62
5
39
2
10
23.798906
20
657.961500
11
20.015611
21
639.282370
0
LINE
8
boundary
62
5
39
2
10
20.015611
20
639.282370
11
16.678388
21
620.281509
0
LINE
8
boundary
62
5
39
2
10
16.678388
20
620.281509
11
13.824227
21
601.088458
0
LINE
8
boundary
62
5
39
2
10
13.824227
20
601.088458
11
11.490286
21
581.832741
0
LINE
8
boundary
62
5
39
2
10
11.490286
20
581.832741
11
9.713651
21
562.643882
0
LINE
8
boundary
62
5
39
2
10
9.713651
20
562.643882
11
8.526005
21
543.629174
0
LINE
8
boundary
62
5
39
2
10
8.526005
20
543.629174
11
7.937501
21
524.806994
0
LINE
8
boundary
62
5
39
2
10
7.937501
20
524.806994
11
7.952980
21
506.173490
0
LINE
8
boundary
62
5
39
2
10
7.952980
20
506.173490
11
8.577191
21
487.724802
0
LINE
8
boundary
62
5
39
2
10
8.577191
20
487.724802
11
9.814908
21
469.457074
0
LINE
8
boundary
62
5
39
2
10
9.814908
20
469.457074
11
11.670901
21
451.366452
0
LINE
8
boundary
62
5
39
2
10
11.670901
20
451.366452
11
14.149965
21
433.449090
0
LINE
8
boundary
62
5
39
2
10
14.149965
20
433.449090
11
17.256849
21
415.701126
0
LINE
8
boundary
62
5
39
2
10
17.256849
20
415.701126
11
20.992668
21
398.119732
0
LINE
8
boundary
62
5
39
2
10
20.992668
20
398.119732
11
25.343492
21
380.706224
0
LINE
8
boundary
62
5
39
2
10
25.343492
20
380.706224
11
30.291713
21
363.462908
0
LINE
8
boundary
62
5
39
2
10
30.291713
20
363.462908
11
35.819744
21
346.392173
0
LINE
8
boundary
62
5
39
2
10
35.819744
20
346.392173
11
41.909973
21
329.496329
0
LINE
8
boundary
62
5
39
2
10
41.909973
20
329.496329
11
48.544768
21
312.777728
0
LINE
8
boundary
62
5
39
2
10
48.544768
20
312.777728
11
55.706567
21
296.238666
0
LINE
8
boundary
62
5
39
2
10
55.706567
20
296.238666
11
63.377695
21
279.881559
0
LINE
8
boundary
62
5
39
2
10
63.377695
20
279.881559
11
71.543777
21
263.717314
0
LINE
8
boundary
62
5
39
2
10
71.543777
20
263.717314
11
80.203205
21
247.791640
0
LINE
8
boundary
62
5
39
2
10
80.203205
20
247.791640
11
89.357517
21
232.158777
0
LINE
8
boundary
62
5
39
2
10
89.357517
20
232.158777
11
99.008285
21
216.872985
0
LINE
8
boundary
62
5
39
2
10
99.008285
20
216.872985
11
109.157158
21
201.988623
0
LINE
8
boundary
62
5
39
2
10
109.157158
20
201.988623
11
119.805613
21
187.559902
0
LINE
8
boundary
62
5
39
2
10
119.805613
20
187.559902
11
130.955270
21
173.641203
0
LINE
8
annotation
62
1
39
211
10
462.592244
20
67.474443
11
462.592244
21
87.794443
0
LINE
8
annotation
62
1
39
211
10
462.592244
20
87.794443
11
458.074848
21
83.275772
0
LINE
8
annotation
62
1
39
211
10
407.110695
20
206.868164
11
398.086097
21
206.868164
0
LINE
8
annotation
62
1
39
211
10
398.086097
20
206.868164
11
406.425121
21
220.292923
0
LINE
8
annotation
62
1
39
211
10
406.425121
20
220.292923
11
406.425121
21
220.292923
0
LINE
8
annotation
62
1
39
211
10
406.425121
20
220.292923
11
406.435090
21
220.305258
0
LINE
8
annotation
62
1
39
211
10
406.435090
20
220.305258
11
406.444650
21
220.317699
0
LINE
8
annotation
62
1
39
211
10
406.444650
20
220.317699
11
406.453863
21
220.330349
0
LINE
8
annotation
62
1
39
211
10
406.453863
20
220.330349
11
406.462794
21
220.343314
0
LINE
8
annotation
62
1
39
211
10
406.462794
20
220.343314
11
406.471504
21
220.356699
0
LINE
8
annotation
62
1
39
211
10
406.471504
20
220.356699
11
406.480057
21
220.370608
0
LINE
8
annotation
62
1
39
211
10
406.480057
20
220.370608
11
406.488516
21
220.385146
0
LINE
8
annotation
62
1
39
211
10
406.488516
20
220.385146
11
406.496943
21
220.400418
0
LINE
8
annotation
62
1
39
211
10
406.496943
20
220.400418
11
406.505402
21
220.416530
0
LINE
8
annotation
62
1
39
211
10
406.505402
20
220.416530
11
406.505402
21
220.416530
0
LINE
8
annotation
62
1
39
211
10
406.505402
20
220.416530
11
406.849718
21
221.155806
0
LINE
8
annotation
62
1
39
211
10
406.849718
20
221.155806
11
407.050862
21
221.922131
0
LINE
8
annotation
62
1
39
211
10
407.050862
20
221.922131
11
407.113762
21
222.698189
0
LINE
8
annotation
62
1
39
211
10
407.113762
20
222.698189
11
407.043349
21
223.466664
0
LINE
8
annotation
62
1
39
211
10
407.043349
20
223.466664
11
406.844551
21
224.210240
0
LINE
8
annotation
62
1
39
211
10
406.844551
20
224.210240
11
406.522298
21
224.911602
0
LINE
8
annotation
62
1
39
211
10
406.522298
20
224.911602
11
406.081519
21
225.553434
0
LINE
8
annotation
62
1
39
211
10
406.081519
20
225.553434
11
405.527144
21
226.118419
0
LINE
8
annotation
62
1
39
211
10
405.527144
20
226.118419
11
404.864102
21
226.589243
0
LINE
8
annotation
62
1
39
211
10
404.864102
20
226.589243
11
404.864102
21
226.589243
0
LINE
8
annotation
62
1
39
211
10
404.864102
20
226.589243
11
404.122770
21
226.928666
0
LINE
8
annotation
62
1
39
211
10
404.122770
20
226.928666
11
403.355271
21
227.126711
0
LINE
8
annotation
62
1
39
211
10
403.355271
20
227.126711
11
402.578762
21
227.187834
0
LINE
8
annotation
62
1
39
211
10
402.578762
20
227.187834
11
401.810402
21
227.116492
0
LINE
8
annotation
62
1
39
211
10
401.810402
20
227.116492
11
401.067350
21
226.917144
0
LINE
8
annotation
62
1
39
211
10
401.067350
20
226.917144
11
400.366765
21
226.594246
0
LINE
8
annotation
62
1
39
211
10
400.366765
20
226.594246
11
399.725804
21
226.152255
0
LINE
8
annotation
62
1
39
211
10
399.725804
20
226.152255
11
399.161626
21
225.595631
0
LINE
8
annotation
62
1
39
211
10
399.161626
20
225.595631
11
398.691389
21
224.928829
0
LINE
8
annotation
62
1
39
211
10
398.691389
20
224.928829
11
398.098840
21
223.792153
0
LINE
8
annotation
62
1
39
211
10
253.686781
20
346.262853
11
258.199080
21
346.262853
0
LINE
8
annotation
62
1
39
211
10
258.199080
20
346.262853
11
258.199080
21
346.262853
0
LINE
8
annotation
62
1
39
211
10
258.199080
20
346.262853
11
259.010628
21
346.335654
0
LINE
8
annotation
62
1
39
211
10
259.010628
20
346.335654
11
259.774266
21
346.545471
0
LINE
8
annotation
62
1
39
211
10
259.774266
20
346.545471
11
260.477294
21
346.879426
0
LINE
8
annotation
62
1
39
211
10
260.477294
20
346.879426
11
261.107010
21
347.324637
0
LINE
8
annotation
62
1
39
211
10
261.107010
20
347.324637
11
261.650713
21
347.868227
0
LINE
8
annotation
62
1
39
211
10
261.650713
20
347.868227
11
262.095703
21
348.497316
0
LINE
8
annotation
62
1
39
211
10
262.095703
20
348.497316
11
262.429278
21
349.199024
0
LINE
8
annotation
62
1
39
211
10
262.429278
20
349.199024
11
262.638737
21
349.960472
0
LINE
8
annotation
62
1
39
211
10
262.638737
20
349.960472
11
262.711379
21
350.768780
0
LINE
8
annotation
62
1
39
211
10
262.711379
20
350.768780
11
262.711379
21
353.028116
0
LINE
8
annotation
62
1
39
211
10
262.711379
20
353.028116
11
262.711379
21
353.028116
0
LINE
8
annotation
62
1
39
211
10
262.711379
20
353.028116
11
262.638737
21
353.836089
0
LINE
8
annotation
62
1
39
211
10
262.638737
20
353.836089
11
262.429278
21
354.597358
0
LINE
8
annotation
62
1
39
211
10
262.429278
20
354.597358
11
262.095703
21
355.299014
0
LINE
8
annotation
62
1
39
211
10
262.095703
20
355.299014
11
261.650713
21
355.928144
0
LINE
8
annotation
62
1
39
211
10
261.650713
20
355.928144
11
261.107010
21
356.471839
0
LINE
8
annotation
62
1
39
211
10
261.107010
20
356.471839
11
260.477294
21
356.917187
0
LINE
8
annotation
62
1
39
211
10
260.477294
20
356.917187
11
259.774266
21
357.251278
0
LINE
8
annotation
62
1
39
211
10
259.774266
20
357.251278
11
259.010628
21
357.461200
0
LINE
8
annotation
62
1
39
211
10
259.010628
20
357.461200
11
258.199080
21
357.534043
0
LINE
8
annotation
62
1
39
211
10
258.199080
20
357.534043
11
255.939744
21
357.534043
0
LINE
8
annotation
62
1
39
211
10
255.939744
20
357.534043
11
258.199080
21
357.534043
0
LINE
8
annotation
62
1
39
211
10
258.199080
20
357.534043
11
258.199080
21
357.534043
0
LINE
8
annotation
62
1
39
211
10
258.199080
20
357.534043
11
259.010628
21
357.606904
0
LINE
8
annotation
62
1
39
211
10
259.010628
20
357.606904
11
259.774266
21
357.816948
0
LINE
8
annotation
62
1
39
211
10
259.774266
20
357.816948
11
260.477294
21
358.151371
0
LINE
8
annotation
62
1
39
211
10
260.477294
20
358.151371
11
261.107010
21
358.597366
0
LINE
8
annotation
62
1
39
211
10
261.107010
20
358.597366
11
261.650713
21
359.142127
0
LINE
8
annotation
62
1
39
211
10
261.650713
20
359.142127
11
262.095703
21
359.772848
0
LINE
8
annotation
62
1
39
211
10
262.095703
20
359.772848
11
262.429278
21
360.476723
0
LINE
8
annotation
62
1
39
211
10
262.429278
20
360.476723
11
262.638737
21
361.240947
0
LINE
8
annotation
62
1
39
211
10
262.638737
20
361.240947
11
262.711379
21
362.052714
0
LINE
8
annotation
62
1
39
211
10
262.711379
20
362.052714
11
262.711379
21
362.052714
0
LINE
8
annotation
62
1
39
211
10
262.711379
20
362.052714
11
262.638737
21
362.860687
0
LINE
8
annotation
62
1
39
211
10
262.638737
20
362.860687
11
262.429278
21
363.621956
0
LINE
8
annotation
62
1
39
211
10
262.429278
20
363.621956
11
262.095703
21
364.323612
0
LINE
8
annotation
62
1
39
211
10
262.095703
20
364.323612
11
261.650713
21
364.952742
0
LINE
8
annotation
62
1
39
211
10
261.650713
20
364.952742
11
261.107010
21
365.496437
0
LINE
8
annotation
62
1
39
211
10
261.107010
20
365.496437
11
260.477294
21
365.941785
0
LINE
8
annotation
62
1
39
211
10
260.477294
20
365.941785
11
259.774266
21
366.275876
0
LINE
8
annotation
62
1
39
211
10
259.774266
20
366.275876
11
259.010628
21
366.485798
0
LINE
8
annotation
62
1
39
211
10
259.010628
20
366.485798
11
258.199080
21
366.558641
0
LINE
8
annotation
62
1
39
211
10
258.199080
20
366.558641
11
253.686781
21
366.558641
0
LINE
8
annotation
62
1
39
211
10
192.167424
20
490.173498
11
180.884765
21
490.173498
0
LINE
8
annotation
62
1
39
211
10
180.884765
20
490.173498
11
185.390692
21
505.976102
0
LINE
8
annotation
62
1
39
211
10
188.785430
20
485.656102
11
188.785430
21
494.680700
0
LINE
8
annotation
62
1
39
211
10
189.310819
20
625.049988
11
193.823118
21
625.049988
0
LINE
8
annotation
62
1
39
211
10
193.823118
20
625.049988
11
193.823118
21
625.049988
0
LINE
8
annotation
62
1
39
211
10
193.823118
20
625.049988
11
194.632988
21
625.122805
0
LINE
8
annotation
62
1
39
211
10
194.632988
20
625.122805
11
195.395735
21
625.332733
0
LINE
8
annotation
62
1
39
211
10
195.395735
20
625.332733
11
196.098500
21
625.666986
0
LINE
8
annotation
62
1
39
211
10
196.098500
20
625.666986
11
196.728426
21
626.112780
0
LINE
8
annotation
62
1
39
211
10
196.728426
20
626.112780
11
197.272654
21
626.657329
0
LINE
8
annotation
62
1
39
211
10
197.272654
20
626.657329
11
197.718325
21
627.287849
0
LINE
8
annotation
62
1
39
211
10
197.718325
20
627.287849
11
198.052582
21
627.991555
0
LINE
8
annotation
62
1
39
211
10
198.052582
20
627.991555
11
198.262566
21
628.755662
0
LINE
8
annotation
62
1
39
211
10
198.262566
20
628.755662
11
198.335417
21
629.567385
0
LINE
8
annotation
62
1
39
211
10
198.335417
20
629.567385
11
198.335417
21
631.815251
0
LINE
8
annotation
62
1
39
211
10
198.335417
20
631.815251
11
198.335417
21
631.815251
0
LINE
8
annotation
62
1
39
211
10
198.335417
20
631.815251
11
198.262607
21
632.626580
0
LINE
8
annotation
62
1
39
211
10
198.262607
20
632.626580
11
198.052729
21
633.389633
0
LINE
8
annotation
62
1
39
211
10
198.052729
20
633.389633
11
197.718609
21
634.091813
0
LINE
8
annotation
62
1
39
211
10
197.718609
20
634.091813
11
197.273074
21
634.720524
0
LINE
8
annotation
62
1
39
211
10
197.273074
20
634.720524
11
196.728951
21
635.263170
0
LINE
8
annotation
62
1
39
211
10
196.728951
20
635.263170
11
196.099067
21
635.707154
0
LINE
8
annotation
62
1
39
211
10
196.099067
20
635.707154
11
195.396249
21
636.039881
0
LINE
8
annotation
62
1
39
211
10
195.396249
20
636.039881
11
194.633324
21
636.248755
0
LINE
8
annotation
62
1
39
211
10
194.633324
20
636.248755
11
193.823118
21
636.321179
0
LINE
8
annotation
62
1
39
211
10
193.823118
20
636.321179
11
189.310819
21
636.321179
0
LINE
8
annotation
62
1
39
211
10
189.310819
20
636.321179
11
189.310819
21
645.369988
0
LINE
8
annotation
62
1
39
211
10
189.310819
20
645.369988
11
198.335417
21
645.369988
0
LINE
8
annotation
62
1
39
211
10
252.527686
20
784.763875
11
252.527686
21
784.763875
0
LINE
8
annotation
62
1
39
211
10
252.527686
20
784.763875
11
251.235025
21
784.279205
0
LINE
8
annotation
62
1
39
211
10
251.235025
20
784.279205
11
250.048840
21
783.626171
0
LINE
8
annotation
62
1
39
211
10
250.048840
20
783.626171
11
248.981307
21
782.821132
0
LINE
8
annotation
62
1
39
211
10
248.981307
20
782.821132
11
248.044601
21
781.880452
0
LINE
8
annotation
62
1
39
211
10
248.044601
20
781.880452
11
247.250900
21
780.820491
0
LINE
8
annotation
62
1
39
211
10
247.250900
20
780.820491
11
246.612381
21
779.657610
0
LINE
8
annotation
62
1
39
211
10
246.612381
20
779.657610
11
246.141220
21
778.408171
0
LINE
8
annotation
62
1
39
211
10
246.141220
20
778.408171
11
245.849594
21
777.088536
0
LINE
8
annotation
62
1
39
211
10
245.849594
20
777.088536
11
245.749680
21
775.715065
0
LINE
8
annotation
62
1
39
211
10
245.749680
20
775.715065
11
245.749680
21
768.961271
0
LINE
8
annotation
62
1
39
211
10
245.749680
20
768.961271
11
245.749680
21
768.961271
0
LINE
8
annotation
62
1
39
211
10
245.749680
20
768.961271
11
245.822532
21
768.149548
0
LINE
8
annotation
62
1
39
211
10
245.822532
20
768.149548
11
246.032515
21
767.385442
0
LINE
8
annotation
62
1
39
211
10
246.032515
20
767.385442
11
246.366772
21
766.681736
0
LINE
8
annotation
62
1
39
211
10
246.366772
20
766.681736
11
246.812443
21
766.051215
0
LINE
8
annotation
62
1
39
211
10
246.812443
20
766.051215
11
247.356671
21
765.506666
0
LINE
8
annotation
62
1
39
211
10
247.356671
20
765.506666
11
247.986597
21
765.060872
0
LINE
8
annotation
62
1
39
211
10
247.986597
20
765.060872
11
248.689362
21
764.726619
0
LINE
8
annotation
62
1
39
211
10
248.689362
20
764.726619
11
249.452109
21
764.516692
0
LINE
8
annotation
62
1
39
211
10
249.452109
20
764.516692
11
250.261979
21
764.443875
0
LINE
8
annotation
62
1
39
211
10
250.261979
20
764.443875
11
250.261979
21
764.443875
0
LINE
8
annotation
62
1
39
211
10
250.261979
20
764.443875
11
251.073527
21
764.516692
0
LINE
8
annotation
62
1
39
211
10
251.073527
20
764.516692
11
251.837165
21
764.726619
0
LINE
8
annotation
62
1
39
211
10
251.837165
20
764.726619
11
252.540193
21
765.060872
0
LINE
8
annotation
62
1
39
211
10
252.540193
20
765.060872
11
253.169909
21
765.506666
0
LINE
8
annotation
62
1
39
211
10
253.169909
20
765.506666
11
253.713612
21
766.051215
0
LINE
8
annotation
62
1
39
211
10
253.713612
20
766.051215
11
254.158602
21
766.681736
0
LINE
8
annotation
62
1
39
211
10
254.158602
20
766.681736
11
254.492177
21
767.385442
0
LINE
8
annotation
62
1
39
211
10
254.492177
20
767.385442
11
254.701636
21
768.149548
0
LINE
8
annotation
62
1
39
211
10
254.701636
20
768.149548
11
254.774278
21
768.961271
0
LINE
8
annotation
62
1
39
211
10
254.774278
20
768.961271
11
254.774278
21
771.209137
0
LINE
8
annotation
62
1
39
211
10
254.774278
20
771.209137
11
254.774278
21
771.209137
0
LINE
8
annotation
62
1
39
211
10
254.774278
20
771.209137
11
254.701636
21
772.020467
0
LINE
8
annotation
62
1
39
211
10
254.701636
20
772.020467
11
254.492177
21
772.783519
0
LINE
8
annotation
62
1
39
211
10
254.492177
20
772.783519
11
254.158602
21
773.485699
0
LINE
8
annotation
62
1
39
211
10
254.158602
20
773.485699
11
253.713612
21
774.114410
0
LINE
8
annotation
62
1
39
211
10
253.713612
20
774.114410
11
253.169909
21
774.657056
0
LINE
8
annotation
62
1
39
211
10
253.169909
20
774.657056
11
252.540193
21
775.101041
0
LINE
8
annotation
62
1
39
211
10
252.540193
20
775.101041
11
251.837165
21
775.433768
0
LINE
8
annotation
62
1
39
211
10
251.837165
20
775.433768
11
251.073527
21
775.642641
0
LINE
8
annotation
62
1
39
211
10
251.073527
20
775.642641
11
250.261979
21
775.715065
0
LINE
8
annotation
62
1
39
211
10
250.261979
20
775.715065
11
245.749680
21
775.715065
0
LINE
8
annotation
62
1
39
211
10
245.184527
20
761.903875
11
255.344527
21
761.903875
0
LINE
8
annotation
62
1
39
211
10
288.592758
20
903.837761
11
293.110154
21
924.157761
0
LINE
8
annotation
62
1
39
211
10
293.110154
20
924.157761
11
284.074088
21
924.157761
0
LINE
8
annotation
62
1
39
211
10
293.110154
20
915.108951
11
288.592758
21
915.108951
0
LINE
8
annotation
62
1
39
211
10
281.234266
20
201.473904
11
242.221616
21
201.473904
0
LINE
8
annotation
62
1
39
211
10
242.221616
20
201.473904
11
281.234266
21
271.735448
0
LINE
8
annotation
62
1
39
211
10
281.234266
20
271.735448
11
242.221616
21
271.735448
0
LINE
8
annotation
62
1
39
211
10
346.006764
20
236.604676
11
307.588954
21
236.604676
0
LINE
8
annotation
62
1
39
211
10
411.360883
20
217.093945
11
372.348234
21
217.093945
0
LINE
8
annotation
62
1
39
211
10
372.348234
20
217.093945
11
387.928619
21
271.735448
0
LINE
8
annotation
62
1
39
211
10
399.666782
20
201.473904
11
399.666782
21
232.678736
0
LINE
8
boundary
62
5
39
2
10
895.758132
20
55.234328
11
898.880526
21
53.084800
0
LINE
8
boundary
62
5
39
2
10
898.880526
20
53.084800
11
903.761913
21
49.978460
0
LINE
8
boundary
62
5
39
2
10
903.761913
20
49.978460
11
906.987796
21
47.925628
0
LINE
8
boundary
62
5
39
2
10
906.987796
20
47.925628
11
912.024688
21
44.956686
0
LINE
8
boundary
62
5
39
2
10
912.024688
20
44.956686
11
915.353334
21
42.994646
0
LINE
8
boundary
62
5
39
2
10
915.353334
20
42.994646
11
920.541525
21
40.158698
0
LINE
8
boundary
62
5
39
2
10
920.541525
20
40.158698
11
923.970188
21
38.284554
0
LINE
8
boundary
62
5
39
2
10
923.970188
20
38.284554
11
929.292844
21
35.595288
0
LINE
8
boundary
62
5
39
2
10
929.292844
20
35.595288
11
932.810340
21
33.818066
0
LINE
8
boundary
62
5
39
2
10
932.810340
20
33.818066
11
938.247441
21
31.293660
0
LINE
8
boundary
62
5
39
2
10
938.247441
20
31.293660
11
941.840568
21
29.625389
0
LINE
8
boundary
62
5
39
2
10
941.840568
20
29.625389
11
947.372068
21
27.284054
0
LINE
8
boundary
62
5
39
2
10
947.372068
20
27.284054
11
951.027579
21
25.736765
0
LINE
8
boundary
62
5
39
2
10
951.027579
20
25.736765
11
956.633458
21
23.596665
0
LINE
8
boundary
62
5
39
2
10
956.633458
20
23.596665
11
960.338134
21
22.182371
0
LINE
8
boundary
62
5
39
2
10
960.338134
20
22.182371
11
965.998382
21
20.261700
0
LINE
8
boundary
62
5
39
2
10
965.998382
20
20.261700
11
969.738992
21
18.992421
0
LINE
8
boundary
62
5
39
2
10
969.738992
20
18.992421
11
975.433609
21
17.309406
0
LINE
8
boundary
62
5
39
2
10
975.433609
20
17.309406
11
979.196915
21
16.197164
0
LINE
8
boundary
62
5
39
2
10
979.196915
20
16.197164
11
984.905851
21
14.769952
0
LINE
8
boundary
62
5
39
2
10
984.905851
20
14.769952
11
988.678634
21
13.826775
0
LINE
8
boundary
62
5
39
2
10
988.678634
20
13.826775
11
994.385227
21
12.667221
0
LINE
8
boundary
62
5
39
2
10
994.385227
20
12.667221
11
998.156446
21
11.900938
0
LINE
8
boundary
62
5
39
2
10
998.156446
20
11.900938
11
1003.857309
21
10.995431
0
LINE
8
boundary
62
5
39
2
10
1003.857309
20
10.995431
11
1007.624752
21
10.397015
0
LINE
8
boundary
62
5
39
2
10
1007.624752
20
10.397015
11
1013.319901
21
9.725585
0
LINE
8
boundary
62
5
39
2
10
1013.319901
20
9.725585
11
1017.083570
21
9.281872
0
LINE
8
boundary
62
5
39
2
10
1017.083570
20
9.281872
11
1022.772934
21
8.824566
0
LINE
8
boundary
62
5
39
2
10
1022.772934
20
8.824566
11
1026.532783
21
8.522354
0
LINE
8
boundary
62
5
39
2
10
1026.532783
20
8.522354
11
1032.216345
21
8.259189
0
LINE
8
boundary
62
5
39
2
10
1032.216345
20
8.259189
11
1035.972350
21
8.085270
0
LINE
8
boundary
62
5
39
2
10
1035.972350
20
8.085270
11
1041.650109
21
7.996292
0
LINE
8
boundary
62
5
39
2
10
1041.650109
20
7.996292
11
1045.402294
21
7.937500
0
LINE
8
boundary
62
5
39
2
10
1045.402294
20
7.937500
11
1048.343233
21
7.971328
0
LINE
8
boundary
62
5
39
2
10
1048.343233
20
7.971328
11
1048.343233
21
11.347570
0
LINE
8
boundary
62
5
39
2
10
1048.343233
20
11.347570
11
1047.654979
21
12.377615
0
LINE
8
boundary
62
5
39
2
10
1047.654979
20
12.377615
11
1047.413297
21
13.592634
0
LINE
8
boundary
62
5
39
2
10
1047.413297
20
13.592634
11
1047.654979
21
14.807654
0
LINE
8
boundary
62
5
39
2
10
1047.654979
20
14.807654
11
1048.343233
21
15.837699
0
LINE
8
boundary
62
5
39
2
10
1048.343233
20
15.837699
11
1049.373277
21
16.525952
0
LINE
8
boundary
62
5
39
2
10
1049.373277
20
16.525952
11
1050.588298
21
16.767635
0
LINE
8
boundary
62
5
39
2
10
1050.588298
20
16.767635
11
1051.803317
21
16.525952
0
LINE
8
boundary
62
5
39
2
10
1051.803317
20
16.525952
11
1052.833361
21
15.837698
0
LINE
8
boundary
62
5
39
2
10
1052.833361
20
15.837698
11
1115.797669
21
15.837699
0
LINE
8
boundary
62
5
39
2
10
1115.797669
20
15.837699
11
1116.196503
21
15.950447
0
LINE
8
boundary
62
5
39
2
10
1116.196503
20
15.950447
11
1118.033804
21
16.472699
0
LINE
8
boundary
62
5
39
2
10
1118.033804
20
16.472699
11
1119.787561
21
16.971203
0
LINE
8
boundary
62
5
39
2
10
1119.787561
20
16.971203
11
1122.494232
21
17.881805
0
LINE
8
boundary
62
5
39
2
10
1122.494232
20
17.881805
11
1124.268558
21
18.482178
0
LINE
8
boundary
62
5
39
2
10
1124.268558
20
18.482178
11
1126.956832
21
19.492550
0
LINE
8
boundary
62
5
39
2
10
1126.956832
20
19.492550
11
1128.715158
21
20.157186
0
LINE
8
boundary
62
5
39
2
10
1128.715158
20
20.157186
11
1131.383913
21
21.273141
0
LINE
8
boundary
62
5
39
2
10
1131.383913
20
21.273141
11
1133.124865
21
22.005318
0
LINE
8
boundary
62
5
39
2
10
1133.124865
20
22.005318
11
1135.772925
21
23.232693
0
LINE
8
boundary
62
5
39
2
10
1135.772925
20
23.232693
11
1137.495139
21
24.035441
0
LINE
8
boundary
62
5
39
2
10
1137.495139
20
24.035441
11
1140.119717
21
25.378597
0
LINE
8
boundary
62
5
39
2
10
1140.119717
20
25.378597
11
1141.820654
21
26.253850
0
LINE
8
boundary
62
5
39
2
10
1141.820654
20
26.253850
11
1144.411850
21
27.710946
0
LINE
8
boundary
62
5
39
2
10
1144.411850
20
27.710946
11
1146.084385
21
28.656525
0
LINE
8
boundary
62
5
39
2
10
1146.084385
20
28.656525
11
1148.630463
21
30.224104
0
LINE
8
boundary
62
5
39
2
10
1148.630463
20
30.224104
11
1150.266475
21
31.236729
0
LINE
8
boundary
62
5
39
2
10
1150.266475
20
31.236729
11
1152.755443
21
32.911303
0
LINE
8
boundary
62
5
39
2
10
1152.755443
20
32.911303
11
1154.346955
21
33.987863
0
LINE
8
boundary
62
5
39
2
10
1154.346955
20
33.987863
11
1156.766734
21
35.765952
0
LINE
8
boundary
62
5
39
2
10
1156.766734
20
35.765952
11
1158.306030
21
36.903258
0
LINE
8
boundary
62
5
39
2
10
1158.306030
20
36.903258
11
1160.644413
21
38.781170
0
LINE
8
boundary
62
5
39
2
10
1160.644413
20
38.781170
11
1162.123914
21
39.976225
0
LINE
8
boundary
62
5
39
2
10
1162.123914
20
39.976225
11
1164.368444
21
41.950420
0
LINE
8
boundary
62
5
39
2
10
1164.368444
20
41.950420
11
1165.780752
21
43.200175
0
LINE
8
boundary
62
5
39
2
10
1165.780752
20
43.200175
11
1167.918875
21
45.266762
0
LINE
8
boundary
62
5
39
2
10
1167.918875
20
45.266762
11
1169.256692
21
46.568485
0
LINE
8
boundary
62
5
39
2
10
1169.256692
20
46.568485
11
1171.275820
21
48.723663
0
LINE
8
boundary
62
5
39
2
10
1171.275820
20
48.723663
11
1172.532127
21
50.074525
0
LINE
8
boundary
62
5
39
2
10
1172.532127
20
50.074525
11
1174.419423
21
52.314293
0
LINE
8
boundary
62
5
39
2
10
1174.419423
20
52.314293
11
1175.587116
21
53.711805
0
LINE
8
boundary
62
5
39
2
10
1175.587116
20
53.711805
11
1177.329776
21
56.032074
0
LINE
8
boundary
62
5
39
2
10
1177.329776
20
56.032074
11
1178.401992
21
57.473665
0
LINE
8
boundary
62
5
39
2
10
1178.401992
20
57.473665
11
1179.987194
21
59.870123
0
LINE
8
boundary
62
5
39
2
10
1179.987194
20
59.870123
11
1180.957062
21
61.353529
0
LINE
8
boundary
62
5
39
2
10
1180.957062
20
61.353529
11
1182.371811
21
63.821867
0
LINE
8
boundary
62
5
39
2
10
1182.371811
20
63.821867
11
1183.232496
21
65.344960
0
LINE
8
boundary
62
5
39
2
10
1183.232496
20
65.344960
11
1184.463991
21
67.880663
0
LINE
8
boundary
62
5
39
2
10
1184.463991
20
67.880663
11
1185.208539
21
69.441400
0
LINE
8
boundary
62
5
39
2
10
1185.208539
20
69.441400
11
1186.243973
21
72.039845
0
LINE
8
boundary
62
5
39
2
10
1186.243973
20
72.039845
11
1186.865503
21
73.636393
0
LINE
8
boundary
62
5
39
2
10
1186.865503
20
73.636393
11
1187.692228
21
76.292711
0
LINE
8
boundary
62
5
39
2
10
1187.692228
20
76.292711
11
1188.183547
21
77.923445
0
LINE
8
boundary
62
5
39
2
10
1188.183547
20
77.923445
11
1188.793486
21
80.631710
0
LINE
8
boundary
62
5
39
2
10
1188.793486
20
80.631710
11
1189.150286
21
82.294242
0
LINE
8
boundary
62
5
39
2
10
1189.150286
20
82.294242
11
1189.553569
21
85.043633
0
LINE
8
boundary
62
5
39
2
10
1189.553569
20
85.043633
11
1189.782161
21
86.732965
0
LINE
8
boundary
62
5
39
2
10
1189.782161
20
86.732965
11
1189.993536
21
89.511736
0
LINE
8
boundary
62
5
39
2
10
1189.993536
20
89.511736
11
1190.103008
21
91.221924
0
LINE
8
boundary
62
5
39
2
10
1190.103008
20
91.221924
11
1190.137495
21
94.018385
0
LINE
8
boundary
62
5
39
2
10
1190.137495
20
94.018385
11
1190.136750
21
95.743433
0
LINE
8
boundary
62
5
39
2
10
1190.136750
20
95.743433
11
1190.009288
21
98.546000
0
LINE
8
boundary
62
5
39
2
10
1190.009288
20
98.546000
11
1189.907027
21
100.279753
0
LINE
8
boundary
62
5
39
2
10
1189.907027
20
100.279753
11
1189.632779
21
103.076874
0
LINE
8
boundary
62
5
39
2
10
1189.632779
20
103.076874
11
1189.437794
21
104.813085
0
LINE
8
boundary
62
5
39
2
10
1189.437794
20
104.813085
11
1189.031860
21
107.593419
0
LINE
8
boundary
62
5
39
2
10
1189.031860
20
107.593419
11
1188.752846
21
109.325683
0
LINE
8
boundary
62
5
39
2
10
1188.752846
20
109.325683
11
1188.230283
21
112.078055
0
LINE
8
boundary
62
5
39
2
10
1188.230283
20
112.078055
11
1187.875857
21
113.799809
0
LINE
8
boundary
62
5
39
2
10
1187.875857
20
113.799809
11
1187.251709
21
116.513142
0
LINE
8
boundary
62
5
39
2
10
1187.251709
20
116.513142
11
1186.830778
21
118.217551
0
LINE
8
boundary
62
5
39
2
10
1186.830778
20
118.217551
11
1186.120086
21
120.880911
0
LINE
8
boundary
62
5
39
2
10
1186.120086
20
120.880911
11
1185.641349
21
122.561120
0
LINE
8
boundary
62
5
39
2
10
1185.641349
20
122.561120
11
1184.858889
21
125.163854
0
LINE
8
boundary
62
5
39
2
10
1184.858889
20
125.163854
11
1184.331468
21
126.812645
0
LINE
8
boundary
62
5
39
2
10
1184.331468
20
126.812645
11
1183.492170
21
129.344058
0
LINE
8
boundary
62
5
39
2
10
1183.492170
20
129.344058
11
1182.925030
21
130.954214
0
LINE
8
boundary
62
5
39
2
10
1182.925030
20
130.954214
11
1182.043433
21
133.403892
0
LINE
8
boundary
62
5
39
2
10
1182.043433
20
133.403892
11
1181.445773
21
134.967935
0
LINE
8
boundary
62
5
39
2
10
1181.445773
20
134.967935
11
1180.536609
21
137.325564
0
LINE
8
boundary
62
5
39
2
10
1180.536609
20
137.325564
11
1179.917749
21
138.835908
0
LINE
8
boundary
62
5
39
2
10
1179.917749
20
138.835908
11
1178.995326
21
141.091282
0
LINE
8
boundary
62
5
39
2
10
1178.995326
20
141.091282
11
1178.534355
21
142.150586
0
LINE
8
boundary
62
5
39
2
10
1178.534355
20
142.150586
11
1178.039056
21
142.785585
0
LINE
8
boundary
62
5
39
2
10
1178.039056
20
142.785585
11
1000.105786
21
142.785585
0
LINE
8
boundary
62
5
39
2
10
1000.105786
20
142.785585
11
999.075742
21
142.097332
0
LINE
8
boundary
62
5
39
2
10
999.075742
20
142.097332
11
997.860722
21
141.855649
0
LINE
8
boundary
62
5
39
2
10
997.860722
20
141.855649
11
996.645702
21
142.097331
0
LINE
8
boundary
62
5
39
2
10
996.645702
20
142.097331
11
995.615658
21
142.785585
0
LINE
8
boundary
62
5
39
2
10
995.615658
20
142.785585
11
994.927405
21
143.815628
0
LINE
8
boundary
62
5
39
2
10
994.927405
20
143.815628
11
994.685722
21
145.030649
0
LINE
8
boundary
62
5
39
2
10
994.685722
20
145.030649
11
994.927405
21
146.245669
0
LINE
8
boundary
62
5
39
2
10
994.927405
20
146.245669
11
995.615658
21
147.275713
0
LINE
8
boundary
62
5
39
2
10
995.615658
20
147.275713
11
995.615657
21
150.741456
0
LINE
8
boundary
62
5
39
2
10
995.615657
20
150.741456
11
994.927404
21
151.771500
0
LINE
8
boundary
62
5
39
2
10
994.927404
20
151.771500
11
994.685722
21
152.986521
0
LINE
8
boundary
62
5
39
2
10
994.685722
20
152.986521
11
994.927404
21
154.201541
0
LINE
8
boundary
62
5
39
2
10
994.927404
20
154.201541
11
995.615658
21
155.231585
0
LINE
8
boundary
62
5
39
2
10
995.615658
20
155.231585
11
996.645702
21
155.919838
0
LINE
8
boundary
62
5
39
2
10
996.645702
20
155.919838
11
997.860722
21
156.161520
0
LINE
8
boundary
62
5
39
2
10
997.860722
20
156.161520
11
999.075742
21
155.919838
0
LINE
8
boundary
62
5
39
2
10
999.075742
20
155.919838
11
1000.105786
21
155.231585
0
LINE
8
boundary
62
5
39
2
10
1000.105786
20
155.231585
11
1171.599194
21
155.231585
0
LINE
8
boundary
62
5
39
2
10
1171.599194
20
155.231585
11
1172.094494
21
155.866585
0
LINE
8
boundary
62
5
39
2
10
1172.094494
20
155.866585
11
1171.404874
21
157.234982
0
LINE
8
boundary
62
5
39
2
10
1171.404874
20
157.234982
11
1170.800359
21
158.343828
0
LINE
8
boundary
62
5
39
2
10
1170.800359
20
158.343828
11
1169.946426
21
159.982100
0
LINE
8
boundary
62
5
39
2
10
1169.946426
20
159.982100
11
1169.348947
21
161.038038
0
LINE
8
boundary
62
5
39
2
10
1169.348947
20
161.038038
11
1168.506903
21
162.605357
0
LINE
8
boundary
62
5
39
2
10
1168.506903
20
162.605357
11
1167.916389
21
163.614687
0
LINE
8
boundary
62
5
39
2
10
1167.916389
20
163.614687
11
1166.265347
21
166.576578
0
LINE
8
boundary
62
5
39
2
10
1166.265347
20
166.576578
11
1165.104185
21
168.481024
0
LINE
8
boundary
62
5
39
2
10
1165.104185
20
168.481024
11
1163.493051
21
171.278903
0
LINE
8
boundary
62
5
39
2
10
1163.493051
20
171.278903
11
1162.357052
21
173.074374
0
LINE
8
boundary
62
5
39
2
10
1162.357052
20
173.074374
11
1160.780810
21
175.787369
0
LINE
8
boundary
62
5
39
2
10
1160.780810
20
175.787369
11
1159.667864
21
177.526388
0
LINE
8
boundary
62
5
39
2
10
1159.667864
20
177.526388
11
1158.121883
21
180.233158
0
LINE
8
boundary
62
5
39
2
10
1158.121883
20
180.233158
11
1157.029789
21
181.968709
0
LINE
8
boundary
62
5
39
2
10
1157.029789
20
181.968709
11
1155.509476
21
184.747569
0
LINE
8
boundary
62
5
39
2
10
1155.509476
20
184.747569
11
1154.435764
21
186.532983
0
LINE
8
boundary
62
5
39
2
10
1154.435764
20
186.532983
11
1152.933645
21
189.448896
0
LINE
8
boundary
62
5
39
2
10
1152.933645
20
189.448896
11
1151.873787
21
191.328671
0
LINE
8
boundary
62
5
39
2
10
1151.873787
20
191.328671
11
1150.371394
21
194.393605
0
LINE
8
boundary
62
5
39
2
10
1150.371394
20
194.393605
11
1149.313212
21
196.376319
0
LINE
8
boundary
62
5
39
2
10
1149.313212
20
196.376319
11
1147.788915
21
199.589030
0
LINE
8
boundary
62
5
39
2
10
1147.788915
20
199.589030
11
1146.718287
21
201.674255
0
LINE
8
boundary
62
5
39
2
10
1146.718287
20
201.674255
11
1145.150736
21
205.033503
0
LINE
8
boundary
62
5
39
2
10
1145.150736
20
205.033503
11
1144.053559
21
207.220806
0
LINE
8
boundary
62
5
39
2
10
1144.053559
20
207.220806
11
1142.421210
21
210.725338
0
LINE
8
boundary
62
5
39
2
10
1142.421210
20
210.725338
11
1141.283382
21
213.014295
0
LINE
8
boundary
62
5
39
2
10
1141.283382
20
213.014295
11
1139.564834
21
216.662869
0
LINE
8
boundary
62
5
39
2
10
1139.564834
20
216.662869
11
1138.372255
21
219.053043
0
LINE
8
boundary
62
5
39
2
10
1138.372255
20
219.053043
11
1137.473886
21
220.930958
0
LINE
8
boundary
62
5
39
2
10
1137.473886
20
220.930958
11
1136.852665
21
222.163870
0
LINE
8
boundary
62
5
39
2
10
1136.852665
20
222.163870
11
1135.924744
21
224.077331
0
LINE
8
boundary
62
5
39
2
10
1135.924744
20
224.077331
11
1135.284547
21
225.335386
0
LINE
8
boundary
62
5
39
2
10
1135.284547
20
225.335386
11
1134.324293
21
227.284232
0
LINE
8
boundary
62
5
39
2
10
1134.324293
20
227.284232
11
1133.663332
21
228.567378
0
LINE
8
boundary
62
5
39
2
10
1133.663332
20
228.567378
11
1132.668122
21
230.551460
0
LINE
8
boundary
62
5
39
2
10
1132.668122
20
230.551460
11
1131.984667
21
231.859641
0
LINE
8
boundary
62
5
39
2
10
1131.984667
20
231.859641
11
1130.953187
21
233.878878
0
LINE
8
boundary
62
5
39
2
10
1130.953187
20
233.878878
11
1130.246422
21
235.212067
0
LINE
8
boundary
62
5
39
2
10
1130.246422
20
235.212067
11
1129.183111
21
237.266697
0
LINE
8
boundary
62
5
39
2
10
1129.183111
20
237.266697
11
1128.456154
21
238.624928
0
LINE
8
boundary
62
5
39
2
10
1128.456154
20
238.624928
11
1127.366765
21
240.715276
0
LINE
8
boundary
62
5
39
2
10
1127.366765
20
240.715276
11
1126.623588
21
242.098608
0
LINE
8
boundary
62
5
39
2
10
1126.623588
20
242.098608
11
1125.513999
21
244.224987
0
LINE
8
boundary
62
5
39
2
10
1125.513999
20
244.224987
11
1124.758722
21
245.633486
0
LINE
8
boundary
62
5
39
2
10
1124.758722
20
245.633486
11
1123.634694
21
247.796215
0
LINE
8
boundary
62
5
39
2
10
1123.634694
20
247.796215
11
1122.871320
21
249.229940
0
LINE
8
boundary
62
5
39
2
10
1122.871320
20
249.229940
11
1121.738630
21
251.429338
0
LINE
8
boundary
62
5
39
2
10
1121.738630
20
251.429338
11
1120.971199
21
252.888352
0
LINE
8
boundary
62
5
39
2
10
1120.971199
20
252.888352
11
1119.835708
21
255.124738
0
LINE
8
boundary
62
5
39
2
10
1119.835708
20
255.124738
11
1119.068274
21
256.609097
0
LINE
8
boundary
62
5
39
2
10
1119.068274
20
256.609097
11
1117.935762
21
258.882784
0
LINE
8
boundary
62
5
39
2
10
1117.935762
20
258.882784
11
1117.172388
21
260.392554
0
LINE
8
boundary
62
5
39
2
10
1117.172388
20
260.392554
11
1116.048714
21
262.703867
0
LINE
8
boundary
62
5
39
2
10
1116.048714
20
262.703867
11
1115.293413
21
264.239106
0
LINE
8
boundary
62
5
39
2
10
1115.293413
20
264.239106
11
1114.184320
21
266.588359
0
LINE
8
boundary
62
5
39
2
10
1114.184320
20
266.588359
11
1113.441149
21
268.149128
0
LINE
8
boundary
62
5
39
2
10
1113.441149
20
268.149128
11
1112.352505
21
270.536642
0
LINE
8
boundary
62
5
39
2
10
1112.352505
20
270.536642
11
1111.625518
21
272.123001
0
LINE
8
boundary
62
5
39
2
10
1111.625518
20
272.123001
11
1110.563058
21
274.549092
0
LINE
8
boundary
62
5
39
2
10
1110.563058
20
274.549092
11
1109.856298
21
276.161103
0
LINE
8
boundary
62
5
39
2
10
1109.856298
20
276.161103
11
1108.825867
21
278.626091
0
LINE
8
boundary
62
5
39
2
10
1108.825867
20
278.626091
11
1108.143362
21
280.263813
0
LINE
8
boundary
62
5
39
2
10
1108.143362
20
280.263813
11
1107.635749
21
281.544473
0
LINE
8
boundary
62
5
39
2
10
1107.635749
20
281.544473
11
1107.140450
21
282.179471
0
LINE
8
boundary
62
5
39
2
10
1107.140450
20
282.179471
11
949.305447
21
282.179471
0
LINE
8
boundary
62
5
39
2
10
949.305447
20
282.179471
11
948.275402
21
281.491217
0
LINE
8
boundary
62
5
39
2
10
948.275402
20
281.491217
11
947.060382
21
281.249535
0
LINE
8
boundary
62
5
39
2
10
947.060382
20
281.249535
11
945.845362
21
281.491218
0
LINE
8
boundary
62
5
39
2
10
945.845362
20
281.491218
11
944.815319
21
282.179471
0
LINE
8
boundary
62
5
39
2
10
944.815319
20
282.179471
11
944.127065
21
283.209516
0
LINE
8
boundary
62
5
39
2
10
944.127065
20
283.209516
11
943.885382
21
284.424535
0
LINE
8
boundary
62
5
39
2
10
943.885382
20
284.424535
11
944.127065
21
285.639555
0
LINE
8
boundary
62
5
39
2
10
944.127065
20
285.639555
11
944.815318
21
286.669599
0
LINE
8
boundary
62
5
39
2
10
944.815318
20
286.669599
11
944.815318
21
290.135343
0
LINE
8
boundary
62
5
39
2
10
944.815318
20
290.135343
11
944.127065
21
291.165387
0
LINE
8
boundary
62
5
39
2
10
944.127065
20
291.165387
11
943.885382
21
292.380407
0
LINE
8
boundary
62
5
39
2
10
943.885382
20
292.380407
11
944.127065
21
293.595427
0
LINE
8
boundary
62
5
39
2
10
944.127065
20
293.595427
11
944.815319
21
294.625472
0
LINE
8
boundary
62
5
39
2
10
944.815319
20
294.625472
11
945.845362
21
295.313725
0
LINE
8
boundary
62
5
39
2
10
945.845362
20
295.313725
11
947.060382
21
295.555407
0
LINE
8
boundary
62
5
39
2
10
947.060382
20
295.555407
11
948.275402
21
295.313724
0
LINE
8
boundary
62
5
39
2
10
948.275402
20
295.313724
11
949.305446
21
294.625471
0
LINE
8
boundary
62
5
39
2
10
949.305446
20
294.625471
11
1102.204558
21
294.625471
0
LINE
8
boundary
62
5
39
2
10
1102.204558
20
294.625471
11
1102.699857
21
295.260470
0
LINE
8
boundary
62
5
39
2
10
1102.699857
20
295.260470
11
1102.594744
21
295.586320
0
LINE
8
boundary
62
5
39
2
10
1102.594744
20
295.586320
11
1102.048436
21
297.326970
0
LINE
8
boundary
62
5
39
2
10
1102.048436
20
297.326970
11
1101.252149
21
299.985476
0
LINE
8
boundary
62
5
39
2
10
1101.252149
20
299.985476
11
1100.742433
21
301.748973
0
LINE
8
boundary
62
5
39
2
10
1100.742433
20
301.748973
11
1099.990542
21
304.438455
0
LINE
8
boundary
62
5
39
2
10
1099.990542
20
304.438455
11
1099.513564
21
306.221686
0
LINE
8
boundary
62
5
39
2
10
1099.513564
20
306.221686
11
1098.800605
21
308.937545
0
LINE
8
boundary
62
5
39
2
10
1098.800605
20
308.937545
11
1098.352555
21
310.737401
0
LINE
8
boundary
62
5
39
2
10
1098.352555
20
310.737401
11
1097.673114
21
313.475042
0
LINE
8
boundary
62
5
39
2
10
1097.673114
20
313.475042
11
1097.250119
21
315.288416
0
LINE
8
boundary
62
5
39
2
10
1097.250119
20
315.288416
11
1096.598728
21
318.043242
0
LINE
8
boundary
62
5
39
2
10
1096.598728
20
318.043242
11
1096.196954
21
319.867017
0
LINE
8
boundary
62
5
39
2
10
1096.196954
20
319.867017
11
1095.568205
21
322.634434
0
LINE
8
boundary
62
5
39
2
10
1095.568205
20
322.634434
11
1095.183798
21
324.465509
0
LINE
8
boundary
62
5
39
2
10
1095.183798
20
324.465509
11
1094.572244
21
327.240916
0
LINE
8
boundary
62
5
39
2
10
1094.572244
20
327.240916
11
1094.201371
21
329.076173
0
LINE
8
boundary
62
5
39
2
10
1094.201371
20
329.076173
11
1093.601559
21
331.854968
0
LINE
8
boundary
62
5
39
2
10
1093.601559
20
331.854968
11
1093.240368
21
333.691305
0
LINE
8
boundary
62
5
39
2
10
1093.240368
20
333.691305
11
1092.646893
21
336.468901
0
LINE
8
boundary
62
5
39
2
10
1092.646893
20
336.468901
11
1092.291541
21
338.303200
0
LINE
8
boundary
62
5
39
2
10
1092.291541
20
338.303200
11
1091.698920
21
341.074997
0
LINE
8
boundary
62
5
39
2
10
1091.698920
20
341.074997
11
1091.345551
21
342.904153
0
LINE
8
boundary
62
5
39
2
10
1091.345551
20
342.904153
11
1090.748385
21
345.665548
0
LINE
8
boundary
62
5
39
2
10
1090.748385
20
345.665548
11
1090.393178
21
347.486449
0
LINE
8
boundary
62
5
39
2
10
1090.393178
20
347.486449
11
1089.163378
21
352.959673
0
LINE
8
boundary
62
5
39
2
10
1089.163378
20
352.959673
11
1088.432017
21
356.564274
0
LINE
8
boundary
62
5
39
2
10
1088.432017
20
356.564274
11
1087.118719
21
361.940742
0
LINE
8
boundary
62
5
39
2
10
1087.118719
20
361.940742
11
1086.333819
21
365.475010
0
LINE
8
boundary
62
5
39
2
10
1086.333819
20
365.475010
11
1084.902184
21
370.729928
0
LINE
8
boundary
62
5
39
2
10
1084.902184
20
370.729928
11
1084.038928
21
374.177392
0
LINE
8
boundary
62
5
39
2
10
1084.038928
20
374.177392
11
1082.488640
21
379.333867
0
LINE
8
boundary
62
5
39
2
10
1082.488640
20
379.333867
11
1081.546041
21
382.711735
0
LINE
8
boundary
62
5
39
2
10
1081.546041
20
382.711735
11
1079.885494
21
387.804836
0
LINE
8
boundary
62
5
39
2
10
1079.885494
20
387.804836
11
1078.868487
21
391.138730
0
LINE
8
boundary
62
5
39
2
10
1078.868487
20
391.138730
11
1077.106056
21
396.203534
0
LINE
8
boundary
62
5
39
2
10
1077.106056
20
396.203534
11
1076.019602
21
399.519069
0
LINE
8
boundary
62
5
39
2
10
1076.019602
20
399.519069
11
1074.163681
21
404.590664
0
LINE
8
boundary
62
5
39
2
10
1074.163681
20
404.590664
11
1073.012715
21
407.913452
0
LINE
8
boundary
62
5
39
2
10
1073.012715
20
407.913452
11
1072.052299
21
410.462748
0
LINE
8
boundary
62
5
39
2
10
1072.052299
20
410.462748
11
1071.454182
21
412.134876
0
LINE
8
boundary
62
5
39
2
10
1071.454182
20
412.134876
11
1070.473523
21
414.699034
0
LINE
8
boundary
62
5
39
2
10
1070.473523
20
414.699034
11
1069.861136
21
416.382582
0
LINE
8
boundary
62
5
39
2
10
1069.861136
20
416.382582
11
1068.861297
21
418.965962
0
LINE
8
boundary
62
5
39
2
10
1068.861297
20
418.965962
11
1068.235248
21
420.664133
0
LINE
8
boundary
62
5
39
2
10
1068.235248
20
420.664133
11
1068.128168
21
420.938358
0
LINE
8
boundary
62
5
39
2
10
1068.128168
20
420.938358
11
1067.632868
21
421.573357
0
LINE
8
boundary
62
5
39
2
10
1067.632868
20
421.573357
11
945.442183
21
421.573358
0
LINE
8
boundary
62
5
39
2
10
945.442183
20
421.573358
11
944.412139
21
420.885104
0
LINE
8
boundary
62
5
39
2
10
944.412139
20
420.885104
11
943.197118
21
420.643422
0
LINE
8
boundary
62
5
39
2
10
943.197118
20
420.643422
11
941.982098
21
420.885104
0
LINE
8
boundary
62
5
39
2
10
941.982098
20
420.885104
11
940.952054
21
421.573358
0
LINE
8
boundary
62
5
39
2
10
940.952054
20
421.573358
11
940.263800
21
422.603402
0
LINE
8
boundary
62
5
39
2
10
940.263800
20
422.603402
11
940.022118
21
423.818421
0
LINE
8
boundary
62
5
39
2
10
940.022118
20
423.818421
11
940.263801
21
425.033441
0
LINE
8
boundary
62
5
39
2
10
940.263801
20
425.033441
11
940.952055
21
426.063486
0
LINE
8
boundary
62
5
39
2
10
940.952055
20
426.063486
11
940.952054
21
429.529230
0
LINE
8
boundary
62
5
39
2
10
940.952054
20
429.529230
11
940.263801
21
430.559274
0
LINE
8
boundary
62
5
39
2
10
940.263801
20
430.559274
11
940.022118
21
431.774293
0
LINE
8
boundary
62
5
39
2
10
940.022118
20
431.774293
11
940.263801
21
432.989313
0
LINE
8
boundary
62
5
39
2
10
940.263801
20
432.989313
11
940.952054
21
434.019358
0
LINE
8
boundary
62
5
39
2
10
940.952054
20
434.019358
11
941.982098
21
434.707611
0
LINE
8
boundary
62
5
39
2
10
941.982098
20
434.707611
11
943.197118
21
434.949293
0
LINE
8
boundary
62
5
39
2
10
943.197118
20
434.949293
11
944.412138
21
434.707611
0
LINE
8
boundary
62
5
39
2
10
944.412138
20
434.707611
11
945.442182
21
434.019358
0
LINE
8
boundary
62
5
39
2
10
945.442182
20
434.019358
11
1062.339628
21
434.019358
0
LINE
8
boundary
62
5
39
2
10
1062.339628
20
434.019358
11
1062.834929
21
434.654357
0
LINE
8
boundary
62
5
39
2
10
1062.834929
20
434.654357
11
1062.109912
21
436.489703
0
LINE
8
boundary
62
5
39
2
10
1062.109912
20
436.489703
11
1061.434686
21
438.276774
0
LINE
8
boundary
62
5
39
2
10
1061.434686
20
438.276774
11
1060.346198
21
441.005970
0
LINE
8
boundary
62
5
39
2
10
1060.346198
20
441.005970
11
1059.655760
21
442.813940
0
LINE
8
boundary
62
5
39
2
10
1059.655760
20
442.813940
11
1058.539946
21
445.561020
0
LINE
8
boundary
62
5
39
2
10
1058.539946
20
445.561020
11
1057.830295
21
447.383351
0
LINE
8
boundary
62
5
39
2
10
1057.830295
20
447.383351
11
1056.681033
21
450.138856
0
LINE
8
boundary
62
5
39
2
10
1056.681033
20
450.138856
11
1055.948118
21
451.969006
0
LINE
8
boundary
62
5
39
2
10
1055.948118
20
451.969006
11
1054.759200
21
454.723506
0
LINE
8
boundary
62
5
39
2
10
1054.759200
20
454.723506
11
1053.999012
21
456.554945
0
LINE
8
boundary
62
5
39
2
10
1053.999012
20
456.554945
11
1052.764316
21
459.298988
0
LINE
8
boundary
62
5
39
2
10
1052.764316
20
459.298988
11
1051.972795
21
461.125186
0
LINE
8
boundary
62
5
39
2
10
1051.972795
20
461.125186
11
1050.686161
21
463.849327
0
LINE
8
boundary
62
5
39
2
10
1050.686161
20
463.849327
11
1049.859317
21
465.663746
0
LINE
8
boundary
62
5
39
2
10
1049.859317
20
465.663746
11
1048.514538
21
468.358540
0
LINE
8
boundary
62
5
39
2
10
1048.514538
20
468.358540
11
1047.648323
21
470.154630
0
LINE
8
boundary
62
5
39
2
10
1047.648323
20
470.154630
11
1046.239311
21
472.810627
0
LINE
8
boundary
62
5
39
2
10
1046.239311
20
472.810627
11
1045.329713
21
474.581871
0
LINE
8
boundary
62
5
39
2
10
1045.329713
20
474.581871
11
1043.850279
21
477.189631
0
LINE
8
boundary
62
5
39
2
10
1043.850279
20
477.189631
11
1042.893238
21
478.929474
0
LINE
8
boundary
62
5
39
2
10
1042.893238
20
478.929474
11
1041.337202
21
481.479546
0
LINE
8
boundary
62
5
39
2
10
1041.337202
20
481.479546
11
1040.328719
21
483.181461
0
LINE
8
boundary
62
5
39
2
10
1040.328719
20
483.181461
11
1038.689945
21
485.664393
0
LINE
8
boundary
62
5
39
2
10
1038.689945
20
485.664393
11
1037.626004
21
487.321852
0
LINE
8
boundary
62
5
39
2
10
1037.626004
20
487.321852
11
1035.898352
21
489.728199
0
LINE
8
boundary
62
5
39
2
10
1035.898352
20
489.728199
11
1034.774887
21
491.334655
0
LINE
8
boundary
62
5
39
2
10
1034.774887
20
491.334655
11
1032.952181
21
493.654980
0
LINE
8
boundary
62
5
39
2
10
1032.952181
20
493.654980
11
1031.765200
21
495.203901
0
LINE
8
boundary
62
5
39
2
10
1031.765200
20
495.203901
11
1029.841248
21
497.428753
0
LINE
8
boundary
62
5
39
2
10
1029.841248
20
497.428753
11
1028.586691
21
498.913604
0
LINE
8
boundary
62
5
39
2
10
1028.586691
20
498.913604
11
1026.555407
21
501.033559
0
LINE
8
boundary
62
5
39
2
10
1026.555407
20
501.033559
11
1025.229264
21
502.447796
0
LINE
8
boundary
62
5
39
2
10
1025.229264
20
502.447796
11
1023.086727
21
504.454681
0
LINE
8
boundary
62
5
39
2
10
1023.086727
20
504.454681
11
1021.686501
21
505.792713
0
LINE
8
boundary
62
5
39
2
10
1021.686501
20
505.792713
11
1019.438177
21
507.683749
0
LINE
8
boundary
62
5
39
2
10
1019.438177
20
507.683749
11
1017.967417
21
508.943736
0
LINE
8
boundary
62
5
39
2
10
1017.967417
20
508.943736
11
1015.620917
21
510.717400
0
LINE
8
boundary
62
5
39
2
10
1015.620917
20
510.717400
11
1014.084704
21
511.898454
0
LINE
8
boundary
62
5
39
2
10
1014.084704
20
511.898454
11
1011.647817
21
513.553224
0
LINE
8
boundary
62
5
39
2
10
1011.647817
20
513.553224
11
1010.051239
21
514.654457
0
LINE
8
boundary
62
5
39
2
10
1010.051239
20
514.654457
11
1007.531613
21
516.188886
0
LINE
8
boundary
62
5
39
2
10
1007.531613
20
516.188886
11
1005.879760
21
517.209392
0
LINE
8
boundary
62
5
39
2
10
1005.879760
20
517.209392
11
1003.285096
21
518.621896
0
LINE
8
boundary
62
5
39
2
10
1003.285096
20
518.621896
11
1001.583024
21
519.560767
0
LINE
8
boundary
62
5
39
2
10
1001.583024
20
519.560767
11
998.921058
21
520.849900
0
LINE
8
boundary
62
5
39
2
10
998.921058
20
520.849900
11
997.173867
21
521.706249
0
LINE
8
boundary
62
5
39
2
10
997.173867
20
521.706249
11
994.452264
21
522.870502
0
LINE
8
boundary
62
5
39
2
10
994.452264
20
522.870502
11
992.665047
21
523.643443
0
LINE
8
boundary
62
5
39
2
10
992.665047
20
523.643443
11
989.891526
21
524.681294
0
LINE
8
boundary
62
5
39
2
10
989.891526
20
524.681294
11
988.069336
21
525.369919
0
LINE
8
boundary
62
5
39
2
10
988.069336
20
525.369919
11
985.251598
21
526.279875
0
LINE
8
boundary
62
5
39
2
10
985.251598
20
526.279875
11
983.399527
21
526.883296
0
LINE
8
boundary
62
5
39
2
10
983.399527
20
526.883296
11
980.545273
21
527.663835
0
LINE
8
boundary
62
5
39
2
10
980.545273
20
527.663835
11
978.668420
21
528.181146
0
LINE
8
boundary
62
5
39
2
10
978.668420
20
528.181146
11
975.785331
21
528.830804
0
LINE
8
boundary
62
5
39
2
10
975.785331
20
528.830804
11
973.888753
21
529.261128
0
LINE
8
boundary
62
5
39
2
10
973.888753
20
529.261128
11
970.984550
21
529.778354
0
LINE
8
boundary
62
5
39
2
10
970.984550
20
529.778354
11
969.073350
21
530.120763
0
LINE
8
boundary
62
5
39
2
10
969.073350
20
530.120763
11
966.155732
21
530.504079
0
LINE
8
boundary
62
5
39
2
10
966.155732
20
530.504079
11
964.234976
21
530.757706
0
LINE
8
boundary
62
5
39
2
10
964.234976
20
530.757706
11
961.311645
21
531.005617
0
LINE
8
boundary
62
5
39
2
10
961.311645
20
531.005617
11
959.386433
21
531.169574
0
LINE
8
boundary
62
5
39
2
10
959.386433
20
531.169574
11
956.465072
21
531.280560
0
LINE
8
boundary
62
5
39
2
10
956.465072
20
531.280560
11
954.540472
21
531.353904
0
LINE
8
boundary
62
5
39
2
10
954.540472
20
531.353904
11
951.627961
21
531.327225
0
LINE
8
boundary
62
5
39
2
10
951.627961
20
531.327225
11
949.708497
21
531.309595
0
LINE
8
boundary
62
5
39
2
10
949.708497
20
531.309595
11
946.808233
21
531.147499
0
LINE
8
boundary
62
5
39
2
10
946.808233
20
531.147499
11
944.896195
21
531.040397
0
LINE
8
boundary
62
5
39
2
10
944.896195
20
531.040397
11
942.010696
21
530.745956
0
LINE
8
boundary
62
5
39
2
10
942.010696
20
530.745956
11
940.107826
21
530.551366
0
LINE
8
boundary
62
5
39
2
10
940.107826
20
530.551366
11
937.239712
21
530.127597
0
LINE
8
boundary
62
5
39
2
10
937.239712
20
530.127597
11
935.347737
21
529.847567
0
LINE
8
boundary
62
5
39
2
10
935.347737
20
529.847567
11
932.499551
21
529.297514
0
LINE
8
boundary
62
5
39
2
10
932.499551
20
529.297514
11
930.620217
21
528.934000
0
LINE
8
boundary
62
5
39
2
10
930.620217
20
528.934000
11
927.794475
21
528.260678
0
LINE
8
boundary
62
5
39
2
10
927.794475
20
528.260678
11
925.929502
21
527.815709
0
LINE
8
boundary
62
5
39
2
10
925.929502
20
527.815709
11
923.128813
21
527.022164
0
LINE
8
boundary
62
5
39
2
10
923.128813
20
527.022164
11
921.279951
21
526.497732
0
LINE
8
boundary
62
5
39
2
10
921.279951
20
526.497732
11
918.506839
21
525.586977
0
LINE
8
boundary
62
5
39
2
10
918.506839
20
525.586977
11
916.675819
21
524.985114
0
LINE
8
boundary
62
5
39
2
10
916.675819
20
524.985114
11
913.932855
21
523.960197
0
LINE
8
boundary
62
5
39
2
10
913.932855
20
523.960197
11
912.121378
21
523.282876
0
LINE
8
boundary
62
5
39
2
10
912.121378
20
523.282876
11
909.411113
21
522.146824
0
LINE
8
boundary
62
5
39
2
10
909.411113
20
522.146824
11
907.620970
21
521.396055
0
LINE
8
boundary
62
5
39
2
10
907.620970
20
521.396055
11
904.945963
21
520.151913
0
LINE
8
boundary
62
5
39
2
10
904.945963
20
520.151913
11
903.178844
21
519.329710
0
LINE
8
boundary
62
5
39
2
10
903.178844
20
519.329710
11
900.541663
21
517.980494
0
LINE
8
boundary
62
5
39
2
10
900.541663
20
517.980494
11
898.799313
21
517.088857
0
LINE
8
boundary
62
5
39
2
10
898.799313
20
517.088857
11
896.202521
21
515.637597
0
LINE
8
boundary
62
5
39
2
10
896.202521
20
515.637597
11
894.486687
21
514.678527
0
LINE
8
boundary
62
5
39
2
10
894.486687
20
514.678527
11
891.932815
21
513.128284
0
LINE
8
boundary
62
5
39
2
10
891.932815
20
513.128284
11
890.245211
21
512.103803
0
LINE
8
boundary
62
5
39
2
10
890.245211
20
512.103803
11
887.736834
21
510.457576
0
LINE
8
boundary
62
5
39
2
10
887.736834
20
510.457576
11
886.079211
21
509.369648
0
LINE
8
boundary
62
5
39
2
10
886.079211
20
509.369648
11
883.618886
21
507.630481
0
LINE
8
boundary
62
5
39
2
10
883.618886
20
507.630481
11
881.992981
21
506.481147
0
LINE
8
boundary
62
5
39
2
10
881.992981
20
506.481147
11
877.224407
21
502.741554
0
LINE
8
boundary
62
5
39
2
10
877.224407
20
502.741554
11
874.073055
21
500.270230
0
LINE
8
boundary
62
5
39
2
10
874.073055
20
500.270230
11
869.513527
21
496.227691
0
LINE
8
boundary
62
5
39
2
10
869.513527
20
496.227691
11
866.500354
21
493.556158
0
LINE
8
boundary
62
5
39
2
10
866.500354
20
493.556158
11
862.156546
21
489.267378
0
LINE
8
boundary
62
5
39
2
10
862.156546
20
489.267378
11
859.285919
21
486.433120
0
LINE
8
boundary
62
5
39
2
10
859.285919
20
486.433120
11
855.164460
21
481.954787
0
LINE
8
boundary
62
5
39
2
10
855.164460
20
481.954787
11
852.440779
21
478.995260
0
LINE
8
boundary
62
5
39
2
10
852.440779
20
478.995260
11
848.548313
21
474.384059
0
LINE
8
boundary
62
5
39
2
10
848.548313
20
474.384059
11
845.975950
21
471.336727
0
LINE
8
boundary
62
5
39
2
10
845.975950
20
471.336727
11
842.319105
21
466.649347
0
LINE
8
boundary
62
5
39
2
10
842.319105
20
466.649347
11
839.902465
21
463.551671
0
LINE
8
boundary
62
5
39
2
10
839.902465
20
463.551671
11
836.487894
21
458.844804
0
LINE
8
boundary
62
5
39
2
10
836.487894
20
458.844804
11
834.231359
21
455.734251
0
LINE
8
boundary
62
5
39
2
10
834.231359
20
455.734251
11
831.065697
21
451.064601
0
LINE
8
boundary
62
5
39
2
10
831.065697
20
451.064601
11
828.973657
21
447.978638
0
LINE
8
boundary
62
5
39
2
10
828.973657
20
447.978638
11
826.059114
21
443.385810
0
LINE
8
boundary
62
5
39
2
10
826.059114
20
443.385810
11
824.133029
21
440.350621
0
LINE
8
boundary
62
5
39
2
10
824.133029
20
440.350621
11
821.454109
21
435.806050
0
LINE
8
boundary
62
5
39
2
10
821.454109
20
435.806050
11
819.683732
21
432.802745
0
LINE
8
boundary
62
5
39
2
10
819.683732
20
432.802745
11
817.220517
21
428.260775
0
LINE
8
boundary
62
5
39
2
10
817.220517
20
428.260775
11
815.592682
21
425.259194
0
LINE
8
boundary
62
5
39
2
10
815.592682
20
425.259194
11
813.325227
21
420.674191
0
LINE
8
boundary
62
5
39
2
10
813.325227
20
420.674191
11
811.826768
21
417.644168
0
LINE
8
boundary
62
5
39
2
10
811.826768
20
417.644168
11
809.735154
21
412.970484
0
LINE
8
boundary
62
5
39
2
10
809.735154
20
412.970484
11
808.352905
21
409.881863
0
LINE
8
boundary
62
5
39
2
10
808.352905
20
409.881863
11
806.417219
21
405.073875
0
LINE
8
boundary
62
5
39
2
10
806.417219
20
405.073875
11
805.138010
21
401.896485
0
LINE
8
boundary
62
5
39
2
10
805.138010
20
401.896485
11
803.338303
21
396.908524
0
LINE
8
boundary
62
5
39
2
10
803.338303
20
396.908524
11
802.148954
21
393.612206
0
LINE
8
boundary
62
5
39
2
10
802.148954
20
393.612206
11
800.465302
21
388.398640
0
LINE
8
boundary
62
5
39
2
10
800.465302
20
388.398640
11
799.352652
21
384.953233
0
LINE
8
boundary
62
5
39
2
10
799.352652
20
384.953233
11
797.770453
21
379.483002
0
LINE
8
boundary
62
5
39
2
10
797.770453
20
379.483002
11
796.724849
21
375.867977
0
LINE
8
boundary
62
5
39
2
10
796.724849
20
375.867977
11
795.250776
21
370.168331
0
LINE
8
boundary
62
5
39
2
10
795.250776
20
370.168331
11
794.276626
21
366.401694
0
LINE
8
boundary
62
5
39
2
10
794.276626
20
366.401694
11
792.922637
21
360.514474
0
LINE
8
boundary
62
5
39
2
10
792.922637
20
360.514474
11
792.027845
21
356.623875
0
LINE
8
boundary
62
5
39
2
10
792.027845
20
356.623875
11
790.805919
21
350.590910
0
LINE
8
boundary
62
5
39
2
10
790.805919
20
350.590910
11
789.998418
21
346.604001
0
LINE
8
boundary
62
5
39
2
10
789.998418
20
346.604001
11
788.920556
21
340.467130
0
LINE
8
boundary
62
5
39
2
10
788.920556
20
340.467130
11
788.208239
21
336.411547
0
LINE
8
boundary
62
5
39
2
10
788.208239
20
336.411547
11
787.286414
21
330.212602
0
LINE
8
boundary
62
5
39
2
10
787.286414
20
330.212602
11
786.677224
21
326.115998
0
LINE
8
boundary
62
5
39
2
10
786.677224
20
326.115998
11
785.923409
21
319.896806
0
LINE
8
boundary
62
5
39
2
10
785.923409
20
319.896806
11
785.425248
21
315.786827
0
LINE
8
boundary
62
5
39
2
10
785.425248
20
315.786827
11
784.851427
21
309.589230
0
LINE
8
boundary
62
5
39
2
10
784.851427
20
309.589230
11
784.472218
21
305.493523
0
LINE
8
boundary
62
5
39
2
10
784.472218
20
305.493523
11
784.088637
21
299.352178
0
LINE
8
boundary
62
5
39
2
10
784.088637
20
299.352178
11
783.835142
21
295.293638
0
LINE
8
boundary
62
5
39
2
10
783.835142
20
295.293638
11
783.645082
21
289.214474
0
LINE
8
boundary
62
5
39
2
10
783.645082
20
289.214474
11
783.519472
21
285.197029
0
LINE
8
boundary
62
5
39
2
10
783.519472
20
285.197029
11
783.524467
21
279.178803
0
LINE
8
boundary
62
5
39
2
10
783.524467
20
279.178803
11
783.527772
21
275.201630
0
LINE
8
boundary
62
5
39
2
10
783.527772
20
275.201630
11
783.729376
21
269.243095
0
LINE
8
boundary
62
5
39
2
10
783.729376
20
269.243095
11
783.862606
21
265.305369
0
LINE
8
boundary
62
5
39
2
10
783.862606
20
265.305369
11
784.262343
21
259.405285
0
LINE
8
boundary
62
5
39
2
10
784.262343
20
259.405285
11
784.526518
21
255.506184
0
LINE
8
boundary
62
5
39
2
10
784.526518
20
255.506184
11
785.125981
21
249.663298
0
LINE
8
boundary
62
5
39
2
10
785.125981
20
249.663298
11
785.522121
21
245.802001
0
LINE
8
boundary
62
5
39
2
10
785.522121
20
245.802001
11
786.322806
21
240.015074
0
LINE
8
boundary
62
5
39
2
10
786.322806
20
240.015074
11
786.851949
21
236.190757
0
LINE
8
boundary
62
5
39
2
10
786.851949
20
236.190757
11
787.855407
21
230.458536
0
LINE
8
boundary
62
5
39
2
10
787.855407
20
230.458536
11
788.518545
21
226.670371
0
LINE
8
boundary
62
5
39
2
10
788.518545
20
226.670371
11
789.725129
21
220.991957
0
LINE
8
boundary
62
5
39
2
10
789.725129
20
220.991957
11
790.522517
21
217.239350
0
LINE
8
boundary
62
5
39
2
10
790.522517
20
217.239350
11
791.927750
21
211.615159
0
LINE
8
boundary
62
5
39
2
10
791.927750
20
211.615159
11
792.856394
21
207.898383
0
LINE
8
boundary
62
5
39
2
10
792.856394
20
207.898383
11
794.454556
21
202.329160
0
LINE
8
boundary
62
5
39
2
10
794.454556
20
202.329160
11
795.510718
21
198.648716
0
LINE
8
boundary
62
5
39
2
10
795.510718
20
198.648716
11
797.296162
21
193.135235
0
LINE
8
boundary
62
5
39
2
10
797.296162
20
193.135235
11
798.476083
21
189.491620
0
LINE
8
boundary
62
5
39
2
10
798.476083
20
189.491620
11
800.443090
21
184.034621
0
LINE
8
boundary
62
5
39
2
10
800.443090
20
184.034621
11
801.742992
21
180.428339
0
LINE
8
boundary
62
5
39
2
10
801.742992
20
180.428339
11
803.885894
21
175.028580
0
LINE
8
boundary
62
5
39
2
10
803.885894
20
175.028580
11
805.302043
21
171.460127
0
LINE
8
boundary
62
5
39
2
10
805.302043
20
171.460127
11
807.615147
21
166.118375
0
LINE
8
boundary
62
5
39
2
10
807.615147
20
166.118375
11
809.143770
21
162.588245
0
LINE
8
boundary
62
5
39
2
10
809.143770
20
162.588245
11
810.473375
21
159.798117
0
LINE
8
boundary
62
5
39
2
10
810.473375
20
159.798117
11
813.378719
21
153.887381
0
LINE
8
boundary
62
5
39
2
10
813.378719
20
153.887381
11
816.257504
21
147.920525
0
LINE
8
boundary
62
5
39
2
10
816.257504
20
147.920525
11
817.639182
21
145.143109
0
LINE
8
boundary
62
5
39
2
10
817.639182
20
145.143109
11
820.435991
21
139.999451
0
LINE
8
boundary
62
5
39
2
10
820.435991
20
139.999451
11
822.284272
21
136.600238
0
LINE
8
boundary
62
5
39
2
10
822.284272
20
136.600238
11
825.240931
21
131.551146
0
LINE
8
boundary
62
5
39
2
10
825.240931
20
131.551146
11
827.194845
21
128.214430
0
LINE
8
boundary
62
5
39
2
10
827.194845
20
128.214430
11
830.311835
21
123.277462
0
LINE
8
boundary
62
5
39
2
10
830.311835
20
123.277462
11
832.371712
21
120.014840
0
LINE
8
boundary
62
5
39
2
10
832.371712
20
120.014840
11
835.649572
21
115.207503
0
LINE
8
boundary
62
5
39
2
10
835.649572
20
115.207503
11
837.815762
21
112.030554
0
LINE
8
boundary
62
5
39
2
10
837.815762
20
112.030554
11
841.254987
21
107.370394
0
LINE
8
boundary
62
5
39
2
10
841.254987
20
107.370394
11
843.527821
21
104.290700
0
LINE
8
boundary
62
5
39
2
10
843.527821
20
104.290700
11
847.128929
21
99.795244
0
LINE
8
boundary
62
5
39
2
10
847.128929
20
99.795244
11
849.508732
21
96.824404
0
LINE
8
boundary
62
5
39
2
10
849.508732
20
96.824404
11
853.272216
21
92.511184
0
LINE
8
boundary
62
5
39
2
10
853.272216
20
92.511184
11
855.759338
21
89.660774
0
LINE
8
boundary
62
5
39
2
10
855.759338
20
89.660774
11
859.685459
21
85.542929
0
LINE
8
boundary
62
5
39
2
10
859.685459
20
85.542929
11
862.280056
21
82.821637
0
LINE
8
boundary
62
5
39
2
10
862.280056
20
82.821637
11
866.368008
21
78.894659
0
LINE
8
boundary
62
5
39
2
10
866.368008
20
78.894659
11
869.069545
21
76.299482
0
LINE
8
boundary
62
5
39
2
10
869.069545
20
76.299482
11
873.318300
21
72.554436
0
LINE
8
boundary
62
5
39
2
10
873.318300
20
72.554436
11
876.126109
21
70.079513
0
LINE
8
boundary
62
5
39
2
10
876.126109
20
70.079513
11
880.534589
21
66.507516
0
LINE
8
boundary
62
5
39
2
10
880.534589
20
66.507516
11
883.447960
21
64.146948
0
LINE
8
boundary
62
5
39
2
10
883.447960
20
64.146948
11
888.015122
21
60.739101
0
LINE
8
boundary
62
5
39
2
10
888.015122
20
60.739101
11
891.033352
21
58.486995
0
LINE
8
boundary
62
5
39
2
10
891.033352
20
58.486995
11
895.758132
21
55.234328
0
LINE
8
annotation
62
1
39
211
10
1038.116962
20
9.782825
11
1033.754072
21
9.782825
0
LINE
8
annotation
62
1
39
211
10
1033.754072
20
9.782825
11
1037.785525
21
16.272947
0
LINE
8
annotation
62
1
39
211
10
1037.785525
20
16.272947
11
1037.785525
21
16.272947
0
LINE
8
annotation
62
1
39
211
10
1037.785525
20
16.272947
11
1037.790344
21
16.278911
0
LINE
8
annotation
62
1
39
211
10
1037.790344
20
16.278911
11
1037.794966
21
16.284925
0
LINE
8
annotation
62
1
39
211
10
1037.794966
20
16.284925
11
1037.799420
21
16.291041
0
LINE
8
annotation
62
1
39
211
10
1037.799420
20
16.291041
11
1037.803738
21
16.297309
0
LINE
8
annotation
62
1
39
211
10
1037.803738
20
16.297309
11
1037.807949
21
16.303780
0
LINE
8
annotation
62
1
39
211
10
1037.807949
20
16.303780
11
1037.812084
21
16.310504
0
LINE
8
annotation
62
1
39
211
10
1037.812084
20
16.310504
11
1037.816173
21
16.317532
0
LINE
8
annotation
62
1
39
211
10
1037.816173
20
16.317532
11
1037.820247
21
16.324915
0
LINE
8
annotation
62
1
39
211
10
1037.820247
20
16.324915
11
1037.824336
21
16.332704
0
LINE
8
annotation
62
1
39
211
10
1037.824336
20
16.332704
11
1037.824336
21
16.332704
0
LINE
8
annotation
62
1
39
211
10
1037.824336
20
16.332704
11
1037.990794
21
16.690103
0
LINE
8
annotation
62
1
39
211
10
1037.990794
20
16.690103
11
1038.088036
21
17.060579
0
LINE
8
annotation
62
1
39
211
10
1038.088036
20
17.060579
11
1038.118445
21
17.435759
0
LINE
8
annotation
62
1
39
211
10
1038.118445
20
17.435759
11
1038.084404
21
17.807274
0
LINE
8
annotation
62
1
39
211
10
1038.084404
20
17.807274
11
1037.988296
21
18.166752
0
LINE
8
annotation
62
1
39
211
10
1037.988296
20
18.166752
11
1037.832505
21
18.505821
0
LINE
8
annotation
62
1
39
211
10
1037.832505
20
18.505821
11
1037.619413
21
18.816111
0
LINE
8
annotation
62
1
39
211
10
1037.619413
20
18.816111
11
1037.351403
21
19.089250
0
LINE
8
annotation
62
1
39
211
10
1037.351403
20
19.089250
11
1037.030860
21
19.316867
0
LINE
8
annotation
62
1
39
211
10
1037.030860
20
19.316867
11
1037.030860
21
19.316867
0
LINE
8
annotation
62
1
39
211
10
1037.030860
20
19.316867
11
1036.672467
21
19.480960
0
LINE
8
annotation
62
1
39
211
10
1036.672467
20
19.480960
11
1036.301424
21
19.576703
0
LINE
8
annotation
62
1
39
211
10
1036.301424
20
19.576703
11
1035.926025
21
19.606252
0
LINE
8
annotation
62
1
39
211
10
1035.926025
20
19.606252
11
1035.554566
21
19.571763
0
LINE
8
annotation
62
1
39
211
10
1035.554566
20
19.571763
11
1035.195342
21
19.475389
0
LINE
8
annotation
62
1
39
211
10
1035.195342
20
19.475389
11
1034.856648
21
19.319286
0
LINE
8
annotation
62
1
39
211
10
1034.856648
20
19.319286
11
1034.546779
21
19.105608
0
LINE
8
annotation
62
1
39
211
10
1034.546779
20
19.105608
11
1034.274030
21
18.836511
0
LINE
8
annotation
62
1
39
211
10
1034.274030
20
18.836511
11
1034.046697
21
18.514150
0
LINE
8
annotation
62
1
39
211
10
1034.046697
20
18.514150
11
1033.760232
21
17.964630
0
LINE
8
annotation
62
1
39
211
10
965.573810
20
138.849222
11
970.086109
21
138.849222
0
LINE
8
annotation
62
1
39
211
10
970.086109
20
138.849222
11
970.086109
21
138.849222
0
LINE
8
annotation
62
1
39
211
10
970.086109
20
138.849222
11
970.897657
21
138.922023
0
LINE
8
annotation
62
1
39
211
10
970.897657
20
138.922023
11
971.661295
21
139.131840
0
LINE
8
annotation
62
1
39
211
10
971.661295
20
139.131840
11
972.364323
21
139.465795
0
LINE
8
annotation
62
1
39
211
10
972.364323
20
139.465795
11
972.994039
21
139.911006
0
LINE
8
annotation
62
1
39
211
10
972.994039
20
139.911006
11
973.537743
21
140.454596
0
LINE
8
annotation
62
1
39
211
10
973.537743
20
140.454596
11
973.982732
21
141.083685
0
LINE
8
annotation
62
1
39
211
10
973.982732
20
141.083685
11
974.316307
21
141.785393
0
LINE
8
annotation
62
1
39
211
10
974.316307
20
141.785393
11
974.525766
21
142.546841
0
LINE
8
annotation
62
1
39
211
10
974.525766
20
142.546841
11
974.598408
21
143.355149
0
LINE
8
annotation
62
1
39
211
10
974.598408
20
143.355149
11
974.598408
21
145.614485
0
LINE
8
annotation
62
1
39
211
10
974.598408
20
145.614485
11
974.598408
21
145.614485
0
LINE
8
annotation
62
1
39
211
10
974.598408
20
145.614485
11
974.525766
21
146.422458
0
LINE
8
annotation
62
1
39
211
10
974.525766
20
146.422458
11
974.316307
21
147.183727
0
LINE
8
annotation
62
1
39
211
10
974.316307
20
147.183727
11
973.982732
21
147.885383
0
LINE
8
annotation
62
1
39
211
10
973.982732
20
147.885383
11
973.537743
21
148.514513
0
LINE
8
annotation
62
1
39
211
10
973.537743
20
148.514513
11
972.994039
21
149.058208
0
LINE
8
annotation
62
1
39
211
10
972.994039
20
149.058208
11
972.364323
21
149.503556
0
LINE
8
annotation
62
1
39
211
10
972.364323
20
149.503556
11
971.661295
21
149.837647
0
LINE
8
annotation
62
1
39
211
10
971.661295
20
149.837647
11
970.897657
21
150.047569
0
LINE
8
annotation
62
1
39
211
10
970.897657
20
150.047569
11
970.086109
21
150.120412
0
LINE
8
annotation
62
1
39
211
10
970.086109
20
150.120412
11
967.826774
21
150.120412
0
LINE
8
annotation
62
1
39
211
10
967.826774
20
150.120412
11
970.086109
21
150.120412
0
LINE
8
annotation
62
1
39
211
10
970.086109
20
150.120412
11
970.086109
21
150.120412
0
LINE
8
annotation
62
1
39
211
10
970.086109
20
150.120412
11
970.897657
21
150.193273
0
LINE
8
annotation
62
1
39
211
10
970.897657
20
150.193273
11
971.661295
21
150.403317
0
LINE
8
annotation
62
1
39
211
10
971.661295
20
150.403317
11
972.364323
21
150.737740
0
LINE
8
annotation
62
1
39
211
10
972.364323
20
150.737740
11
972.994039
21
151.183735
0
LINE
8
annotation
62
1
39
211
10
972.994039
20
151.183735
11
973.537743
21
151.728496
0
LINE
8
annotation
62
1
39
211
10
973.537743
20
151.728496
11
973.982732
21
152.359217
0
LINE
8
annotation
62
1
39
211
10
973.982732
20
152.359217
11
974.316307
21
153.063092
0
LINE
8
annotation
62
1
39
211
10
974.316307
20
153.063092
11
974.525766
21
153.827316
0
LINE
8
annotation
62
1
39
211
10
974.525766
20
153.827316
11
974.598408
21
154.639083
0
LINE
8
annotation
62
1
39
211
10
974.598408
20
154.639083
11
974.598408
21
154.639083
0
LINE
8
annotation
62
1
39
211
10
974.598408
20
154.639083
11
974.525766
21
155.447056
0
LINE
8
annotation
62
1
39
211
10
974.525766
20
155.447056
11
974.316307
21
156.208325
0
LINE
8
annotation
62
1
39
211
10
974.316307
20
156.208325
11
973.982732
21
156.909981
0
LINE
8
annotation
62
1
39
211
10
973.982732
20
156.909981
11
973.537743
21
157.539111
0
LINE
8
annotation
62
1
39
211
10
973.537743
20
157.539111
11
972.994039
21
158.082806
0
LINE
8
annotation
62
1
39
211
10
972.994039
20
158.082806
11
972.364323
21
158.528154
0
LINE
8
annotation
62
1
39
211
10
972.364323
20
158.528154
11
971.661295
21
158.862245
0
LINE
8
annotation
62
1
39
211
10
971.661295
20
158.862245
11
970.897657
21
159.072167
0
LINE
8
annotation
62
1
39
211
10
970.897657
20
159.072167
11
970.086109
21
159.145010
0
LINE
8
annotation
62
1
39
211
10
970.086109
20
159.145010
11
965.573810
21
159.145010
0
LINE
8
annotation
62
1
39
211
10
924.927099
20
282.759867
11
913.644440
21
282.759867
0
LINE
8
annotation
62
1
39
211
10
913.644440
20
282.759867
11
918.150368
21
298.562471
0
LINE
8
annotation
62
1
39
211
10
921.545105
20
278.242471
11
921.545105
21
287.267069
0
LINE
8
annotation
62
1
39
211
10
910.910207
20
417.636357
11
915.422506
21
417.636357
0
LINE
8
annotation
62
1
39
211
10
915.422506
20
417.636357
11
915.422506
21
417.636357
0
LINE
8
annotation
62
1
39
211
10
915.422506
20
417.636357
11
916.232375
21
417.709174
0
LINE
8
annotation
62
1
39
211
10
916.232375
20
417.709174
11
916.995122
21
417.919102
0
LINE
8
annotation
62
1
39
211
10
916.995122
20
417.919102
11
917.697888
21
418.253355
0
LINE
8
annotation
62
1
39
211
10
917.697888
20
418.253355
11
918.327813
21
418.699149
0
LINE
8
annotation
62
1
39
211
10
918.327813
20
418.699149
11
918.872041
21
419.243698
0
LINE
8
annotation
62
1
39
211
10
918.872041
20
419.243698
11
919.317713
21
419.874218
0
LINE
8
annotation
62
1
39
211
10
919.317713
20
419.874218
11
919.651969
21
420.577924
0
LINE
8
annotation
62
1
39
211
10
919.651969
20
420.577924
11
919.861953
21
421.342031
0
LINE
8
annotation
62
1
39
211
10
919.861953
20
421.342031
11
919.934805
21
422.153754
0
LINE
8
annotation
62
1
39
211
10
919.934805
20
422.153754
11
919.934805
21
424.401620
0
LINE
8
annotation
62
1
39
211
10
919.934805
20
424.401620
11
919.934805
21
424.401620
0
LINE
8
annotation
62
1
39
211
10
919.934805
20
424.401620
11
919.861995
21
425.212949
0
LINE
8
annotation
62
1
39
211
10
919.861995
20
425.212949
11
919.652116
21
425.976002
0
LINE
8
annotation
62
1
39
211
10
919.652116
20
425.976002
11
919.317996
21
426.678182
0
LINE
8
annotation
62
1
39
211
10
919.317996
20
426.678182
11
918.872461
21
427.306893
0
LINE
8
annotation
62
1
39
211
10
918.872461
20
427.306893
11
918.328338
21
427.849539
0
LINE
8
annotation
62
1
39
211
10
918.328338
20
427.849539
11
917.698454
21
428.293523
0
LINE
8
annotation
62
1
39
211
10
917.698454
20
428.293523
11
916.995636
21
428.626251
0
LINE
8
annotation
62
1
39
211
10
916.995636
20
428.626251
11
916.232711
21
428.835124
0
LINE
8
annotation
62
1
39
211
10
916.232711
20
428.835124
11
915.422506
21
428.907548
0
LINE
8
annotation
62
1
39
211
10
915.422506
20
428.907548
11
910.910207
21
428.907548
0
LINE
8
annotation
62
1
39
211
10
910.910207
20
428.907548
11
910.910207
21
437.956357
0
LINE
8
annotation
62
1
39
211
10
910.910207
20
437.956357
11
919.934805
21
437.956357
0
LINE
8
annotation
62
1
39
211
10
920.573281
20
200.482394
11
889.182489
21
200.482394
0
LINE
8
annotation
62
1
39
211
10
889.182489
20
200.482394
11
920.573281
21
257.017018
0
LINE
8
annotation
62
1
39
211
10
920.573281
20
257.017018
11
889.182489
21
257.017018
0
LINE
8
annotation
62
1
39
211
10
972.691249
20
228.749706
11
941.779083
21
228.749706
0
LINE
8
annotation
62
1
39
211
10
1006.456559
20
200.482394
11
1019.024930
21
257.017018
0
LINE
8
annotation
62
1
39
211
10
1019.024930
20
257.017018
11
993.884642
21
257.017018
0
LINE
8
annotation
62
1
39
211
10
1019.024930
20
231.841277
11
1006.456559
21
231.841277
0
LINE
8
boundary
62
5
39
2
10
898.849782
20
592.364203
11
902.325331
21
590.152494
0
LINE
8
boundary
62
5
39
2
10
902.325331
20
590.152494
11
906.954879
21
587.206398
0
LINE
8
boundary
62
5
39
2
10
906.954879
20
587.206398
11
910.541132
21
585.092498
0
LINE
8
boundary
62
5
39
2
10
910.541132
20
585.092498
11
915.318181
21
582.276706
0
LINE
8
boundary
62
5
39
2
10
915.318181
20
582.276706
11
919.012194
21
580.257510
0
LINE
8
boundary
62
5
39
2
10
919.012194
20
580.257510
11
923.932743
21
577.567876
0
LINE
8
boundary
62
5
39
2
10
923.932743
20
577.567876
11
927.722477
21
575.653117
0
LINE
8
boundary
62
5
39
2
10
927.722477
20
575.653117
11
932.770547
21
573.102583
0
LINE
8
boundary
62
5
39
2
10
932.770547
20
573.102583
11
936.641746
21
571.305201
0
LINE
8
boundary
62
5
39
2
10
936.641746
20
571.305201
11
941.798358
21
568.911015
0
LINE
8
boundary
62
5
39
2
10
941.798358
20
568.911015
11
945.736790
21
567.243976
0
LINE
8
boundary
62
5
39
2
10
945.736790
20
567.243976
11
950.982925
21
565.023418
0
LINE
8
boundary
62
5
39
2
10
950.982925
20
565.023418
11
954.974309
21
563.499678
0
LINE
8
boundary
62
5
39
2
10
954.974309
20
563.499678
11
960.290993
21
561.469999
0
LINE
8
boundary
62
5
39
2
10
960.290993
20
561.469999
11
964.321095
21
560.102467
0
LINE
8
boundary
62
5
39
2
10
964.321095
20
560.102467
11
969.689345
21
558.280886
0
LINE
8
boundary
62
5
39
2
10
969.689345
20
558.280886
11
973.743909
21
557.082580
0
LINE
8
boundary
62
5
39
2
10
973.743909
20
557.082580
11
979.144747
21
555.486377
0
LINE
8
boundary
62
5
39
2
10
979.144747
20
555.486377
11
983.209527
21
554.470205
0
LINE
8
boundary
62
5
39
2
10
983.209527
20
554.470205
11
988.623956
21
553.116627
0
LINE
8
boundary
62
5
39
2
10
988.623956
20
553.116627
11
992.687037
21
552.291027
0
LINE
8
boundary
62
5
39
2
10
992.687037
20
552.291027
11
998.099228
21
551.191285
0
LINE
8
boundary
62
5
39
2
10
998.099228
20
551.191285
11
1002.158258
21
550.546564
0
LINE
8
boundary
62
5
39
2
10
1002.158258
20
550.546564
11
1007.565027
21
549.687785
0
LINE
8
boundary
62
5
39
2
10
1007.565027
20
549.687785
11
1011.619954
21
549.209732
0
LINE
8
boundary
62
5
39
2
10
1011.619954
20
549.209732
11
1017.021284
21
548.572941
0
LINE
8
boundary
62
5
39
2
10
1017.021284
20
548.572941
11
1021.072122
21
548.247336
0
LINE
8
boundary
62
5
39
2
10
1021.072122
20
548.247336
11
1026.467994
21
547.813606
0
LINE
8
boundary
62
5
39
2
10
1026.467994
20
547.813606
11
1030.514696
21
547.626227
0
LINE
8
boundary
62
5
39
2
10
1030.514696
20
547.626227
11
1035.905060
21
547.376655
0
LINE
8
boundary
62
5
39
2
10
1035.905060
20
547.376655
11
1039.947637
21
547.313304
0
LINE
8
boundary
62
5
39
2
10
1039.947637
20
547.313304
11
1045.332494
21
547.228903
0
LINE
8
boundary
62
5
39
2
10
1045.332494
20
547.228903
11
1048.275104
21
547.262759
0
LINE
8
boundary
62
5
39
2
10
1048.275104
20
547.262759
11
1048.275103
21
550.575081
0
LINE
8
boundary
62
5
39
2
10
1048.275103
20
550.575081
11
1047.586850
21
551.605126
0
LINE
8
boundary
62
5
39
2
10
1047.586850
20
551.605126
11
1047.345168
21
552.820145
0
LINE
8
boundary
62
5
39
2
10
1047.345168
20
552.820145
11
1047.586850
21
554.035165
0
LINE
8
boundary
62
5
39
2
10
1047.586850
20
554.035165
11
1048.275104
21
555.065210
0
LINE
8
boundary
62
5
39
2
10
1048.275104
20
555.065210
11
1049.305147
21
555.753463
0
LINE
8
boundary
62
5
39
2
10
1049.305147
20
555.753463
11
1050.520168
21
555.995146
0
LINE
8
boundary
62
5
39
2
10
1050.520168
20
555.995146
11
1051.735187
21
555.753463
0
LINE
8
boundary
62
5
39
2
10
1051.735187
20
555.753463
11
1052.765232
21
555.065209
0
LINE
8
boundary
62
5
39
2
10
1052.765232
20
555.065209
11
1115.466752
21
555.065210
0
LINE
8
boundary
62
5
39
2
10
1115.466752
20
555.065210
11
1117.715680
21
555.700210
0
LINE
8
boundary
62
5
39
2
10
1117.715680
20
555.700210
11
1119.697294
21
556.259732
0
LINE
8
boundary
62
5
39
2
10
1119.697294
20
556.259732
11
1121.613611
21
556.908838
0
LINE
8
boundary
62
5
39
2
10
1121.613611
20
556.908838
11
1124.176909
21
557.770169
0
LINE
8
boundary
62
5
39
2
10
1124.176909
20
557.770169
11
1126.077064
21
558.489219
0
LINE
8
boundary
62
5
39
2
10
1126.077064
20
558.489219
11
1128.622124
21
559.444636
0
LINE
8
boundary
62
5
39
2
10
1128.622124
20
559.444636
11
1130.504815
21
560.237248
0
LINE
8
boundary
62
5
39
2
10
1130.504815
20
560.237248
11
1133.030385
21
561.292079
0
LINE
8
boundary
62
5
39
2
10
1133.030385
20
561.292079
11
1134.894248
21
562.161782
0
LINE
8
boundary
62
5
39
2
10
1134.894248
20
562.161782
11
1137.399269
21
563.321447
0
LINE
8
boundary
62
5
39
2
10
1137.399269
20
563.321447
11
1139.241765
21
564.270545
0
LINE
8
boundary
62
5
39
2
10
1139.241765
20
564.270545
11
1141.723301
21
565.539086
0
LINE
8
boundary
62
5
39
2
10
1141.723301
20
565.539086
11
1143.536762
21
566.565410
0
LINE
8
boundary
62
5
39
2
10
1143.536762
20
566.565410
11
1145.985599
21
567.940847
0
LINE
8
boundary
62
5
39
2
10
1145.985599
20
567.940847
11
1147.761248
21
569.041060
0
LINE
8
boundary
62
5
39
2
10
1147.761248
20
569.041060
11
1150.166166
21
570.520110
0
LINE
8
boundary
62
5
39
2
10
1150.166166
20
570.520110
11
1151.895354
21
571.691006
0
LINE
8
boundary
62
5
39
2
10
1151.895354
20
571.691006
11
1154.245171
21
573.270196
0
LINE
8
boundary
62
5
39
2
10
1154.245171
20
573.270196
11
1155.919399
21
574.508524
0
LINE
8
boundary
62
5
39
2
10
1155.919399
20
574.508524
11
1158.202861
21
576.184479
0
LINE
8
boundary
62
5
39
2
10
1158.202861
20
576.184479
11
1159.813760
21
577.487070
0
LINE
8
boundary
62
5
39
2
10
1159.813760
20
577.487070
11
1162.019375
21
579.256264
0
LINE
8
boundary
62
5
39
2
10
1162.019375
20
579.256264
11
1163.558673
21
580.620044
0
LINE
8
boundary
62
5
39
2
10
1163.558673
20
580.620044
11
1165.674876
21
582.478968
0
LINE
8
boundary
62
5
39
2
10
1165.674876
20
582.478968
11
1167.134446
21
583.900920
0
LINE
8
boundary
62
5
39
2
10
1167.134446
20
583.900920
11
1169.149644
21
585.845925
0
LINE
8
boundary
62
5
39
2
10
1169.149644
20
585.845925
11
1170.521489
21
587.323137
0
LINE
8
boundary
62
5
39
2
10
1170.521489
20
587.323137
11
1172.423979
21
589.350603
0
LINE
8
boundary
62
5
39
2
10
1172.423979
20
589.350603
11
1173.700083
21
590.880247
0
LINE
8
boundary
62
5
39
2
10
1173.700083
20
590.880247
11
1175.477985
21
592.986389
0
LINE
8
boundary
62
5
39
2
10
1175.477985
20
592.986389
11
1176.650489
21
594.565720
0
LINE
8
boundary
62
5
39
2
10
1176.650489
20
594.565720
11
1178.292065
21
596.746741
0
LINE
8
boundary
62
5
39
2
10
1178.292065
20
596.746741
11
1179.353099
21
598.373150
0
LINE
8
boundary
62
5
39
2
10
1179.353099
20
598.373150
11
1180.846380
21
600.625083
0
LINE
8
boundary
62
5
39
2
10
1180.846380
20
600.625083
11
1181.788134
21
602.296047
0
LINE
8
boundary
62
5
39
2
10
1181.788134
20
602.296047
11
1183.121278
21
604.614847
0
LINE
8
boundary
62
5
39
2
10
1183.121278
20
604.614847
11
1183.935890
21
606.327991
0
LINE
8
boundary
62
5
39
2
10
1183.935890
20
606.327991
11
1185.097051
21
608.709610
0
LINE
8
boundary
62
5
39
2
10
1185.097051
20
608.709610
11
1185.776534
21
610.462693
0
LINE
8
boundary
62
5
39
2
10
1185.776534
20
610.462693
11
1186.753851
21
612.902859
0
LINE
8
boundary
62
5
39
2
10
1186.753851
20
612.902859
11
1187.290290
21
614.693683
0
LINE
8
boundary
62
5
39
2
10
1187.290290
20
614.693683
11
1188.071980
21
617.188113
0
LINE
8
boundary
62
5
39
2
10
1188.071980
20
617.188113
11
1188.460263
21
619.013861
0
LINE
8
boundary
62
5
39
2
10
1188.460263
20
619.013861
11
1189.039017
21
621.557077
0
LINE
8
boundary
62
5
39
2
10
1189.039017
20
621.557077
11
1189.286225
21
623.411738
0
LINE
8
boundary
62
5
39
2
10
1189.286225
20
623.411738
11
1189.671430
21
625.993934
0
LINE
8
boundary
62
5
39
2
10
1189.671430
20
625.993934
11
1189.787491
21
627.870661
0
LINE
8
boundary
62
5
39
2
10
1189.787491
20
627.870661
11
1189.993028
21
630.481015
0
LINE
8
boundary
62
5
39
2
10
1189.993028
20
630.481015
11
1189.987857
21
632.372874
0
LINE
8
boundary
62
5
39
2
10
1189.987857
20
632.372874
11
1190.027596
21
635.000625
0
LINE
8
boundary
62
5
39
2
10
1190.027596
20
635.000625
11
1189.910985
21
636.900598
0
LINE
8
boundary
62
5
39
2
10
1189.910985
20
636.900598
11
1189.798983
21
639.535019
0
LINE
8
boundary
62
5
39
2
10
1189.798983
20
639.535019
11
1189.580653
21
641.436001
0
LINE
8
boundary
62
5
39
2
10
1189.580653
20
641.436001
11
1189.330955
21
644.066495
0
LINE
8
boundary
62
5
39
2
10
1189.330955
20
644.066495
11
1189.020629
21
645.961244
0
LINE
8
boundary
62
5
39
2
10
1189.020629
20
645.961244
11
1188.647303
21
648.577247
0
LINE
8
boundary
62
5
39
2
10
1188.647303
20
648.577247
11
1188.254704
21
650.458415
0
LINE
8
boundary
62
5
39
2
10
1188.254704
20
650.458415
11
1187.771732
21
653.049537
0
LINE
8
boundary
62
5
39
2
10
1187.771732
20
653.049537
11
1187.306618
21
654.909618
0
LINE
8
boundary
62
5
39
2
10
1187.306618
20
654.909618
11
1186.728084
21
657.465558
0
LINE
8
boundary
62
5
39
2
10
1186.728084
20
657.465558
11
1186.200365
21
659.296920
0
LINE
8
boundary
62
5
39
2
10
1186.200365
20
659.296920
11
1185.540216
21
661.807417
0
LINE
8
boundary
62
5
39
2
10
1185.540216
20
661.807417
11
1184.959732
21
663.602332
0
LINE
8
boundary
62
5
39
2
10
1184.959732
20
663.602332
11
1184.231904
21
666.057327
0
LINE
8
boundary
62
5
39
2
10
1184.231904
20
666.057327
11
1183.608692
21
667.807890
0
LINE
8
boundary
62
5
39
2
10
1183.608692
20
667.807890
11
1182.827022
21
670.197367
0
LINE
8
boundary
62
5
39
2
10
1182.827022
20
670.197367
11
1182.171154
21
671.895584
0
LINE
8
boundary
62
5
39
2
10
1182.171154
20
671.895584
11
1181.349398
21
674.209671
0
LINE
8
boundary
62
5
39
2
10
1181.349398
20
674.209671
11
1180.671073
21
675.847411
0
LINE
8
boundary
62
5
39
2
10
1180.671073
20
675.847411
11
1179.822917
21
678.076306
0
LINE
8
boundary
62
5
39
2
10
1179.822917
20
678.076306
11
1179.132479
21
679.645375
0
LINE
8
boundary
62
5
39
2
10
1179.132479
20
679.645375
11
1178.433414
21
681.378096
0
LINE
8
boundary
62
5
39
2
10
1178.433414
20
681.378096
11
1177.938114
21
682.013096
0
LINE
8
boundary
62
5
39
2
10
1177.938114
20
682.013096
11
1000.035925
21
682.013096
0
LINE
8
boundary
62
5
39
2
10
1000.035925
20
682.013096
11
999.005881
21
681.324843
0
LINE
8
boundary
62
5
39
2
10
999.005881
20
681.324843
11
997.790861
21
681.083160
0
LINE
8
boundary
62
5
39
2
10
997.790861
20
681.083160
11
996.575841
21
681.324842
0
LINE
8
boundary
62
5
39
2
10
996.575841
20
681.324842
11
995.545797
21
682.013096
0
LINE
8
boundary
62
5
39
2
10
995.545797
20
682.013096
11
994.857544
21
683.043139
0
LINE
8
boundary
62
5
39
2
10
994.857544
20
683.043139
11
994.615860
21
684.258160
0
LINE
8
boundary
62
5
39
2
10
994.615860
20
684.258160
11
994.857543
21
685.473180
0
LINE
8
boundary
62
5
39
2
10
994.857543
20
685.473180
11
995.545796
21
686.503224
0
LINE
8
boundary
62
5
39
2
10
995.545796
20
686.503224
11
995.545796
21
689.968967
0
LINE
8
boundary
62
5
39
2
10
995.545796
20
689.968967
11
994.857543
21
690.999011
0
LINE
8
boundary
62
5
39
2
10
994.857543
20
690.999011
11
994.615861
21
692.214032
0
LINE
8
boundary
62
5
39
2
10
994.615861
20
692.214032
11
994.857543
21
693.429052
0
LINE
8
boundary
62
5
39
2
10
994.857543
20
693.429052
11
995.545797
21
694.459096
0
LINE
8
boundary
62
5
39
2
10
995.545797
20
694.459096
11
996.575841
21
695.147349
0
LINE
8
boundary
62
5
39
2
10
996.575841
20
695.147349
11
997.790861
21
695.389031
0
LINE
8
boundary
62
5
39
2
10
997.790861
20
695.389031
11
999.005881
21
695.147349
0
LINE
8
boundary
62
5
39
2
10
999.005881
20
695.147349
11
1000.035925
21
694.459096
0
LINE
8
boundary
62
5
39
2
10
1000.035925
20
694.459096
11
1171.498572
21
694.459096
0
LINE
8
boundary
62
5
39
2
10
1171.498572
20
694.459096
11
1171.993872
21
695.094096
0
LINE
8
boundary
62
5
39
2
10
1171.993872
20
695.094096
11
1171.523181
21
695.945039
0
LINE
8
boundary
62
5
39
2
10
1171.523181
20
695.945039
11
1170.713543
21
697.579017
0
LINE
8
boundary
62
5
39
2
10
1170.713543
20
697.579017
11
1170.061207
21
698.714625
0
LINE
8
boundary
62
5
39
2
10
1170.061207
20
698.714625
11
1169.263150
21
700.272789
0
LINE
8
boundary
62
5
39
2
10
1169.263150
20
700.272789
11
1168.618487
21
701.357309
0
LINE
8
boundary
62
5
39
2
10
1168.618487
20
701.357309
11
1167.831532
21
702.849069
0
LINE
8
boundary
62
5
39
2
10
1167.831532
20
702.849069
11
1166.564292
21
704.893091
0
LINE
8
boundary
62
5
39
2
10
1166.564292
20
704.893091
11
1165.021095
21
707.714886
0
LINE
8
boundary
62
5
39
2
10
1165.021095
20
707.714886
11
1163.781473
21
709.639756
0
LINE
8
boundary
62
5
39
2
10
1163.781473
20
709.639756
11
1162.275311
21
712.307974
0
LINE
8
boundary
62
5
39
2
10
1162.275311
20
712.307974
11
1161.060924
21
714.171093
0
LINE
8
boundary
62
5
39
2
10
1161.060924
20
714.171093
11
1159.587211
21
716.759853
0
LINE
8
boundary
62
5
39
2
10
1159.587211
20
716.759853
11
1158.395544
21
718.619011
0
LINE
8
boundary
62
5
39
2
10
1158.395544
20
718.619011
11
1156.949906
21
721.202097
0
LINE
8
boundary
62
5
39
2
10
1156.949906
20
721.202097
11
1155.778341
21
723.115298
0
LINE
8
boundary
62
5
39
2
10
1155.778341
20
723.115298
11
1154.356296
21
725.766252
0
LINE
8
boundary
62
5
39
2
10
1154.356296
20
725.766252
11
1153.199885
21
727.781927
0
LINE
8
boundary
62
5
39
2
10
1153.199885
20
727.781927
11
1151.794502
21
730.561743
0
LINE
8
boundary
62
5
39
2
10
1151.794502
20
730.561743
11
1150.640204
21
732.689249
0
LINE
8
boundary
62
5
39
2
10
1150.640204
20
732.689249
11
1149.233839
21
735.609069
0
LINE
8
boundary
62
5
39
2
10
1149.233839
20
735.609069
11
1148.066538
21
737.848028
0
LINE
8
boundary
62
5
39
2
10
1148.066538
20
737.848028
11
1146.638824
21
740.906566
0
LINE
8
boundary
62
5
39
2
10
1146.638824
20
740.906566
11
1145.443318
21
743.256595
0
LINE
8
boundary
62
5
39
2
10
1145.443318
20
743.256595
11
1143.973877
21
746.452546
0
LINE
8
boundary
62
5
39
2
10
1143.973877
20
746.452546
11
1142.735057
21
748.913262
0
LINE
8
boundary
62
5
39
2
10
1142.735057
20
748.913262
11
1141.203632
21
752.245338
0
LINE
8
boundary
62
5
39
2
10
1141.203632
20
752.245338
11
1139.906378
21
754.816363
0
LINE
8
boundary
62
5
39
2
10
1139.906378
20
754.816363
11
1138.292592
21
758.283255
0
LINE
8
boundary
62
5
39
2
10
1138.292592
20
758.283255
11
1137.617306
21
759.610018
0
LINE
8
boundary
62
5
39
2
10
1137.617306
20
759.610018
11
1136.773178
21
761.393620
0
LINE
8
boundary
62
5
39
2
10
1136.773178
20
761.393620
11
1136.077583
21
762.747812
0
LINE
8
boundary
62
5
39
2
10
1136.077583
20
762.747812
11
1135.205230
21
764.564632
0
LINE
8
boundary
62
5
39
2
10
1135.205230
20
764.564632
11
1134.487474
21
765.946214
0
LINE
8
boundary
62
5
39
2
10
1134.487474
20
765.946214
11
1133.584341
21
767.796092
0
LINE
8
boundary
62
5
39
2
10
1133.584341
20
767.796092
11
1132.842516
21
769.205010
0
LINE
8
boundary
62
5
39
2
10
1132.842516
20
769.205010
11
1131.906139
21
771.087780
0
LINE
8
boundary
62
5
39
2
10
1131.906139
20
771.087780
11
1131.139342
21
772.524005
0
LINE
8
boundary
62
5
39
2
10
1131.139342
20
772.524005
11
1130.168424
21
774.439593
0
LINE
8
boundary
62
5
39
2
10
1130.168424
20
774.439593
11
1129.380105
21
775.903143
0
LINE
8
boundary
62
5
39
2
10
1129.380105
20
775.903143
11
1128.378752
21
777.851812
0
LINE
8
boundary
62
5
39
2
10
1128.378752
20
777.851812
11
1127.573245
21
779.342720
0
LINE
8
boundary
62
5
39
2
10
1127.573245
20
779.342720
11
1126.546985
21
781.324810
0
LINE
8
boundary
62
5
39
2
10
1126.546985
20
781.324810
11
1125.728691
21
782.843113
0
LINE
8
boundary
62
5
39
2
10
1125.728691
20
782.843113
11
1124.682873
21
784.858977
0
LINE
8
boundary
62
5
39
2
10
1124.682873
20
784.858977
11
1123.856212
21
786.404708
0
LINE
8
boundary
62
5
39
2
10
1123.856212
20
786.404708
11
1122.796362
21
788.454686
0
LINE
8
boundary
62
5
39
2
10
1122.796362
20
788.454686
11
1121.965694
21
790.027877
0
LINE
8
boundary
62
5
39
2
10
1121.965694
20
790.027877
11
1120.897170
21
792.112317
0
LINE
8
boundary
62
5
39
2
10
1120.897170
20
792.112317
11
1120.066910
21
793.713006
0
LINE
8
boundary
62
5
39
2
10
1120.066910
20
793.713006
11
1118.995196
21
795.832253
0
LINE
8
boundary
62
5
39
2
10
1118.995196
20
795.832253
11
1118.169747
21
797.460469
0
LINE
8
boundary
62
5
39
2
10
1118.169747
20
797.460469
11
1117.100278
21
799.614872
0
LINE
8
boundary
62
5
39
2
10
1117.100278
20
799.614872
11
1116.284021
21
801.270654
0
LINE
8
boundary
62
5
39
2
10
1116.284021
20
801.270654
11
1115.222238
21
803.460554
0
LINE
8
boundary
62
5
39
2
10
1115.222238
20
803.460554
11
1114.419576
21
805.143934
0
LINE
8
boundary
62
5
39
2
10
1114.419576
20
805.143934
11
1113.370949
21
807.369681
0
LINE
8
boundary
62
5
39
2
10
1113.370949
20
807.369681
11
1112.586268
21
809.080691
0
LINE
8
boundary
62
5
39
2
10
1112.586268
20
809.080691
11
1111.556174
21
811.342630
0
LINE
8
boundary
62
5
39
2
10
1111.556174
20
811.342630
11
1110.793891
21
813.081307
0
LINE
8
boundary
62
5
39
2
10
1110.793891
20
813.081307
11
1109.787824
21
815.379781
0
LINE
8
boundary
62
5
39
2
10
1109.787824
20
815.379781
11
1109.052320
21
817.146157
0
LINE
8
boundary
62
5
39
2
10
1109.052320
20
817.146157
11
1108.075714
21
819.481518
0
LINE
8
boundary
62
5
39
2
10
1108.075714
20
819.481518
11
1107.569116
21
820.771983
0
LINE
8
boundary
62
5
39
2
10
1107.569116
20
820.771983
11
1107.073816
21
821.406982
0
LINE
8
boundary
62
5
39
2
10
1107.073816
20
821.406982
11
949.279789
21
821.406982
0
LINE
8
boundary
62
5
39
2
10
949.279789
20
821.406982
11
948.249745
21
820.718728
0
LINE
8
boundary
62
5
39
2
10
948.249745
20
820.718728
11
947.034725
21
820.477046
0
LINE
8
boundary
62
5
39
2
10
947.034725
20
820.477046
11
945.819705
21
820.718729
0
LINE
8
boundary
62
5
39
2
10
945.819705
20
820.718729
11
944.789661
21
821.406982
0
LINE
8
boundary
62
5
39
2
10
944.789661
20
821.406982
11
944.101408
21
822.437027
0
LINE
8
boundary
62
5
39
2
10
944.101408
20
822.437027
11
943.859725
21
823.652046
0
LINE
8
boundary
62
5
39
2
10
943.859725
20
823.652046
11
944.101408
21
824.867067
0
LINE
8
boundary
62
5
39
2
10
944.101408
20
824.867067
11
944.789661
21
825.897110
0
LINE
8
boundary
62
5
39
2
10
944.789661
20
825.897110
11
944.789661
21
829.362854
0
LINE
8
boundary
62
5
39
2
10
944.789661
20
829.362854
11
944.101408
21
830.392898
0
LINE
8
boundary
62
5
39
2
10
944.101408
20
830.392898
11
943.859725
21
831.607918
0
LINE
8
boundary
62
5
39
2
10
943.859725
20
831.607918
11
944.101408
21
832.822938
0
LINE
8
boundary
62
5
39
2
10
944.101408
20
832.822938
11
944.789662
21
833.852983
0
LINE
8
boundary
62
5
39
2
10
944.789662
20
833.852983
11
945.819705
21
834.541236
0
LINE
8
boundary
62
5
39
2
10
945.819705
20
834.541236
11
947.034725
21
834.782918
0
LINE
8
boundary
62
5
39
2
10
947.034725
20
834.782918
11
948.249745
21
834.541236
0
LINE
8
boundary
62
5
39
2
10
948.249745
20
834.541236
11
949.279789
21
833.852982
0
LINE
8
boundary
62
5
39
2
10
949.279789
20
833.852982
11
1102.153555
21
833.852982
0
LINE
8
boundary
62
5
39
2
10
1102.153555
20
833.852982
11
1102.648855
21
834.487981
0
LINE
8
boundary
62
5
39
2
10
1102.648855
20
834.487981
11
1101.983134
21
836.540540
0
LINE
8
boundary
62
5
39
2
10
1101.983134
20
836.540540
11
1101.437462
21
838.441961
0
LINE
8
boundary
62
5
39
2
10
1101.437462
20
838.441961
11
1100.677459
21
840.961460
0
LINE
8
boundary
62
5
39
2
10
1100.677459
20
840.961460
11
1100.167774
21
842.883990
0
LINE
8
boundary
62
5
39
2
10
1100.167774
20
842.883990
11
1099.448814
21
845.433084
0
LINE
8
boundary
62
5
39
2
10
1099.448814
20
845.433084
11
1098.970930
21
847.373357
0
LINE
8
boundary
62
5
39
2
10
1098.970930
20
847.373357
11
1098.287966
21
849.947702
0
LINE
8
boundary
62
5
39
2
10
1098.287966
20
849.947702
11
1097.837663
21
851.902356
0
LINE
8
boundary
62
5
39
2
10
1097.837663
20
851.902356
11
1097.185571
21
854.497623
0
LINE
8
boundary
62
5
39
2
10
1097.185571
20
854.497623
11
1096.758696
21
856.463290
0
LINE
8
boundary
62
5
39
2
10
1096.758696
20
856.463290
11
1096.132432
21
859.075136
0
LINE
8
boundary
62
5
39
2
10
1096.132432
20
859.075136
11
1095.724767
21
861.048450
0
LINE
8
boundary
62
5
39
2
10
1095.724767
20
861.048450
11
1095.119247
21
863.672546
0
LINE
8
boundary
62
5
39
2
10
1095.119247
20
863.672546
11
1094.726603
21
865.650152
0
LINE
8
boundary
62
5
39
2
10
1094.726603
20
865.650152
11
1094.136756
21
868.282154
0
LINE
8
boundary
62
5
39
2
10
1094.136756
20
868.282154
11
1093.754946
21
870.260675
0
LINE
8
boundary
62
5
39
2
10
1093.754946
20
870.260675
11
1093.175658
21
872.896252
0
LINE
8
boundary
62
5
39
2
10
1093.175658
20
872.896252
11
1092.800497
21
874.872332
0
LINE
8
boundary
62
5
39
2
10
1092.800497
20
874.872332
11
1092.226734
21
877.507138
0
LINE
8
boundary
62
5
39
2
10
1092.226734
20
877.507138
11
1091.854013
21
879.477413
0
LINE
8
boundary
62
5
39
2
10
1091.854013
20
879.477413
11
1091.280653
21
882.107113
0
LINE
8
boundary
62
5
39
2
10
1091.280653
20
882.107113
11
1090.906209
21
884.068215
0
LINE
8
boundary
62
5
39
2
10
1090.906209
20
884.068215
11
1090.328208
21
886.688483
0
LINE
8
boundary
62
5
39
2
10
1090.328208
20
886.688483
11
1089.557311
21
890.569712
0
LINE
8
boundary
62
5
39
2
10
1089.557311
20
890.569712
11
1088.367029
21
895.764581
0
LINE
8
boundary
62
5
39
2
10
1088.367029
20
895.764581
11
1087.538884
21
899.568751
0
LINE
8
boundary
62
5
39
2
10
1087.538884
20
899.568751
11
1086.269020
21
904.673823
0
LINE
8
boundary
62
5
39
2
10
1086.269020
20
904.673823
11
1085.356497
21
908.383185
0
LINE
8
boundary
62
5
39
2
10
1085.356497
20
908.383185
11
1083.974536
21
913.374952
0
LINE
8
boundary
62
5
39
2
10
1083.974536
20
913.374952
11
1082.976436
21
917.008424
0
LINE
8
boundary
62
5
39
2
10
1082.976436
20
917.008424
11
1081.482340
21
921.908217
0
LINE
8
boundary
62
5
39
2
10
1081.482340
20
921.908217
11
1080.403781
21
925.493882
0
LINE
8
boundary
62
5
39
2
10
1080.403781
20
925.493882
11
1078.805653
21
930.334202
0
LINE
8
boundary
62
5
39
2
10
1078.805653
20
930.334202
11
1077.651853
21
933.900144
0
LINE
8
boundary
62
5
39
2
10
1077.651853
20
933.900144
11
1075.957722
21
938.713505
0
LINE
8
boundary
62
5
39
2
10
1075.957722
20
938.713505
11
1074.733838
21
942.287802
0
LINE
8
boundary
62
5
39
2
10
1074.733838
20
942.287802
11
1072.951809
21
947.106728
0
LINE
8
boundary
62
5
39
2
10
1072.951809
20
947.106728
11
1072.315233
21
948.905783
0
LINE
8
boundary
62
5
39
2
10
1072.315233
20
948.905783
11
1071.393767
21
951.327488
0
LINE
8
boundary
62
5
39
2
10
1071.393767
20
951.327488
11
1070.741572
21
953.139178
0
LINE
8
boundary
62
5
39
2
10
1070.741572
20
953.139178
11
1069.801175
21
955.574455
0
LINE
8
boundary
62
5
39
2
10
1069.801175
20
955.574455
11
1069.134080
21
957.402270
0
LINE
8
boundary
62
5
39
2
10
1069.134080
20
957.402270
11
1068.175721
21
959.855192
0
LINE
8
boundary
62
5
39
2
10
1068.175721
20
959.855192
11
1068.061135
21
960.165869
0
LINE
8
boundary
62
5
39
2
10
1068.061135
20
960.165869
11
1067.565836
21
960.800868
0
LINE
8
boundary
62
5
39
2
10
1067.565836
20
960.800868
11
945.422968
21
960.800869
0
LINE
8
boundary
62
5
39
2
10
945.422968
20
960.800869
11
944.392924
21
960.112615
0
LINE
8
boundary
62
5
39
2
10
944.392924
20
960.112615
11
943.177903
21
959.870933
0
LINE
8
boundary
62
5
39
2
10
943.177903
20
959.870933
11
941.962883
21
960.112615
0
LINE
8
boundary
62
5
39
2
10
941.962883
20
960.112615
11
940.932840
21
960.800869
0
LINE
8
boundary
62
5
39
2
10
940.932840
20
960.800869
11
940.244586
21
961.830913
0
LINE
8
boundary
62
5
39
2
10
940.244586
20
961.830913
11
940.002904
21
963.045932
0
LINE
8
boundary
62
5
39
2
10
940.002904
20
963.045932
11
940.244586
21
964.260952
0
LINE
8
boundary
62
5
39
2
10
940.244586
20
964.260952
11
940.932840
21
965.290997
0
LINE
8
boundary
62
5
39
2
10
940.932840
20
965.290997
11
940.932839
21
968.756741
0
LINE
8
boundary
62
5
39
2
10
940.932839
20
968.756741
11
940.244586
21
969.786785
0
LINE
8
boundary
62
5
39
2
10
940.244586
20
969.786785
11
940.002904
21
971.001804
0
LINE
8
boundary
62
5
39
2
10
940.002904
20
971.001804
11
940.244586
21
972.216824
0
LINE
8
boundary
62
5
39
2
10
940.244586
20
972.216824
11
940.932840
21
973.246869
0
LINE
8
boundary
62
5
39
2
10
940.932840
20
973.246869
11
941.962883
21
973.935122
0
LINE
8
boundary
62
5
39
2
10
941.962883
20
973.935122
11
943.177903
21
974.176805
0
LINE
8
boundary
62
5
39
2
10
943.177903
20
974.176805
11
944.392924
21
973.935122
0
LINE
8
boundary
62
5
39
2
10
944.392924
20
973.935122
11
945.422967
21
973.246869
0
LINE
8
boundary
62
5
39
2
10
945.422967
20
973.246869
11
1062.284140
21
973.246869
0
LINE
8
boundary
62
5
39
2
10
1062.284140
20
973.246869
11
1062.779440
21
973.881868
0
LINE
8
boundary
62
5
39
2
10
1062.779440
20
973.881868
11
1062.397583
21
974.901501
0
LINE
8
boundary
62
5
39
2
10
1062.397583
20
974.901501
11
1061.376422
21
977.463499
0
LINE
8
boundary
62
5
39
2
10
1061.376422
20
977.463499
11
1060.638575
21
979.412247
0
LINE
8
boundary
62
5
39
2
10
1060.638575
20
979.412247
11
1059.597705
21
981.999279
0
LINE
8
boundary
62
5
39
2
10
1059.597705
20
981.999279
11
1058.838865
21
983.963998
0
LINE
8
boundary
62
5
39
2
10
1058.838865
20
983.963998
11
1057.772357
21
986.567193
0
LINE
8
boundary
62
5
39
2
10
1057.772357
20
986.567193
11
1056.988209
21
988.540790
0
LINE
8
boundary
62
5
39
2
10
1056.988209
20
988.540790
11
1055.890246
21
991.151284
0
LINE
8
boundary
62
5
39
2
10
1055.890246
20
991.151284
11
1055.076430
21
993.126654
0
LINE
8
boundary
62
5
39
2
10
1055.076430
20
993.126654
11
1053.941190
21
995.735581
0
LINE
8
boundary
62
5
39
2
10
1053.941190
20
995.735581
11
1053.093415
21
997.705620
0
LINE
8
boundary
62
5
39
2
10
1053.093415
20
997.705620
11
1051.915025
21
1000.304115
0
LINE
8
boundary
62
5
39
2
10
1051.915025
20
1000.304115
11
1051.028942
21
1002.261738
0
LINE
8
boundary
62
5
39
2
10
1051.028942
20
1002.261738
11
1049.801563
21
1004.840936
0
LINE
8
boundary
62
5
39
2
10
1049.801563
20
1004.840936
11
1048.872842
21
1006.779025
0
LINE
8
boundary
62
5
39
2
10
1048.872842
20
1006.779025
11
1047.590592
21
1009.330042
0
LINE
8
boundary
62
5
39
2
10
1047.590592
20
1009.330042
11
1046.614901
21
1011.241515
0
LINE
8
boundary
62
5
39
2
10
1046.614901
20
1011.241515
11
1045.271983
21
1013.755504
0
LINE
8
boundary
62
5
39
2
10
1045.271983
20
1013.755504
11
1044.245028
21
1015.633247
0
LINE
8
boundary
62
5
39
2
10
1044.245028
20
1015.633247
11
1042.835546
21
1018.101325
0
LINE
8
boundary
62
5
39
2
10
1042.835546
20
1018.101325
11
1041.752970
21
1019.938236
0
LINE
8
boundary
62
5
39
2
10
1041.752970
20
1019.938236
11
1040.271109
21
1022.351549
0
LINE
8
boundary
62
5
39
2
10
1040.271109
20
1022.351549
11
1039.128570
21
1024.140547
0
LINE
8
boundary
62
5
39
2
10
1039.128570
20
1024.140547
11
1037.568452
21
1026.490225
0
LINE
8
boundary
62
5
39
2
10
1037.568452
20
1026.490225
11
1036.361666
21
1028.224205
0
LINE
8
boundary
62
5
39
2
10
1036.361666
20
1028.224205
11
1034.717460
21
1030.501353
0
LINE
8
boundary
62
5
39
2
10
1034.717460
20
1030.501353
11
1033.442068
21
1032.173194
0
LINE
8
boundary
62
5
39
2
10
1033.442068
20
1032.173194
11
1031.707914
21
1034.368991
0
LINE
8
boundary
62
5
39
2
10
1031.707914
20
1034.368991
11
1030.359588
21
1035.971617
0
LINE
8
boundary
62
5
39
2
10
1030.359588
20
1035.971617
11
1028.529670
21
1038.077165
0
LINE
8
boundary
62
5
39
2
10
1028.529670
20
1038.077165
11
1027.104101
21
1039.603460
0
LINE
8
boundary
62
5
39
2
10
1027.104101
20
1039.603460
11
1025.172522
21
1041.609906
0
LINE
8
boundary
62
5
39
2
10
1025.172522
20
1041.609906
11
1023.667018
21
1043.053817
0
LINE
8
boundary
62
5
39
2
10
1023.667018
20
1043.053817
11
1021.630136
21
1044.953503
0
LINE
8
boundary
62
5
39
2
10
1021.630136
20
1044.953503
11
1020.048516
21
1046.313028
0
LINE
8
boundary
62
5
39
2
10
1020.048516
20
1046.313028
11
1017.911447
21
1048.103301
0
LINE
8
boundary
62
5
39
2
10
1017.911447
20
1048.103301
11
1016.259186
21
1049.377521
0
LINE
8
boundary
62
5
39
2
10
1016.259186
20
1049.377521
11
1014.029254
21
1051.056912
0
LINE
8
boundary
62
5
39
2
10
1014.029254
20
1051.056912
11
1012.311835
21
1052.244867
0
LINE
8
boundary
62
5
39
2
10
1012.311835
20
1052.244867
11
1009.996322
21
1053.811893
0
LINE
8
boundary
62
5
39
2
10
1009.996322
20
1053.811893
11
1008.219218
21
1054.912642
0
LINE
8
boundary
62
5
39
2
10
1008.219218
20
1054.912642
11
1005.825449
21
1056.365865
0
LINE
8
boundary
62
5
39
2
10
1005.825449
20
1056.365865
11
1003.994131
21
1057.378469
0
LINE
8
boundary
62
5
39
2
10
1003.994131
20
1057.378469
11
1001.529392
21
1058.716434
0
LINE
8
boundary
62
5
39
2
10
1001.529392
20
1058.716434
11
999.649358
21
1059.639934
0
LINE
8
boundary
62
5
39
2
10
999.649358
20
1059.639934
11
997.120985
21
1060.861186
0
LINE
8
boundary
62
5
39
2
10
997.120985
20
1060.861186
11
995.197658
21
1061.694639
0
LINE
8
boundary
62
5
39
2
10
995.197658
20
1061.694639
11
992.612923
21
1062.797712
0
LINE
8
boundary
62
5
39
2
10
992.612923
20
1062.797712
11
990.651812
21
1063.540181
0
LINE
8
boundary
62
5
39
2
10
990.651812
20
1063.540181
11
988.018033
21
1064.523634
0
LINE
8
boundary
62
5
39
2
10
988.018033
20
1064.523634
11
986.024610
21
1065.174156
0
LINE
8
boundary
62
5
39
2
10
986.024610
20
1065.174156
11
983.349094
21
1066.036522
0
LINE
8
boundary
62
5
39
2
10
983.349094
20
1066.036522
11
981.328832
21
1066.594169
0
LINE
8
boundary
62
5
39
2
10
981.328832
20
1066.594169
11
978.618880
21
1067.334008
0
LINE
8
boundary
62
5
39
2
10
978.618880
20
1067.334008
11
976.577250
21
1067.797809
0
LINE
8
boundary
62
5
39
2
10
976.577250
20
1067.797809
11
973.840185
21
1068.413609
0
LINE
8
boundary
62
5
39
2
10
973.840185
20
1068.413609
11
971.782647
21
1068.782655
0
LINE
8
boundary
62
5
39
2
10
971.782647
20
1068.782655
11
969.025756
21
1069.273033
0
LINE
8
boundary
62
5
39
2
10
969.025756
20
1069.273033
11
966.957808
21
1069.546363
0
LINE
8
boundary
62
5
39
2
10
966.957808
20
1069.546363
11
964.188427
21
1069.909782
0
LINE
8
boundary
62
5
39
2
10
964.188427
20
1069.909782
11
962.115517
21
1070.086426
0
LINE
8
boundary
62
5
39
2
10
962.115517
20
1070.086426
11
959.340899
21
1070.321529
0
LINE
8
boundary
62
5
39
2
10
959.340899
20
1070.321529
11
957.268511
21
1070.400567
0
LINE
8
boundary
62
5
39
2
10
957.268511
20
1070.400567
11
954.495994
21
1070.505803
0
LINE
8
boundary
62
5
39
2
10
954.495994
20
1070.505803
11
952.429028
21
1070.486802
0
LINE
8
boundary
62
5
39
2
10
952.429028
20
1070.486802
11
949.665118
21
1070.461506
0
LINE
8
boundary
62
5
39
2
10
949.665118
20
1070.461506
11
947.606017
21
1070.346111
0
LINE
8
boundary
62
5
39
2
10
947.606017
20
1070.346111
11
944.853921
21
1070.192402
0
LINE
8
boundary
62
5
39
2
10
944.853921
20
1070.192402
11
942.804574
21
1069.982766
0
LINE
8
boundary
62
5
39
2
10
942.804574
20
1069.982766
11
940.066714
21
1069.703509
0
LINE
8
boundary
62
5
39
2
10
940.066714
20
1069.703509
11
938.028992
21
1069.401777
0
LINE
8
boundary
62
5
39
2
10
938.028992
20
1069.401777
11
935.307736
21
1068.999863
0
LINE
8
boundary
62
5
39
2
10
935.307736
20
1068.999863
11
933.283517
21
1068.608228
0
LINE
8
boundary
62
5
39
2
10
933.283517
20
1068.608228
11
930.581361
21
1068.086554
0
LINE
8
boundary
62
5
39
2
10
930.581361
20
1068.086554
11
928.572540
21
1067.607148
0
LINE
8
boundary
62
5
39
2
10
928.572540
20
1067.607148
11
925.891822
21
1066.968550
0
LINE
8
boundary
62
5
39
2
10
925.891822
20
1066.968550
11
923.900267
21
1066.403534
0
LINE
8
boundary
62
5
39
2
10
923.900267
20
1066.403534
11
921.243427
21
1065.650936
0
LINE
8
boundary
62
5
39
2
10
921.243427
20
1065.650936
11
919.270983
21
1065.002485
0
LINE
8
boundary
62
5
39
2
10
919.270983
20
1065.002485
11
916.640441
21
1064.138722
0
LINE
8
boundary
62
5
39
2
10
916.640441
20
1064.138722
11
914.689037
21
1063.408979
0
LINE
8
boundary
62
5
39
2
10
914.689037
20
1063.408979
11
912.087203
21
1062.436932
0
LINE
8
boundary
62
5
39
2
10
912.087203
20
1062.436932
11
910.158682
21
1061.628059
0
LINE
8
boundary
62
5
39
2
10
910.158682
20
1061.628059
11
907.587943
21
1060.550621
0
LINE
8
boundary
62
5
39
2
10
907.587943
20
1060.550621
11
905.684187
21
1059.664791
0
LINE
8
boundary
62
5
39
2
10
905.684187
20
1059.664791
11
903.146970
21
1058.484828
0
LINE
8
boundary
62
5
39
2
10
903.146970
20
1058.484828
11
901.269874
21
1057.524185
0
LINE
8
boundary
62
5
39
2
10
901.269874
20
1057.524185
11
898.768598
21
1056.244576
0
LINE
8
boundary
62
5
39
2
10
898.768598
20
1056.244576
11
896.920022
21
1055.211292
0
LINE
8
boundary
62
5
39
2
10
896.920022
20
1055.211292
11
894.457113
21
1053.834903
0
LINE
8
boundary
62
5
39
2
10
894.457113
20
1053.834903
11
892.638924
21
1052.731111
0
LINE
8
boundary
62
5
39
2
10
892.638924
20
1052.731111
11
890.216753
21
1051.260823
0
LINE
8
boundary
62
5
39
2
10
890.216753
20
1051.260823
11
888.430863
21
1050.088715
0
LINE
8
boundary
62
5
39
2
10
888.430863
20
1050.088715
11
886.051872
21
1048.527421
0
LINE
8
boundary
62
5
39
2
10
886.051872
20
1048.527421
11
884.300115
21
1047.289131
0
LINE
8
boundary
62
5
39
2
10
884.300115
20
1047.289131
11
881.966713
21
1045.639696
0
LINE
8
boundary
62
5
39
2
10
881.966713
20
1045.639696
11
878.571493
21
1042.977104
0
LINE
8
boundary
62
5
39
2
10
878.571493
20
1042.977104
11
874.048919
21
1039.430409
0
LINE
8
boundary
62
5
39
2
10
874.048919
20
1039.430409
11
870.802541
21
1036.552129
0
LINE
8
boundary
62
5
39
2
10
870.802541
20
1036.552129
11
866.478250
21
1032.718151
0
LINE
8
boundary
62
5
39
2
10
866.478250
20
1032.718151
11
863.385452
21
1029.664540
0
LINE
8
boundary
62
5
39
2
10
863.385452
20
1029.664540
11
859.265730
21
1025.597013
0
LINE
8
boundary
62
5
39
2
10
859.265730
20
1025.597013
11
856.331253
21
1022.408429
0
LINE
8
boundary
62
5
39
2
10
856.331253
20
1022.408429
11
852.422405
21
1018.161118
0
LINE
8
boundary
62
5
39
2
10
852.422405
20
1018.161118
11
849.650967
21
1014.877947
0
LINE
8
boundary
62
5
39
2
10
849.650967
20
1014.877947
11
845.959309
21
1010.504622
0
LINE
8
boundary
62
5
39
2
10
845.959309
20
1010.504622
11
843.355625
21
1007.167204
0
LINE
8
boundary
62
5
39
2
10
843.355625
20
1007.167204
11
839.887425
21
1002.721655
0
LINE
8
boundary
62
5
39
2
10
839.887425
20
1002.721655
11
837.456253
21
999.370375
0
LINE
8
boundary
62
5
39
2
10
837.456253
20
999.370375
11
834.217833
21
994.906319
0
LINE
8
boundary
62
5
39
2
10
834.217833
20
994.906319
11
831.963883
21
991.581517
0
LINE
8
boundary
62
5
39
2
10
831.963883
20
991.581517
11
828.961533
21
987.152757
0
LINE
8
boundary
62
5
39
2
10
828.961533
20
987.152757
11
826.886378
21
983.882664
0
LINE
8
boundary
62
5
39
2
10
826.886378
20
983.882664
11
824.122195
21
979.526781
0
LINE
8
boundary
62
5
39
2
10
824.122195
20
979.526781
11
822.214807
21
976.291047
0
LINE
8
boundary
62
5
39
2
10
822.214807
20
976.291047
11
819.674096
21
971.980920
0
LINE
8
boundary
62
5
39
2
10
819.674096
20
971.980920
11
817.920281
21
968.747035
0
LINE
8
boundary
62
5
39
2
10
817.920281
20
968.747035
11
815.584120
21
964.439372
0
LINE
8
boundary
62
5
39
2
10
815.584120
20
964.439372
11
813.969695
21
961.174847
0
LINE
8
boundary
62
5
39
2
10
813.969695
20
961.174847
11
811.819222
21
956.826382
0
LINE
8
boundary
62
5
39
2
10
811.819222
20
956.826382
11
810.329990
21
953.498723
0
LINE
8
boundary
62
5
39
2
10
810.329990
20
953.498723
11
808.346278
21
949.066154
0
LINE
8
boundary
62
5
39
2
10
808.346278
20
949.066154
11
806.968069
21
945.642864
0
LINE
8
boundary
62
5
39
2
10
806.968069
20
945.642864
11
805.132238
21
941.082905
0
LINE
8
boundary
62
5
39
2
10
805.132238
20
941.082905
11
803.850840
21
937.531475
0
LINE
8
boundary
62
5
39
2
10
803.850840
20
937.531475
11
802.143974
21
932.800824
0
LINE
8
boundary
62
5
39
2
10
802.143974
20
932.800824
11
800.945214
21
929.088761
0
LINE
8
boundary
62
5
39
2
10
800.945214
20
929.088761
11
799.348424
21
924.144159
0
LINE
8
boundary
62
5
39
2
10
799.348424
20
924.144159
11
798.221900
21
920.249354
0
LINE
8
boundary
62
5
39
2
10
798.221900
20
920.249354
11
796.721326
21
915.061324
0
LINE
8
boundary
62
5
39
2
10
796.721326
20
915.061324
11
795.671780
21
911.003176
0
LINE
8
boundary
62
5
39
2
10
795.671780
20
911.003176
11
794.273743
21
905.597567
0
LINE
8
boundary
62
5
39
2
10
794.273743
20
905.597567
11
793.309705
21
901.405864
0
LINE
8
boundary
62
5
39
2
10
793.309705
20
901.405864
11
792.025564
21
895.822358
0
LINE
8
boundary
62
5
39
2
10
792.025564
20
895.822358
11
791.155563
21
891.526887
0
LINE
8
boundary
62
5
39
2
10
791.155563
20
891.526887
11
789.996675
21
885.805153
0
LINE
8
boundary
62
5
39
2
10
789.996675
20
885.805153
11
789.229231
21
881.435697
0
LINE
8
boundary
62
5
39
2
10
789.229231
20
881.435697
11
788.206987
21
875.615415
0
LINE
8
boundary
62
5
39
2
10
788.206987
20
875.615415
11
787.550654
21
871.201762
0
LINE
8
boundary
62
5
39
2
10
787.550654
20
871.201762
11
786.676374
21
865.322611
0
LINE
8
boundary
62
5
39
2
10
786.676374
20
865.322611
11
786.139660
21
860.894546
0
LINE
8
boundary
62
5
39
2
10
786.139660
20
860.894546
11
785.424737
21
854.996191
0
LINE
8
boundary
62
5
39
2
10
785.424737
20
854.996191
11
785.016171
21
850.583502
0
LINE
8
boundary
62
5
39
2
10
785.016171
20
850.583502
11
784.471953
21
844.705630
0
LINE
8
boundary
62
5
39
2
10
784.471953
20
844.705630
11
784.198836
21
840.332992
0
LINE
8
boundary
62
5
39
2
10
784.198836
20
840.332992
11
783.835049
21
834.508465
0
LINE
8
boundary
62
5
39
2
10
783.835049
20
834.508465
11
783.699735
21
830.180099
0
LINE
8
boundary
62
5
39
2
10
783.699735
20
830.180099
11
783.519472
21
824.414547
0
LINE
8
boundary
62
5
39
2
10
783.519472
20
824.414547
11
783.523030
21
820.129568
0
LINE
8
boundary
62
5
39
2
10
783.523030
20
820.129568
11
783.527758
21
814.421811
0
LINE
8
boundary
62
5
39
2
10
783.527758
20
814.421811
11
783.671301
21
810.179333
0
LINE
8
boundary
62
5
39
2
10
783.671301
20
810.179333
11
783.862503
21
804.528189
0
LINE
8
boundary
62
5
39
2
10
783.862503
20
804.528189
11
784.147114
21
800.327327
0
LINE
8
boundary
62
5
39
2
10
784.147114
20
800.327327
11
784.526243
21
794.731613
0
LINE
8
boundary
62
5
39
2
10
784.526243
20
794.731613
11
784.953052
21
790.571479
0
LINE
8
boundary
62
5
39
2
10
784.953052
20
790.571479
11
785.521577
21
785.030019
0
LINE
8
boundary
62
5
39
2
10
785.521577
20
785.030019
11
786.091667
21
780.909724
0
LINE
8
boundary
62
5
39
2
10
786.091667
20
780.909724
11
786.851041
21
775.421332
0
LINE
8
boundary
62
5
39
2
10
786.851041
20
775.421332
11
787.565512
21
771.339993
0
LINE
8
boundary
62
5
39
2
10
787.565512
20
771.339993
11
788.517218
21
765.903491
0
LINE
8
boundary
62
5
39
2
10
788.517218
20
765.903491
11
789.376304
21
761.860458
0
LINE
8
boundary
62
5
39
2
10
789.376304
20
761.860458
11
790.520639
21
756.474978
0
LINE
8
boundary
62
5
39
2
10
790.520639
20
756.474978
11
791.521165
21
752.470548
0
LINE
8
boundary
62
5
39
2
10
791.521165
20
752.470548
11
792.853906
21
747.136501
0
LINE
8
boundary
62
5
39
2
10
792.853906
20
747.136501
11
793.991810
21
743.171216
0
LINE
8
boundary
62
5
39
2
10
793.991810
20
743.171216
11
795.507524
21
737.889304
0
LINE
8
boundary
62
5
39
2
10
795.507524
20
737.889304
11
796.778754
21
733.963705
0
LINE
8
boundary
62
5
39
2
10
796.778754
20
733.963705
11
798.472090
21
728.734650
0
LINE
8
boundary
62
5
39
2
10
798.472090
20
728.734650
11
799.872601
21
724.849262
0
LINE
8
boundary
62
5
39
2
10
799.872601
20
724.849262
11
801.738134
21
719.673778
0
LINE
8
boundary
62
5
39
2
10
801.738134
20
719.673778
11
803.263882
21
715.829148
0
LINE
8
boundary
62
5
39
2
10
803.263882
20
715.829148
11
805.296238
21
710.707960
0
LINE
8
boundary
62
5
39
2
10
805.296238
20
710.707960
11
806.943158
21
706.904630
0
LINE
8
boundary
62
5
39
2
10
806.943158
20
706.904630
11
809.136924
21
701.838438
0
LINE
8
boundary
62
5
39
2
10
809.136924
20
701.838438
11
810.845973
21
698.207840
0
LINE
8
boundary
62
5
39
2
10
810.845973
20
698.207840
11
813.330181
21
693.114883
0
LINE
8
boundary
62
5
39
2
10
813.330181
20
693.114883
11
815.820957
21
687.991835
0
LINE
8
boundary
62
5
39
2
10
815.820957
20
687.991835
11
817.630083
21
684.397955
0
LINE
8
boundary
62
5
39
2
10
817.630083
20
684.397955
11
819.621408
21
680.735669
0
LINE
8
boundary
62
5
39
2
10
819.621408
20
680.735669
11
822.273940
21
675.857364
0
LINE
8
boundary
62
5
39
2
10
822.273940
20
675.857364
11
824.379077
21
672.262413
0
LINE
8
boundary
62
5
39
2
10
824.379077
20
672.262413
11
827.183195
21
667.473801
0
LINE
8
boundary
62
5
39
2
10
827.183195
20
667.473801
11
829.402493
21
663.958672
0
LINE
8
boundary
62
5
39
2
10
829.402493
20
663.958672
11
832.358689
21
659.276382
0
LINE
8
boundary
62
5
39
2
10
832.358689
20
659.276382
11
834.692524
21
655.853558
0
LINE
8
boundary
62
5
39
2
10
834.692524
20
655.853558
11
837.801281
21
651.294219
0
LINE
8
boundary
62
5
39
2
10
837.801281
20
651.294219
11
840.250019
21
647.976188
0
LINE
8
boundary
62
5
39
2
10
840.250019
20
647.976188
11
843.511829
21
643.556436
0
LINE
8
boundary
62
5
39
2
10
843.511829
20
643.556436
11
846.075809
21
640.355667
0
LINE
8
boundary
62
5
39
2
10
846.075809
20
640.355667
11
849.491139
21
636.092124
0
LINE
8
boundary
62
5
39
2
10
849.491139
20
636.092124
11
852.170747
21
633.021113
0
LINE
8
boundary
62
5
39
2
10
852.170747
20
633.021113
11
855.740083
21
628.930407
0
LINE
8
boundary
62
5
39
2
10
855.740083
20
628.930407
11
858.535474
21
625.998496
0
LINE
8
boundary
62
5
39
2
10
858.535474
20
625.998496
11
862.259057
21
622.093086
0
LINE
8
boundary
62
5
39
2
10
862.259057
20
622.093086
11
865.169680
21
619.297077
0
LINE
8
boundary
62
5
39
2
10
865.169680
20
619.297077
11
869.046740
21
615.572677
0
LINE
8
boundary
62
5
39
2
10
869.046740
20
615.572677
11
872.071864
21
612.906204
0
LINE
8
boundary
62
5
39
2
10
872.071864
20
612.906204
11
876.101412
21
609.354372
0
LINE
8
boundary
62
5
39
2
10
876.101412
20
609.354372
11
879.240248
21
606.811104
0
LINE
8
boundary
62
5
39
2
10
879.240248
20
606.811104
11
883.421318
21
603.423387
0
LINE
8
boundary
62
5
39
2
10
883.421318
20
603.423387
11
886.673133
21
600.996990
0
LINE
8
boundary
62
5
39
2
10
886.673133
20
600.996990
11
891.004681
21
597.764929
0
LINE
8
boundary
62
5
39
2
10
891.004681
20
597.764929
11
894.368731
21
595.449047
0
LINE
8
boundary
62
5
39
2
10
894.368731
20
595.449047
11
898.849782
21
592.364203
0
LINE
8
annotation
62
1
39
211
10
1038.138755
20
549.054071
11
1033.814712
21
549.054071
0
LINE
8
annotation
62
1
39
211
10
1033.814712
20
549.054071
11
1037.810269
21
555.486406
0
LINE
8
annotation
62
1
39
211
10
1037.810269
20
555.486406
11
1037.810269
21
555.486406
0
LINE
8
annotation
62
1
39
211
10
1037.810269
20
555.486406
11
1037.815046
21
555.492316
0
LINE
8
annotation
62
1
39
211
10
1037.815046
20
555.492316
11
1037.819627
21
555.498277
0
LINE
8
annotation
62
1
39
211
10
1037.819627
20
555.498277
11
1037.824041
21
555.504338
0
LINE
8
annotation
62
1
39
211
10
1037.824041
20
555.504338
11
1037.828320
21
555.510550
0
LINE
8
annotation
62
1
39
211
10
1037.828320
20
555.510550
11
1037.832494
21
555.516963
0
LINE
8
annotation
62
1
39
211
10
1037.832494
20
555.516963
11
1037.836592
21
555.523628
0
LINE
8
annotation
62
1
39
211
10
1037.836592
20
555.523628
11
1037.840645
21
555.530594
0
LINE
8
annotation
62
1
39
211
10
1037.840645
20
555.530594
11
1037.844682
21
555.537911
0
LINE
8
annotation
62
1
39
211
10
1037.844682
20
555.537911
11
1037.848735
21
555.545631
0
LINE
8
annotation
62
1
39
211
10
1037.848735
20
555.545631
11
1037.848735
21
555.545631
0
LINE
8
annotation
62
1
39
211
10
1037.848735
20
555.545631
11
1038.013711
21
555.899847
0
LINE
8
annotation
62
1
39
211
10
1038.013711
20
555.899847
11
1038.110087
21
556.267024
0
LINE
8
annotation
62
1
39
211
10
1038.110087
20
556.267024
11
1038.140225
21
556.638864
0
LINE
8
annotation
62
1
39
211
10
1038.140225
20
556.638864
11
1038.106487
21
557.007071
0
LINE
8
annotation
62
1
39
211
10
1038.106487
20
557.007071
11
1038.011235
21
557.363348
0
LINE
8
annotation
62
1
39
211
10
1038.011235
20
557.363348
11
1037.856831
21
557.699399
0
LINE
8
annotation
62
1
39
211
10
1037.856831
20
557.699399
11
1037.645636
21
558.006926
0
LINE
8
annotation
62
1
39
211
10
1037.645636
20
558.006926
11
1037.380013
21
558.277633
0
LINE
8
annotation
62
1
39
211
10
1037.380013
20
558.277633
11
1037.062324
21
558.503223
0
LINE
8
annotation
62
1
39
211
10
1037.062324
20
558.503223
11
1037.062324
21
558.503223
0
LINE
8
annotation
62
1
39
211
10
1037.062324
20
558.503223
11
1036.707122
21
558.665854
0
LINE
8
annotation
62
1
39
211
10
1036.707122
20
558.665854
11
1036.339382
21
558.760745
0
LINE
8
annotation
62
1
39
211
10
1036.339382
20
558.760745
11
1035.967326
21
558.790032
0
LINE
8
annotation
62
1
39
211
10
1035.967326
20
558.790032
11
1035.599175
21
558.755849
0
LINE
8
annotation
62
1
39
211
10
1035.599175
20
558.755849
11
1035.243149
21
558.660333
0
LINE
8
annotation
62
1
39
211
10
1035.243149
20
558.660333
11
1034.907470
21
558.505620
0
LINE
8
annotation
62
1
39
211
10
1034.907470
20
558.505620
11
1034.600360
21
558.293845
0
LINE
8
annotation
62
1
39
211
10
1034.600360
20
558.293845
11
1034.330040
21
558.027144
0
LINE
8
annotation
62
1
39
211
10
1034.330040
20
558.027144
11
1034.104732
21
557.707653
0
LINE
8
annotation
62
1
39
211
10
1034.104732
20
557.707653
11
1033.820817
21
557.163026
0
LINE
8
annotation
62
1
39
211
10
965.503949
20
678.076733
11
970.016248
21
678.076733
0
LINE
8
annotation
62
1
39
211
10
970.016248
20
678.076733
11
970.016248
21
678.076733
0
LINE
8
annotation
62
1
39
211
10
970.016248
20
678.076733
11
970.827796
21
678.149534
0
LINE
8
annotation
62
1
39
211
10
970.827796
20
678.149534
11
971.591434
21
678.359351
0
LINE
8
annotation
62
1
39
211
10
971.591434
20
678.359351
11
972.294462
21
678.693306
0
LINE
8
annotation
62
1
39
211
10
972.294462
20
678.693306
11
972.924178
21
679.138517
0
LINE
8
annotation
62
1
39
211
10
972.924178
20
679.138517
11
973.467881
21
679.682107
0
LINE
8
annotation
62
1
39
211
10
973.467881
20
679.682107
11
973.912871
21
680.311196
0
LINE
8
annotation
62
1
39
211
10
973.912871
20
680.311196
11
974.246446
21
681.012904
0
LINE
8
annotation
62
1
39
211
10
974.246446
20
681.012904
11
974.455905
21
681.774352
0
LINE
8
annotation
62
1
39
211
10
974.455905
20
681.774352
11
974.528547
21
682.582660
0
LINE
8
annotation
62
1
39
211
10
974.528547
20
682.582660
11
974.528547
21
684.841996
0
LINE
8
annotation
62
1
39
211
10
974.528547
20
684.841996
11
974.528547
21
684.841996
0
LINE
8
annotation
62
1
39
211
10
974.528547
20
684.841996
11
974.455905
21
685.649969
0
LINE
8
annotation
62
1
39
211
10
974.455905
20
685.649969
11
974.246446
21
686.411238
0
LINE
8
annotation
62
1
39
211
10
974.246446
20
686.411238
11
973.912871
21
687.112894
0
LINE
8
annotation
62
1
39
211
10
973.912871
20
687.112894
11
973.467881
21
687.742025
0
LINE
8
annotation
62
1
39
211
10
973.467881
20
687.742025
11
972.924178
21
688.285719
0
LINE
8
annotation
62
1
39
211
10
972.924178
20
688.285719
11
972.294462
21
688.731067
0
LINE
8
annotation
62
1
39
211
10
972.294462
20
688.731067
11
971.591434
21
689.065158
0
LINE
8
annotation
62
1
39
211
10
971.591434
20
689.065158
11
970.827796
21
689.275080
0
LINE
8
annotation
62
1
39
211
10
970.827796
20
689.275080
11
970.016248
21
689.347923
0
LINE
8
annotation
62
1
39
211
10
970.016248
20
689.347923
11
967.756913
21
689.347923
0
LINE
8
annotation
62
1
39
211
10
967.756913
20
689.347923
11
970.016248
21
689.347923
0
LINE
8
annotation
62
1
39
211
10
970.016248
20
689.347923
11
970.016248
21
689.347923
0
LINE
8
annotation
62
1
39
211
10
970.016248
20
689.347923
11
970.827796
21
689.420784
0
LINE
8
annotation
62
1
39
211
10
970.827796
20
689.420784
11
971.591434
21
689.630828
0
LINE
8
annotation
62
1
39
211
10
971.591434
20
689.630828
11
972.294462
21
689.965251
0
LINE
8
annotation
62
1
39
211
10
972.294462
20
689.965251
11
972.924178
21
690.411246
0
LINE
8
annotation
62
1
39
211
10
972.924178
20
690.411246
11
973.467881
21
690.956007
0
LINE
8
annotation
62
1
39
211
10
973.467881
20
690.956007
11
973.912871
21
691.586728
0
LINE
8
annotation
62
1
39
211
10
973.912871
20
691.586728
11
974.246446
21
692.290604
0
LINE
8
annotation
62
1
39
211
10
974.246446
20
692.290604
11
974.455905
21
693.054827
0
LINE
8
annotation
62
1
39
211
10
974.455905
20
693.054827
11
974.528547
21
693.866594
0
LINE
8
annotation
62
1
39
211
10
974.528547
20
693.866594
11
974.528547
21
693.866594
0
LINE
8
annotation
62
1
39
211
10
974.528547
20
693.866594
11
974.455905
21
694.674567
0
LINE
8
annotation
62
1
39
211
10
974.455905
20
694.674567
11
974.246446
21
695.435837
0
LINE
8
annotation
62
1
39
211
10
974.246446
20
695.435837
11
973.912871
21
696.137492
0
LINE
8
annotation
62
1
39
211
10
973.912871
20
696.137492
11
973.467881
21
696.766623
0
LINE
8
annotation
62
1
39
211
10
973.467881
20
696.766623
11
972.924178
21
697.310317
0
LINE
8
annotation
62
1
39
211
10
972.924178
20
697.310317
11
972.294462
21
697.755665
0
LINE
8
annotation
62
1
39
211
10
972.294462
20
697.755665
11
971.591434
21
698.089756
0
LINE
8
annotation
62
1
39
211
10
971.591434
20
698.089756
11
970.827796
21
698.299678
0
LINE
8
annotation
62
1
39
211
10
970.827796
20
698.299678
11
970.016248
21
698.372521
0
LINE
8
annotation
62
1
39
211
10
970.016248
20
698.372521
11
965.503949
21
698.372521
0
LINE
8
annotation
62
1
39
211
10
924.901442
20
821.987378
11
913.618783
21
821.987378
0
LINE
8
annotation
62
1
39
211
10
913.618783
20
821.987378
11
918.124710
21
837.789982
0
LINE
8
annotation
62
1
39
211
10
921.519448
20
817.469982
11
921.519448
21
826.494580
0
LINE
8
annotation
62
1
39
211
10
910.890992
20
956.863868
11
915.403291
21
956.863868
0
LINE
8
annotation
62
1
39
211
10
915.403291
20
956.863868
11
915.403291
21
956.863868
0
LINE
8
annotation
62
1
39
211
10
915.403291
20
956.863868
11
916.213161
21
956.936685
0
LINE
8
annotation
62
1
39
211
10
916.213161
20
956.936685
11
916.975907
21
957.146613
0
LINE
8
annotation
62
1
39
211
10
916.975907
20
957.146613
11
917.678673
21
957.480866
0
LINE
8
annotation
62
1
39
211
10
917.678673
20
957.480866
11
918.308599
21
957.926660
0
LINE
8
annotation
62
1
39
211
10
918.308599
20
957.926660
11
918.852827
21
958.471209
0
LINE
8
annotation
62
1
39
211
10
918.852827
20
958.471209
11
919.298498
21
959.101729
0
LINE
8
annotation
62
1
39
211
10
919.298498
20
959.101729
11
919.632755
21
959.805435
0
LINE
8
annotation
62
1
39
211
10
919.632755
20
959.805435
11
919.842738
21
960.569542
0
LINE
8
annotation
62
1
39
211
10
919.842738
20
960.569542
11
919.915590
21
961.381265
0
LINE
8
annotation
62
1
39
211
10
919.915590
20
961.381265
11
919.915590
21
963.629131
0
LINE
8
annotation
62
1
39
211
10
919.915590
20
963.629131
11
919.915590
21
963.629131
0
LINE
8
annotation
62
1
39
211
10
919.915590
20
963.629131
11
919.842780
21
964.440461
0
LINE
8
annotation
62
1
39
211
10
919.842780
20
964.440461
11
919.632901
21
965.203513
0
LINE
8
annotation
62
1
39
211
10
919.632901
20
965.203513
11
919.298781
21
965.905693
0
LINE
8
annotation
62
1
39
211
10
919.298781
20
965.905693
11
918.853246
21
966.534404
0
LINE
8
annotation
62
1
39
211
10
918.853246
20
966.534404
11
918.309123
21
967.077050
0
LINE
8
annotation
62
1
39
211
10
918.309123
20
967.077050
11
917.679239
21
967.521035
0
LINE
8
annotation
62
1
39
211
10
917.679239
20
967.521035
11
916.976421
21
967.853762
0
LINE
8
annotation
62
1
39
211
10
916.976421
20
967.853762
11
916.213496
21
968.062635
0
LINE
8
annotation
62
1
39
211
10
916.213496
20
968.062635
11
915.403291
21
968.135059
0
LINE
8
annotation
62
1
39
211
10
915.403291
20
968.135059
11
910.890992
21
968.135059
0
LINE
8
annotation
62
1
39
211
10
910.890992
20
968.135059
11
910.890992
21
977.183868
0
LINE
8
annotation
62
1
39
211
10
910.890992
20
977.183868
11
919.915590
21
977.183868
0
LINE
8
annotation
62
1
39
211
10
926.820274
20
739.722479
11
895.437848
21
739.722479
0
LINE
8
annotation
62
1
39
211
10
895.437848
20
739.722479
11
926.820274
21
796.242036
0
LINE
8
annotation
62
1
39
211
10
926.820274
20
796.242036
11
895.437848
21
796.242036
0
LINE
8
annotation
62
1
39
211
10
978.924351
20
767.982257
11
948.020424
21
767.982257
0
LINE
8
annotation
62
1
39
211
10
1012.680661
20
739.722479
11
1012.680661
21
796.242036
0
LINE
8
annotation
62
1
39
211
10
1012.680661
20
796.242036
11
1000.115640
21
783.673470
0
LINE
8
frame
62
5
39
2
10
0.000000
20
0.000000
11
1219.200000
21
0.000000
0
LINE
8
frame
62
5
39
2
10
1219.200000
20
0.000000
11
1219.200000
21
1219.200000
0
LINE
8
frame
62
5
39
2
10
1219.200000
20
1219.200000
11
0.000000
21
1219.200000
0
LINE
8
frame
62
5
39
2
10
0.000000
20
1219.200000
11
0.000000
21
0.000000
0
ENDSEC
0
EOF
