<?xml version="1.0" encoding="UTF-8"?>
<svg width="1972px" height="1393px" viewBox="0 0 1972 1393" version="1.1" xmlns="http://www.w3.org/2000/svg" xmlns:xlink="http://www.w3.org/1999/xlink">
    <!-- Generator: Sketch 60.1 (88133) - https://sketch.com -->
    <title>Circuit_de_la_Sarthe_track_map</title>
    <desc>Created with Sketch.</desc>
    <g id="Page-1" stroke="none" stroke-width="1" fill="none" fill-rule="evenodd">
        <g id="A4" transform="translate(-143.000000, -353.000000)" stroke="#000000" stroke-width="4.5">
            <g id="Circuit_de_la_Sarthe_track_map" transform="translate(145.000000, 355.000000)">
                <g id="use4926" transform="translate(0.285680, 0.492452)">
                    <path d="M611.179433,1360.45837 C586.606949,1364.75014 562.192108,1369.94108 537.646676,1374.39595 C517.175321,1378.11139 496.72577,1382.20256 476.129075,1384.96928 C464.52515,1386.52802 452.752667,1386.95417 441.044817,1387.37231 C430.324374,1387.75519 419.528352,1388.06722 408.844198,1387.37231 C399.823496,1386.7856 390.789365,1385.34896 381.930248,1383.52747 C373.647743,1381.82452 364.831805,1380.54506 357.41933,1376.79898 C349.93301,1373.01557 343.40816,1366.83262 337.23386,1360.93897 C325.785935,1350.01139 315.88994,1337.25272 304.55264,1326.33532 C302.913575,1324.75696 300.43076,1323.08372 298.304765,1323.45169 C292.100255,1324.52555 285.884945,1329.22897 279.56111,1330.66078 C277.394225,1331.1514 274.511105,1330.73683 272.83262,1329.21896 C256.087865,1314.07589 240.95075,1296.27935 224.29139,1280.67773 C220.765295,1277.37551 216.56444,1274.72546 212.27624,1272.50743 C202.62686,1267.51637 191.688545,1264.65234 182.47865,1259.05045 C176.14895,1255.20042 170.4134,1249.80499 165.657425,1244.15165 C161.922695,1239.71225 158.774465,1234.33479 157.00652,1228.77226 C152.206175,1213.66872 151.264895,1196.93556 145.95257,1182.15344 C143.895605,1176.4297 139.35383,1171.20356 134.898635,1167.25464 C132.30494,1164.95568 128.295275,1164.07797 124.8059,1163.4098 C120.76577,1162.63616 116.42291,1162.53374 112.310135,1162.9292 C108.09239,1163.33476 104.028875,1165.49476 99.81437,1165.81283 C95.53817,1166.13556 90.87632,1166.08784 86.838005,1164.85162 C83.02643,1163.68481 79.535795,1161.04222 76.26467,1158.60374 C70.724675,1154.47393 65.504435,1149.83527 60.40466,1145.14676 C55.5719,1140.70375 50.3234,1136.50345 46.46708,1131.20918 C31.41956,1110.55072 16.656005,1089.16339 3.693125,1067.28854 C1.276595,1063.21066 0.028625,1057.92977 0.32888,1053.35096 C0.66944,1048.15745 3.11423,1042.75477 5.61554,1037.97157 C12.24575,1025.29274 19.967945,1013.04129 27.72344,1000.96489 C31.182095,995.57927 34.766105,990.145955 39.25799,985.58549 C76.739045,947.5322 114.85451,909.84086 153.642275,873.12362 C159.871295,867.227105 166.866005,862.022 174.308345,857.744225 C337.160825,764.138525 500.869724,671.63876 664.526727,579.473195 C666.99929,578.080745 669.99758,576.924245 672.69704,577.070165 C675.925055,577.24466 679.01567,579.679655 682.30916,580.43441 C686.705375,581.44187 691.57553,583.126535 695.76614,582.356825 C699.425435,581.684705 703.22714,578.89547 705.85886,576.10895 C708.674015,573.128195 710.031725,568.743935 712.10675,565.055 C714.357185,561.05423 716.0384,556.62554 718.83524,553.03985 C722.28629,548.615435 725.94548,543.847445 730.85039,541.0247 C928.601105,427.22033 1129.03464,316.84331 1326.80214,203.15849 C1330.24847,201.177395 1332.43615,197.355245 1334.49185,194.02697 C1335.80039,191.908385 1336.44575,189.28808 1336.89488,186.81788 C1337.40697,184.00142 1336.87748,180.989405 1337.3755,178.166975 C1337.83864,175.542545 1338.30245,172.57484 1339.77853,170.47727 C1341.3463,168.24938 1343.97533,166.29821 1346.50702,165.190595 C1349.10181,164.05538 1352.24707,163.79222 1355.15792,163.74878 C1362.98062,163.63208 1370.89099,164.99597 1378.70764,164.709995 C1384.02755,164.51537 1389.58138,164.01866 1394.56763,162.306965 C1400.31491,160.334015 1405.4978,156.60719 1410.90824,153.656045 C1430.16893,143.150225 1449.02852,131.82338 1468.58101,121.93604 C1477.2241,117.565385 1486.18447,113.57684 1495.49495,110.88209 C1584.70874,85.060865 1674.44663,60.6419045 1764.15385,36.3881225 C1810.13779,23.9556275 1856.28266,11.637695 1902.56845,0.823259 C1907.70754,-0.377461 1913.14252,0.251516 1918.42846,0.342653 C1931.72597,0.5719205 1945.3948,0.096964108 1958.31878,1.7844725 C1961.25481,2.17001 1964.44678,4.3857785 1966.00847,6.590534 C1967.17021,8.2306295 1966.60312,11.073794 1966.48909,13.3190225 C1961.95726,102.549185 1957.72517,191.887295 1952.07089,281.01671 C1951.6375,287.84834 1949.96434,294.57866 1948.22605,301.202165 C1931.3809,365.38799 1914.56029,429.67529 1896.32057,493.44467 C1893.57382,503.04785 1889.50709,512.270975 1885.26662,521.31983 C1853.62183,588.847565 1822.95538,657.53663 1788.66476,723.17447 C1785.6283,728.986775 1778.90216,732.237755 1773.28537,735.670235 C1758.71669,744.573305 1742.17514,750.98366 1728.10838,760.18115 C1725.51413,761.877395 1723.59985,765.37622 1723.30232,768.351455 C1722.79883,773.386325 1723.03969,779.64488 1725.70535,784.211465 C1742.58434,813.127115 1763.82794,840.29978 1781.93629,868.79816 C1783.3726,871.058585 1784.61901,874.157105 1784.33932,876.487865 C1784.13841,878.16215 1782.23396,879.9887 1780.49446,880.813325 C1714.30828,912.18932 1646.80004,941.611865 1580.56226,973.089725 C1575.67031,975.4145 1571.38934,978.90206 1567.10528,982.221245 C1535.82448,1006.45682 1505.07208,1031.40509 1473.86767,1055.75399 C1462.77872,1064.40673 1451.14502,1072.37734 1440.22523,1081.22614 C1432.56158,1087.43633 1425.06151,1093.92944 1418.11735,1100.93099 C1405.67705,1113.47408 1394.6986,1127.52929 1382.07187,1139.86009 C1374.19273,1147.55456 1365.68875,1155.02132 1356.59974,1161.00677 C1352.55218,1163.67224 1347.43694,1164.81167 1342.66216,1165.81283 C1337.50441,1166.89429 1332.06239,1167.48335 1326.80215,1167.25465 C1321.00844,1167.00275 1314.87337,1166.39564 1309.50032,1164.37102 C1303.81943,1162.2304 1298.97778,1157.8768 1293.64033,1154.75888 C1282.79737,1148.42488 1272.18905,1141.45657 1260.95909,1136.01524 C1256.64944,1133.92706 1251.75419,1132.72255 1247.02151,1132.1704 C1242.14207,1131.60113 1237.04234,1132.0864 1232.12272,1132.651 C1227.27002,1133.20786 1222.42219,1134.22418 1217.70454,1135.53464 C1205.12036,1139.03024 1192.44053,1142.59135 1180.21724,1147.06919 C1176.26012,1148.51882 1172.48024,1150.76558 1169.16331,1153.31707 C1166.23237,1155.57164 1163.56055,1158.4315 1161.4736,1161.48737 C1159.07489,1164.99977 1157.71091,1169.22013 1155.70633,1173.02192 C1153.06505,1178.03123 1150.60658,1183.18328 1147.53602,1187.92072 C1144.99951,1191.8342 1142.37983,1195.96919 1138.8851,1198.97467 C1134.36973,1202.85788 1128.72041,1205.53667 1123.50571,1208.58679 C1120.22971,1210.50293 1117.04023,1213.0271 1113.41297,1213.87346 C1107.42809,1215.26993 1100.91827,1215.22201 1094.66933,1215.31528 C1090.18474,1215.38218 1085.3902,1215.72385 1081.21235,1214.35406 C1075.61786,1212.5198 1070.48546,1208.84342 1065.35234,1205.70316 C1056.86828,1200.5129 1049.1112,1193.89586 1040.36083,1189.36253 C1035.81443,1187.00717 1030.52341,1185.50429 1025.46203,1185.03709 C1020.11027,1184.54308 1014.2972,1184.87912 1009.12142,1186.4789 C996.67496,1190.32598 984.949805,1196.90734 972.59534,1201.3777 C960.599075,1205.71844 948.36503,1209.55886 936.06926,1212.91225 C930.742805,1214.36492 925.222685,1215.37327 919.72865,1215.79588 C912.72692,1216.33447 905.551355,1215.12758 898.58198,1215.79588 C893.856605,1216.249 888.920315,1217.07496 884.6444,1219.16012 C862.96757,1229.73092 842.18213,1242.5171 820.72376,1253.76377 C792.35927,1268.63005 763.11521,1282.10378 735.17585,1297.49894 C731.715605,1299.40561 728.57279,1302.54358 726.52493,1305.66925 C725.528945,1307.18944 726.827,1309.75076 726.04433,1311.43652 C724.744385,1314.23642 722.994545,1317.56368 720.277055,1319.12623 C710.17838,1324.93297 697.58123,1327.70881 687.595835,1333.54442 C685.245665,1334.9179 683.79098,1337.82673 683.62193,1340.70664 C683.54918,1341.94616 683.71133,1343.0899 683.52818,1344.27023 C683.11442,1346.9366 680.375615,1349.35882 677.9837,1349.88503 C656.345302,1354.64548 633.385958,1356.57983 611.179433,1360.45837 L611.179433,1360.45837 Z" id="path2830"></path>
                </g>
            </g>
        </g>
    </g>
</svg>