<?xml version="1.0" encoding="UTF-8"?>
<svg width="970px" height="687px" viewBox="0 0 970 687" version="1.1" xmlns="http://www.w3.org/2000/svg" xmlns:xlink="http://www.w3.org/1999/xlink">
    <!-- Generator: Sketch 60.1 (88133) - https://sketch.com -->
    <title>Circuit_de_la_Sarthe_track_map</title>
    <desc>Created with Sketch.</desc>
    <defs>
        <filter x="-0.8%" y="-1.2%" width="101.6%" height="102.3%" filterUnits="objectBoundingBox" id="filter-1">
            <feOffset dx="0" dy="1" in="SourceAlpha" result="shadowOffsetOuter1"></feOffset>
            <feGaussianBlur stdDeviation="1" in="shadowOffsetOuter1" result="shadowBlurOuter1"></feGaussianBlur>
            <feColorMatrix values="0 0 0 0 0   0 0 0 0 0   0 0 0 0 0  0 0 0 0.5 0" type="matrix" in="shadowBlurOuter1" result="shadowMatrixOuter1"></feColorMatrix>
            <feMerge>
                <feMergeNode in="shadowMatrixOuter1"></feMergeNode>
                <feMergeNode in="SourceGraphic"></feMergeNode>
            </feMerge>
        </filter>
    </defs>
    <g id="Page-1" stroke="none" stroke-width="1" fill="none" fill-rule="evenodd">
        <g id="A4" transform="translate(-644.000000, -707.000000)" stroke="#000000" stroke-width="2.205">
            <g id="Circuit_de_la_Sarthe_track_map" filter="url(#filter-1)" transform="translate(647.000000, 709.000000)">
                <g id="use4926" transform="translate(0.139983, 0.241301)">
                    <path d="M299.477922,666.624599 C287.437405,668.727566 275.474133,671.271129 263.446871,673.454013 C253.415907,675.274579 243.395627,677.279254 233.303247,678.634947 C227.617323,679.39873 221.848807,679.607543 216.111961,679.812432 C210.858944,680.000041 205.568893,680.152935 200.333657,679.812432 C195.913513,679.524944 191.486789,678.82099 187.145822,677.928458 C183.087394,677.094012 178.767584,676.467079 175.135472,674.631498 C171.467175,672.777629 168.269998,669.747981 165.244591,666.860093 C159.635108,661.505581 154.786071,655.253833 149.230794,649.904304 C148.427652,649.130908 147.211072,648.311023 146.169335,648.491326 C143.129125,649.01752 140.083623,651.322193 136.984944,652.02378 C135.92317,652.264184 134.510441,652.061044 133.687984,651.31729 C125.483054,643.897186 118.065868,635.176882 109.902781,627.532088 C108.174995,625.914 106.116576,624.615475 104.015358,623.528638 C99.2871614,621.083021 93.9273871,619.679649 89.4145385,616.934718 C86.3129855,615.048208 83.502566,612.404443 81.1721383,609.634308 C79.3421206,607.459002 77.7994879,604.82405 76.9331948,602.098405 C74.5810258,594.697675 74.1197986,586.498427 71.5167593,579.255186 C70.5088465,576.450551 68.2833767,573.889744 66.1003312,571.954776 C64.8294206,570.828286 62.8646848,570.398208 61.154891,570.070802 C59.1752273,569.691718 57.0472259,569.641533 55.0319662,569.835308 C52.9652711,570.03403 50.9741487,571.09243 48.9090413,571.248287 C46.8137033,571.406422 44.5293968,571.383042 42.5506224,570.777291 C40.6829507,570.205557 38.9725396,568.910685 37.3696883,567.715833 C34.6550907,565.692223 32.0971731,563.41928 29.5982834,561.121912 C27.230231,558.944835 24.658466,556.886688 22.7688692,554.292498 C15.3955844,544.16985 8.16144245,533.690059 1.80963125,522.971385 C0.62553155,520.973221 0.01402625,518.385587 0.1611512,516.14197 C0.3280256,513.59715 1.5259727,510.949835 2.7516146,508.606067 C6.0004175,502.393443 9.78429305,496.390235 13.5844856,490.472794 C15.2792266,487.833842 17.0353915,485.171518 19.2364151,482.93689 C37.6021321,464.290778 56.2787099,445.822021 75.2847148,427.830574 C78.3369346,424.941281 81.7643425,422.39078 85.4110891,420.29467 C165.208804,374.427877 245.426165,329.102992 325.618096,283.941866 C326.829652,283.259565 328.298814,282.69288 329.62155,282.764381 C331.203277,282.849883 332.717678,284.043031 334.331488,284.412861 C336.485634,284.906516 338.87201,285.732002 340.925409,285.354844 C342.718463,285.025505 344.581299,283.65878 345.870841,282.293386 C347.250267,280.832816 347.915545,278.684528 348.932308,276.87695 C350.035021,274.916573 350.858816,272.746515 352.229268,270.989527 C353.920282,268.821563 355.713285,266.485248 358.116691,265.102103 C455.014541,209.337962 553.226976,155.253222 650.133051,99.5476601 C651.82175,98.5769236 652.893711,96.7040701 653.901007,95.0732153 C654.542191,94.0351087 654.858418,92.7511592 655.078491,91.5407612 C655.329413,90.1606958 655.069965,88.6848085 655.313993,87.3018178 C655.540931,86.0158471 655.768201,84.5616716 656.491477,83.5338623 C657.259685,82.4421962 658.547912,81.4861229 659.788437,80.9433916 C661.059884,80.3871362 662.601062,80.2581878 664.027381,80.2369022 C667.860501,80.1797192 671.736583,80.8480253 675.566741,80.7078976 C678.1735,80.6125313 680.894874,80.3691434 683.338139,79.5304129 C686.154306,78.5636674 688.693922,76.7375231 691.345038,75.2914621 C700.782776,70.1436103 710.023975,64.5934562 719.604692,59.7486596 C723.839807,57.6070387 728.230388,55.6526516 732.792526,54.3322241 C776.507283,41.6798239 820.478849,29.7145332 864.435384,17.83018 C886.967515,11.7382575 909.578503,5.70247055 932.258538,0.40339691 C934.776692,-0.18495589 937.439832,0.12324284 940.029943,0.16789997 C946.545725,0.280241045 953.24345,0.0475124129 959.576202,0.874391525 C961.014854,1.0633049 962.57892,2.14903147 963.34415,3.22936166 C963.9134,4.03300846 963.635526,5.42615906 963.579652,6.52632103 C961.359055,50.2491007 959.285333,94.0247746 956.514736,137.698188 C956.302373,141.045687 955.482524,144.343543 954.630762,147.589061 C946.376639,179.040115 938.13454,210.540892 929.197079,241.787888 C927.851169,246.493447 925.858474,251.012778 923.780644,255.446717 C908.274694,288.535307 893.248134,322.192949 876.445732,354.35549 C874.957865,357.20352 871.662058,358.7965 868.909829,360.478415 C861.771178,364.840919 853.665819,367.981993 846.773106,372.488764 C845.501924,373.319924 844.563924,375.034348 844.418137,376.492213 C844.171427,378.959299 844.289446,382.025991 845.595622,384.263618 C853.866327,398.432286 864.275691,411.746892 873.14878,425.711098 C873.852572,426.818707 874.463312,428.336981 874.326264,429.479054 C874.227818,430.299454 873.29464,431.194463 872.442283,431.598529 C840.011055,446.972767 806.93202,461.389814 774.475507,476.813965 C772.078452,477.953105 769.980777,479.662009 767.881587,481.28841 C752.553993,493.163842 737.485317,505.388494 722.195156,517.319455 C716.761573,521.559295 711.06106,525.464894 705.710363,529.800806 C701.955174,532.843802 698.280137,536.025426 694.877499,539.456185 C688.781755,545.602299 683.402312,552.489352 677.215214,558.531442 C673.354435,562.301734 669.187485,565.960447 664.73387,568.893317 C662.750568,570.199398 660.244101,570.757718 657.904456,571.248287 C655.377158,571.7782 652.710571,572.066842 650.133051,571.954776 C647.294136,571.831348 644.287949,571.533864 641.655157,570.541797 C638.871521,569.492894 636.49911,567.35963 633.883759,565.831851 C628.570709,562.728189 623.372635,559.313717 617.869954,556.647468 C615.758226,555.624259 613.359553,555.034047 611.04054,554.763494 C608.649614,554.484554 606.150747,554.722334 603.74013,554.998988 C601.36231,555.271849 598.986871,555.769848 596.675222,556.411974 C590.508976,558.124818 584.29586,559.869759 578.306448,562.063903 C576.367459,562.774222 574.515318,563.875134 572.890019,565.125362 C571.453859,566.230104 570.14467,567.631433 569.122064,569.128811 C567.946696,570.849887 567.278346,572.917861 566.296099,574.780741 C565.001875,577.235303 563.797224,579.759807 562.29265,582.08115 C561.049757,583.998758 559.766117,586.024903 558.053699,587.497586 C555.841165,589.400361 553.073001,590.712968 550.517795,592.207525 C548.912555,593.146436 547.34971,594.383279 545.572355,594.797995 C542.639764,595.482266 539.449952,595.458782 536.387972,595.504485 C534.19052,595.537266 531.841196,595.704684 529.794052,595.033489 C527.052751,594.134702 524.537875,592.333276 522.022647,590.794546 C517.865457,588.251321 514.064486,585.008971 509.776804,582.78764 C507.549071,581.633513 504.956468,580.897102 502.476395,580.668172 C499.854032,580.426107 497.005628,580.590769 494.469496,581.374661 C488.37073,583.25973 482.625404,586.484594 476.571717,588.675071 C470.693547,590.802036 464.698865,592.683841 458.673937,594.327 C456.063974,595.038811 453.359116,595.5329 450.667039,595.739979 C447.236191,596.003888 443.720164,595.412514 440.30517,595.739979 C437.989736,595.962008 435.570954,596.366728 433.475756,597.388459 C422.854109,602.568151 412.669244,608.833379 402.154642,614.344247 C388.256042,621.628722 373.926453,628.230852 360.236167,635.774481 C358.540646,636.708746 357.000667,638.246352 355.997216,639.77793 C355.509183,640.522823 356.14523,641.777872 355.761722,642.603895 C355.124749,643.975846 354.267327,645.606201 352.935757,646.37185 C347.987406,649.217153 341.814803,650.577314 336.921959,653.436766 C335.770376,654.109769 335.05758,655.535095 334.974746,656.946251 C334.939098,657.553618 335.018552,658.114049 334.928808,658.692413 C334.726066,659.998934 333.384051,661.185819 332.212013,661.443665 C321.609198,663.776283 310.359119,664.724117 299.477922,666.624599 L299.477922,666.624599 Z" id="path2830"></path>
                </g>
            </g>
        </g>
    </g>
</svg>