<?xml version="1.0" encoding="UTF-8"?>
<svg width="1387px" height="982px" viewBox="0 0 1387 982" version="1.1" xmlns="http://www.w3.org/2000/svg" xmlns:xlink="http://www.w3.org/1999/xlink">
    <!-- Generator: Sketch 60.1 (88133) - https://sketch.com -->
    <title>Circuit_de_la_Sarthe_track_map</title>
    <desc>Created with Sketch.</desc>
    <defs>
        <filter x="-0.7%" y="-1.0%" width="101.5%" height="102.1%" filterUnits="objectBoundingBox" id="filter-1">
            <feOffset dx="0" dy="1" in="SourceAlpha" result="shadowOffsetOuter1"></feOffset>
            <feGaussianBlur stdDeviation="1.5" in="shadowOffsetOuter1" result="shadowBlurOuter1"></feGaussianBlur>
            <feColorMatrix values="0 0 0 0 0   0 0 0 0 0   0 0 0 0 0  0 0 0 0.5 0" type="matrix" in="shadowBlurOuter1" result="shadowMatrixOuter1"></feColorMatrix>
            <feMerge>
                <feMergeNode in="shadowMatrixOuter1"></feMergeNode>
                <feMergeNode in="SourceGraphic"></feMergeNode>
            </feMerge>
        </filter>
    </defs>
    <g id="Page-1" stroke="none" stroke-width="1" fill="none" fill-rule="evenodd">
        <g id="A4" transform="translate(-435.000000, -559.000000)" stroke="#000000" stroke-width="3.15">
            <g id="Circuit_de_la_Sarthe_track_map" filter="url(#filter-1)" transform="translate(440.000000, 563.000000)">
                <g id="use4926" transform="translate(0.199976, 0.344716)">
                    <path d="M427.825603,952.320856 C410.624864,955.325095 393.534475,958.958756 376.352673,962.077162 C362.022725,964.67797 347.708039,967.541792 333.290352,969.478496 C325.167605,970.569614 316.926867,970.867919 308.731372,971.160617 C301.227062,971.42863 293.669847,971.647051 286.190938,971.160617 C279.876447,970.74992 273.552555,969.744272 267.351174,968.469226 C261.55342,967.277161 255.382264,966.381542 250.193531,963.759283 C244.953107,961.110899 240.385712,956.782831 236.063702,952.657276 C228.050155,945.007973 221.122958,936.076904 213.186848,928.434721 C212.039502,927.329869 210.301532,926.158604 208.813336,926.41618 C204.470179,927.167885 200.119461,930.460276 195.692777,931.462543 C194.175958,931.805977 192.157774,931.515778 190.982834,930.453272 C179.261506,919.853123 168.665525,907.395545 157.003973,896.474411 C154.535707,894.162857 151.595108,892.307822 148.593368,890.755198 C141.838802,887.261459 134.181982,885.256642 127.735055,881.335312 C123.304265,878.640298 119.28938,874.86349 115.960198,870.906155 C113.345887,867.798575 111.142126,864.034356 109.904564,860.140579 C106.544323,849.568108 105.885427,837.854895 102.166799,827.507408 C100.726924,823.500787 97.547681,819.842492 94.4290445,817.078251 C92.613458,815.468979 89.8066925,814.854582 87.36413,814.38686 C84.536039,813.845312 81.496037,813.773618 78.6170945,814.05044 C75.664673,814.334329 72.8202125,815.846329 69.870059,816.068981 C66.876719,816.294889 63.613424,816.261488 60.7866035,815.396131 C58.118501,814.579367 55.6750565,812.729551 53.385269,811.022618 C49.5072725,808.131748 45.8531045,804.884686 42.283262,801.602732 C38.90033,798.492622 35.22638,795.552412 32.526956,791.846426 C21.993692,777.385501 11.6592035,762.41437 2.5851875,747.101978 C0.8936165,744.247459 0.0200375,740.550839 0.230216,737.345672 C0.468608,733.710215 2.179961,729.928336 3.930878,726.580096 C8.572025,717.704918 13.9775615,709.128906 19.406408,700.67542 C21.8274665,696.905489 24.3362735,693.102168 27.480593,689.909843 C53.7173315,663.27254 80.398157,636.888602 107.549593,611.186534 C111.909907,607.058974 116.806204,603.4154 122.015842,600.420958 C236.012578,534.896968 350.608807,470.147132 465.168709,405.631237 C466.899503,404.656522 468.998306,403.846972 470.887928,403.949116 C473.147539,404.071262 475.310969,405.775759 477.616412,406.304087 C480.693762,407.009309 484.102871,408.188575 487.036298,407.649778 C489.597805,407.179294 492.258998,405.226829 494.101202,403.276265 C496.071811,401.189737 497.022208,398.120755 498.474725,395.5385 C500.05003,392.737961 501.22688,389.637878 503.184668,387.127895 C505.600403,384.030805 508.161836,380.693212 511.595273,378.71729 C650.020774,299.054231 790.324252,221.790317 928.761502,142.210943 C931.173929,140.824177 932.705302,138.148672 934.144295,135.818879 C935.060273,134.33587 935.512025,132.501656 935.826416,130.772516 C936.184876,128.800994 935.814236,126.692584 936.162847,124.716883 C936.487045,122.879782 936.811715,120.802388 937.844968,119.334089 C938.942407,117.774566 940.782731,116.408747 942.554911,115.633417 C944.371264,114.838766 946.572946,114.654554 948.610544,114.624146 C954.086431,114.542456 959.62369,115.497179 965.095345,115.296997 C968.819285,115.160759 972.706963,114.813062 976.197341,113.614876 C980.220437,112.233811 983.84846,109.625033 987.635768,107.559232 C1001.11825,100.205158 1014.31996,92.276366 1028.0067,85.355228 C1034.05687,82.2957695 1040.32913,79.503788 1046.84647,77.617463 C1109.29612,59.5426055 1172.11264,42.4493332 1234.90769,25.4716858 C1267.09645,16.7689393 1299.39786,8.1463865 1331.79791,0.5762813 C1335.39527,-0.2642227 1339.19976,0.1760612 1342.89992,0.2398571 C1352.20818,0.40034435 1361.77636,0.0678748756 1370.82315,1.24913075 C1372.87836,1.519007 1375.11274,3.07004495 1376.20593,4.6133738 C1377.01914,5.76144065 1376.62218,7.7516558 1376.54236,9.32331575 C1373.37008,71.7844295 1370.40762,134.321107 1366.44962,196.711697 C1366.14625,201.493838 1364.97503,206.205062 1363.75823,210.841516 C1351.96663,255.771593 1340.1922,300.772703 1327.4244,345.411269 C1325.50167,352.133495 1322.65496,358.589683 1319.68663,364.923881 C1297.53528,412.193296 1276.06876,460.275641 1252.06533,506.222129 C1249.93981,510.290743 1245.23151,512.566429 1241.29976,514.969165 C1231.10168,521.201314 1219.5226,525.688562 1209.67587,532.126805 C1207.85989,533.314177 1206.51989,535.763354 1206.31162,537.846019 C1205.95918,541.370428 1206.12778,545.751416 1207.99375,548.948026 C1219.80904,569.188981 1234.67956,588.209846 1247.3554,608.158712 C1248.36082,609.74101 1249.2333,611.909974 1249.03752,613.541506 C1248.89688,614.713505 1247.56377,615.99209 1246.34612,616.569328 C1200.01579,638.532524 1152.76003,659.128306 1106.39358,681.162808 C1102.96922,682.79015 1099.97254,685.231442 1096.9737,687.554872 C1075.07713,704.519774 1053.55045,721.983563 1031.70737,739.027793 C1023.9451,745.084708 1015.80151,750.664135 1008.15766,756.858295 C1002.79311,761.205431 997.543054,765.750608 992.682142,770.651693 C983.973935,779.431856 976.289017,789.270503 967.450306,797.90206 C961.934908,803.288192 955.982122,808.514924 949.619815,812.704739 C946.786526,814.570568 943.205858,815.368169 939.863509,816.068981 C936.253084,816.826 932.443673,817.238345 928.761502,817.078252 C924.705908,816.901925 920.411356,816.476948 916.650224,815.059711 C912.673601,813.561277 909.284443,810.513757 905.548228,808.331216 C897.958156,803.897413 890.532335,799.019596 882.671363,795.210668 C879.654608,793.748942 876.227933,792.905782 872.915057,792.519277 C869.499449,792.120791 865.929638,792.460477 862.485901,792.855697 C859.089014,793.245499 855.69553,793.956926 852.393175,794.874248 C843.584252,797.321168 834.708371,799.813942 826.152068,802.948433 C823.382084,803.963174 820.736168,805.535906 818.414314,807.321946 C816.362656,808.900148 814.492385,810.902047 813.03152,813.041159 C811.352423,815.499839 810.397637,818.454088 808.994428,821.115344 C807.145535,824.621861 805.424606,828.228296 803.275214,831.544501 C801.499654,834.28394 799.665881,837.178433 797.21957,839.282266 C794.058808,842.000516 790.104287,843.875669 786.453994,846.01075 C784.160794,847.352051 781.928158,849.11897 779.389079,849.711422 C775.199663,850.688951 770.642789,850.655404 766.268531,850.720693 C763.129315,850.767523 759.773137,851.006692 756.848645,850.047842 C752.932502,848.76386 749.339822,846.190394 745.746638,843.992209 C739.807796,840.35903 734.377837,835.727102 728.252578,832.553771 C725.070101,830.905019 721.366384,829.853003 717.823421,829.52596 C714.077189,829.180153 710.00804,829.415384 706.384994,830.53523 C697.672472,833.228186 689.464864,837.835135 680.816738,840.964387 C672.419353,844.002908 663.855521,846.691202 655.248482,849.038572 C651.519964,850.055444 647.65588,850.761286 643.810055,851.057113 C638.908844,851.434126 633.885949,850.589306 629.007386,851.057113 C625.699624,851.374297 622.244221,851.952469 619.25108,853.412084 C604.077299,860.811644 589.527491,869.76197 574.506632,877.634639 C554.651489,888.041032 534.180647,897.472646 514.623095,908.249258 C512.200924,909.583924 510.000953,911.780503 508.567451,913.968472 C507.870262,915.032605 508.7789,916.825532 508.231031,918.005564 C507.32107,919.965494 506.096182,922.294573 504.193939,923.388358 C497.124866,927.453076 488.306861,929.396164 481.317085,933.481094 C479.671966,934.442527 478.653686,936.478708 478.535351,938.494645 C478.484426,939.362312 478.597931,940.162927 478.469726,940.989161 C478.180094,942.85562 476.262931,944.551171 474.58859,944.919521 C459.441711,948.251833 443.370171,949.605881 427.825603,952.320856 L427.825603,952.320856 Z" id="path2830"></path>
                </g>
            </g>
        </g>
    </g>
</svg>