<?xml version="1.0" encoding="UTF-8"?>
<svg width="575px" height="2402px" viewBox="0 0 575 2402" version="1.1" xmlns="http://www.w3.org/2000/svg" xmlns:xlink="http://www.w3.org/1999/xlink">
    <!-- Generator: Sketch 60.1 (88133) - https://sketch.com -->
    <title>Cuby sides</title>
    <desc>Created with Sketch.</desc>
    <g id="Page-1" stroke="none" stroke-width="1" fill="none" fill-rule="evenodd">
        <g id="Cuby-sides" transform="translate(1.000000, 1.000000)" stroke="#000000">
            <polygon id="Rectangle" points="0 0 480 528 0 528"></polygon>
            <polygon id="Rectangle-Copy-4" points="0 1248 480 1776 0 1776"></polygon>
            <polygon id="Rectangle" transform="translate(333.000000, 264.000000) scale(-1, -1) translate(-333.000000, -264.000000) " points="93 0 573 528 93 528"></polygon>
            <polygon id="Rectangle-Copy-5" transform="translate(333.000000, 1512.000000) scale(-1, -1) translate(-333.000000, -1512.000000) " points="93 1248 573 1776 93 1776"></polygon>
            <polygon id="Rectangle" points="0 624 480 1152 0 1152"></polygon>
            <polygon id="Rectangle-Copy-6" points="0 1872 480 2400 0 2400"></polygon>
            <polygon id="Rectangle" transform="translate(333.000000, 888.000000) scale(-1, -1) translate(-333.000000, -888.000000) " points="93 624 573 1152 93 1152"></polygon>
            <polygon id="Rectangle-Copy-7" transform="translate(333.000000, 2136.000000) scale(-1, -1) translate(-333.000000, -2136.000000) " points="93 1872 573 2400 93 2400"></polygon>
        </g>
    </g>
</svg>