<?xml version="1.0" encoding="UTF-8"?>
<svg width="2330px" height="238px" viewBox="0 0 2330 238" version="1.1" xmlns="http://www.w3.org/2000/svg" xmlns:xlink="http://www.w3.org/1999/xlink">
    <!-- Generator: Sketch 60.1 (88133) - https://sketch.com -->
    <title>Group</title>
    <desc>Created with Sketch.</desc>
    <g id="Page-1" stroke="none" stroke-width="1" fill="none" fill-rule="evenodd">
        <g id="Artboard" transform="translate(-74.000000, -171.000000)" stroke="#000000">
            <g id="Group" transform="translate(75.000000, 171.000000)">
                <path d="M47.997396,0.499972875 L2304,24 C2317.25483,24.1380712 2327.88807,34.995166 2327.75,48.25 C2327.61396,61.3099975 2317.06,71.8639584 2304,72 L47.997396,95.5000271 C21.7638554,95.7732932 0.275843019,74.7283325 0.0025769715,48.4947919 C0.00085900215,48.3298669 2.01985901e-17,48.164934 0,48 C-3.21285645e-15,21.7650362 21.2676403,0.497395904 47.5026041,0.497395904 C47.6675381,0.497395904 47.832471,0.498254906 47.997396,0.499972875 Z" id="Rectangle"></path>
                <path d="M47.997396,142.499973 L2304,166 C2317.25483,166.138071 2327.88807,176.995166 2327.75,190.25 C2327.61396,203.309997 2317.06,213.863958 2304,214 L47.997396,237.500027 C21.7638554,237.773293 0.275843019,216.728333 0.0025769715,190.494792 C0.00085900215,190.329867 2.01985901e-17,190.164934 0,190 C-3.21285645e-15,163.765036 21.2676403,142.497396 47.5026041,142.497396 C47.6675381,142.497396 47.832471,142.498255 47.997396,142.499973 Z" id="Rectangle"></path>
            </g>
        </g>
    </g>
</svg>