<?xml version="1.0" encoding="UTF-8"?>
<svg width="1177px" height="238px" viewBox="0 0 1177 238" version="1.1" xmlns="http://www.w3.org/2000/svg" xmlns:xlink="http://www.w3.org/1999/xlink">
    <!-- Generator: Sketch 60.1 (88133) - https://sketch.com -->
    <title>Group</title>
    <desc>Created with Sketch.</desc>
    <g id="Page-1" stroke="none" stroke-width="1" fill="none" fill-rule="evenodd">
        <g id="Artboard" transform="translate(-74.000000, -171.000000)" stroke="#000000">
            <g id="Group" transform="translate(75.000000, 171.000000)">
                <path d="M47.9895867,0.999783057 L1152,24 C1165.25483,24.2761424 1175.77614,35.245166 1175.5,48.5 C1175.23196,61.3660295 1164.86603,71.7319577 1152,72 L47.9895867,95.0002169 C22.0320837,95.5409983 0.550979907,74.9366742 0.0101985934,48.9791712 C0.00339971551,48.652825 3.99745474e-17,48.326417 0,48 C-3.17956709e-15,22.0368644 21.04728,0.989584463 47.0104155,0.989584463 C47.3368325,0.989584463 47.6632406,0.992984179 47.9895867,0.999783057 Z" id="Rectangle"></path>
                <path d="M47.9895867,142.999783 L1152,166 C1165.25483,166.276142 1175.77614,177.245166 1175.5,190.5 C1175.23196,203.366029 1164.86603,213.731958 1152,214 L47.9895867,237.000217 C22.0320837,237.540998 0.550979907,216.936674 0.0101985934,190.979171 C0.00339971551,190.652825 3.99745474e-17,190.326417 0,190 C-3.17956709e-15,164.036864 21.04728,142.989584 47.0104155,142.989584 C47.3368325,142.989584 47.6632406,142.992984 47.9895867,142.999783 Z" id="Rectangle"></path>
            </g>
        </g>
    </g>
</svg>