<?xml version="1.0" encoding="UTF-8"?>
<svg width="4658px" height="1154px" viewBox="0 0 4658 1154" version="1.1" xmlns="http://www.w3.org/2000/svg" xmlns:xlink="http://www.w3.org/1999/xlink">
    <!-- Generator: Sketch 60.1 (88133) - https://sketch.com -->
    <title>Cubby</title>
    <desc>Created with Sketch.</desc>
    <g id="Page-1" stroke="none" stroke-width="1" fill="none" fill-rule="evenodd">
        <g id="Cut" transform="translate(-138.000000, -142.000000)" stroke="#000000">
            <g id="Cubby" transform="translate(2467.000000, 719.000000) rotate(-270.000000) translate(-2467.000000, -719.000000) translate(1891.000000, -1609.000000)">
                <rect id="Rectangle" x="5.91171556e-12" y="1296" width="480" height="336"></rect>
                <rect id="Rectangle" x="3.69482223e-12" y="1728" width="480" height="336"></rect>
                <rect id="Rectangle-Copy" x="-5.68434189e-14" y="3024" width="480" height="336"></rect>
                <rect id="Rectangle" x="9.60653779e-12" y="2160" width="480" height="336"></rect>
                <rect id="Rectangle-Copy-2" x="1.20508048e-11" y="3456" width="480" height="336"></rect>
                <rect id="Rectangle" x="9.20863386e-12" y="2592" width="480" height="336"></rect>
                <rect id="Rectangle-Copy-3" x="1.8189894e-12" y="3888" width="480" height="336"></rect>
                <rect id="Rectangle-Copy-3" x="1.1539214e-11" y="4320" width="480" height="336"></rect>
                <rect id="Rectangle" x="576" y="1584" width="480" height="1488"></rect>
                <rect id="Rectangle" x="576" y="3168" width="576" height="1488"></rect>
                <rect id="Rectangle" x="576" y="0" width="480" height="1488"></rect>
            </g>
        </g>
    </g>
</svg>